# 
# Wavefront OBJ file
# Converted by the DEEP Exploration Deep Exploration 6.0 6.0.2.6082 Release
# Right Hemisphere, LTD
# http://www.righthemisphere.com/
# 
mtllib comm-tower-03.mtl
# object body
g body
v 0.52491 -1.27290 -0.10650
v 0.00000 -0.00000 -0.10650
v 0.00000 -1.27290 -0.10650
v 1.40730 -0.66286 -0.10650
v 0.00000 -1.00288 0.59919
v 0.41307 -1.00288 0.59919
v 1.50736 -0.00000 -0.10650
v 1.23735 -0.00000 0.59919
v 1.13729 -0.52151 0.59919
v 0.00000 -0.00000 0.85772
v 1.53934 -1.05745 0.69932
v 1.58161 -1.85784 -0.12456
v 1.18534 -1.41108 0.70181
v 1.99669 -1.44291 -0.12456
v 1.01634 -1.38901 0.41117
v 1.25794 -1.67504 -0.12831
v 1.52658 -0.87806 0.41590
v 1.82394 -1.10952 -0.12831
v 0.95025 -0.41405 0.90996
v 0.52491 -0.83922 0.91025
v 0.94296 -0.26581 0.61823
v 0.35955 -0.84901 0.61876
v 0.52491 1.27289 -0.10650
v 0.00000 1.27289 -0.10650
v 1.40730 0.66285 -0.10650
v 0.41307 1.00287 0.59919
v 0.00000 1.00288 0.59919
v 1.13729 0.52150 0.59919
v -0.52491 -1.27290 -0.10650
v -1.40730 -0.66286 -0.10650
v -0.41307 -1.00288 0.59919
v -1.50736 -0.00000 -0.10650
v -1.23735 -0.00000 0.59919
v -1.13729 -0.52151 0.59919
v -1.53934 -1.05745 0.69932
v -1.18534 -1.41108 0.70181
v -1.58161 -1.85784 -0.12456
v -1.99669 -1.44291 -0.12456
v -1.01634 -1.38901 0.41117
v -1.25794 -1.67504 -0.12831
v -1.82394 -1.10952 -0.12831
v -1.52658 -0.87806 0.41590
v -0.95025 -0.41405 0.90996
v -0.52491 -0.83922 0.91025
v -0.94296 -0.26581 0.61823
v -0.35955 -0.84901 0.61876
v -0.52491 1.27289 -0.10650
v -1.40730 0.66285 -0.10650
v -0.41307 1.00287 0.59919
v -1.13729 0.52150 0.59919
v -0.27046 1.53308 0.69932
v 0.26561 2.12892 -0.12456
v 0.22991 1.53282 0.70181
v -0.32129 2.12903 -0.12456
v 0.33380 1.39770 0.41117
v 0.36522 1.77080 -0.12831
v -0.38829 1.39721 0.41590
v -0.43489 1.77114 -0.12831
v -0.30886 0.66157 0.90996
v 0.29254 0.66146 0.91025
v -0.40853 0.55159 0.61823
v 0.41639 0.55145 0.61876
# 62 verticies
vt 0.19235 0.48964
vt 0.19144 0.67039
vt 0.28250 0.48848
vt 0.31054 0.16119
vt 0.18769 0.05035
vt 0.26941 0.04988
vt 0.21284 0.16103
vt -0.06320 0.05194
vt 0.00351 0.16215
vt -0.10154 0.16101
vt 0.02260 0.05124
vt 0.14724 -0.05021
vt 0.06469 -0.04977
vt -0.35541 0.76004
vt -0.58072 0.77067
vt -0.35465 0.63286
vt -0.58008 0.62346
vt -0.02194 0.29428
vt -0.02330 0.38664
vt 0.15861 0.29557
vt 0.15744 0.38572
vt -0.35541 0.63343
vt -0.58072 0.62280
vt -0.35465 0.76061
vt -0.58008 0.77001
vt 0.24826 0.12882
vt 0.25428 0.08999
vt 0.15057 0.12791
vt 0.14941 0.09128
vt 0.10328 0.77166
vt 0.10464 0.67930
vt 0.28403 0.77074
vt 0.28519 0.68059
# 33 texture verticies
vn 0.00000 0.00000 -1.00000
vn 0.00000 0.00000 -1.00000
vn 0.00000 0.00000 -1.00000
vn 0.00000 -0.93397 0.35735
vn 0.26629 -0.88729 0.37657
vn 0.00000 -0.93397 0.35736
vn 0.28055 -0.88078 0.38146
vn 0.92742 0.00000 0.37403
vn 0.84162 -0.53019 -0.10283
vn 0.84612 0.00000 -0.53300
vn 0.75913 -0.51799 0.39421
vn 0.00000 0.00000 1.00000
vn 0.00000 -0.24962 0.96834
vn 0.07033 -0.22174 0.97257
vn 0.20452 0.00000 0.97886
vn 0.17295 -0.10814 0.97898
vn 0.39348 -0.38924 0.83287
vn 0.57354 -0.57266 0.58576
vn 0.39752 -0.39274 0.82930
vn 0.57282 -0.57304 0.58609
vn -0.48025 -0.84555 0.23324
vn -0.48353 -0.84481 0.22912
vn -0.52638 -0.81149 0.25378
vn -0.53989 -0.80283 0.25296
vn 0.85201 0.44458 0.27646
vn 0.80481 0.51837 0.28909
vn 0.85111 0.45065 0.26932
vn 0.79547 0.52758 0.29813
vn -0.38549 0.38739 0.83745
vn -0.39985 0.40060 0.82440
vn 0.73872 0.60816 0.29057
vn 0.74084 0.60116 0.29961
vn -0.53520 -0.77771 0.32973
vn -0.54474 -0.77586 0.31829
vn -0.66136 0.66187 0.35290
vn -0.66133 0.66187 0.35295
vn -0.58255 0.58305 -0.56629
vn -0.58083 0.58342 -0.56768
vn -0.39967 0.40551 -0.82209
vn -0.39524 0.39985 -0.82698
vn 0.00742 -0.00742 -0.99995
vn 0.00741 -0.00742 -0.99995
vn 0.00741 -0.00742 -0.99995
vn 0.00741 -0.00742 -0.99995
vn -0.16497 0.16838 -0.97182
vn -0.16884 0.16801 -0.97122
vn -0.00000 -0.00000 -1.00000
vn 0.00000 0.00000 -1.00000
vn 0.00000 0.93397 0.35735
vn 0.00000 0.93397 0.35735
vn 0.26629 0.88729 0.37657
vn 0.28055 0.88078 0.38146
vn 0.84162 0.53019 -0.10283
vn 0.75913 0.51799 0.39421
vn 0.07033 0.22174 0.97257
vn 0.00000 0.24962 0.96834
vn 0.17295 0.10814 0.97898
vn -0.26629 -0.88729 0.37657
vn -0.28055 -0.88078 0.38146
vn -0.84162 -0.53019 -0.10283
vn -0.92742 0.00000 0.37403
vn -0.84612 -0.00000 -0.53300
vn -0.75913 -0.51799 0.39421
vn -0.07033 -0.22174 0.97257
vn -0.20452 0.00000 0.97886
vn -0.17295 -0.10814 0.97898
vn -0.57354 -0.57266 0.58576
vn -0.39348 -0.38924 0.83287
vn -0.39752 -0.39274 0.82930
vn -0.57282 -0.57304 0.58609
vn 0.48353 -0.84481 0.22912
vn 0.48025 -0.84555 0.23324
vn 0.52638 -0.81149 0.25378
vn 0.53989 -0.80283 0.25296
vn -0.80481 0.51837 0.28909
vn -0.85201 0.44458 0.27646
vn -0.85111 0.45065 0.26932
vn -0.79547 0.52758 0.29813
vn 0.38549 0.38739 0.83745
vn 0.39985 0.40060 0.82440
vn -0.74084 0.60116 0.29961
vn -0.73872 0.60816 0.29057
vn 0.53520 -0.77771 0.32973
vn 0.54474 -0.77586 0.31829
vn 0.66136 0.66187 0.35290
vn 0.66133 0.66187 0.35295
vn 0.58083 0.58342 -0.56768
vn 0.58255 0.58305 -0.56629
vn 0.39967 0.40551 -0.82209
vn 0.39524 0.39985 -0.82698
vn -0.00741 -0.00742 -0.99995
vn -0.00742 -0.00742 -0.99995
vn -0.00741 -0.00742 -0.99995
vn -0.00741 -0.00742 -0.99995
vn 0.16497 0.16838 -0.97182
vn 0.16884 0.16801 -0.97122
vn -0.26629 0.88729 0.37657
vn -0.28055 0.88078 0.38146
vn -0.84162 0.53019 -0.10283
vn -0.75913 0.51799 0.39421
vn -0.07033 0.22174 0.97257
vn -0.17295 0.10814 0.97898
vn -0.00300 0.55347 0.83287
vn -0.00062 0.81049 0.58575
vn -0.00337 0.55880 0.82930
vn 0.00015 0.81025 0.58609
vn 0.93748 0.25831 0.23324
vn 0.93928 0.25546 0.22912
vn 0.94602 0.20160 0.25378
vn 0.94944 0.18592 0.25296
vn -0.91683 0.28810 0.27645
vn -0.93563 0.20255 0.28909
vn -0.92048 0.28317 0.26932
vn -0.93554 0.18942 0.29813
vn -0.00134 -0.54651 0.83745
vn -0.00053 -0.56600 0.82440
vn -0.95239 0.09232 0.29057
vn -0.94894 0.09876 0.29961
vn 0.92837 0.17149 0.32973
vn 0.93380 0.16343 0.31829
vn -0.00036 -0.93566 0.35290
vn -0.00039 -0.93564 0.35295
vn -0.00035 -0.82421 -0.56629
vn -0.00183 -0.82325 -0.56768
vn -0.00414 -0.56935 -0.82209
vn -0.00326 -0.56222 -0.82698
vn 0.00000 0.01049 -0.99994
vn 0.00000 0.01048 -0.99995
vn 0.00000 0.01049 -0.99995
vn 0.00000 0.01048 -0.99995
vn -0.00241 -0.23571 -0.97182
vn 0.00058 -0.23819 -0.97122
# 132 normals
usemtl turret_01
f  3/1/1 2/2/2 1/3/3
f  1/3/3 2/2/2 4/1/3
f  3/4/4 6/5/5 5/6/6
f  6/5/5 3/4/4 1/7/7
f  8/8/8 4/9/9 7/10/10
f  4/9/9 8/8/8 9/11/11
f  4/9/9 6/5/5 1/7/7
f  6/5/5 4/9/9 9/11/11
f  10/12/12 5/6/13 6/5/14
f  8/8/15 10/13/12 9/11/16
f  9/11/16 10/12/12 6/5/14
f  13/14/17 12/15/18 11/16/19
f  14/17/20 11/16/19 12/15/18
f  16/18/21 12/19/22 15/20/23
f  13/21/24 15/20/23 12/19/22
f  18/18/25 17/20/26 14/19/27
f  11/21/28 14/19/27 17/20/26
f  11/22/19 19/23/29 13/24/17
f  20/25/30 13/24/17 19/23/29
f  21/18/31 19/19/32 17/20/26
f  11/21/28 17/20/26 19/19/32
f  22/18/33 15/20/23 20/19/34
f  13/21/24 20/19/34 15/20/23
f  19/26/29 21/27/35 20/28/30
f  22/29/36 20/28/30 21/27/35
f  18/30/37 16/31/38 17/32/39
f  15/33/40 17/32/39 16/31/38
f  14/31/41 12/30/42 18/33/43
f  16/32/44 18/33/43 12/30/42
f  17/32/39 15/33/40 21/30/45
f  22/31/46 21/30/45 15/33/40
f  4/1/9 2/2/2 7/3/10
f  24/1/47 23/3/48 2/2/2
f  23/3/48 25/1/48 2/2/2
f  24/4/49 27/6/50 26/5/51
f  26/5/51 23/7/52 24/4/49
f  8/8/8 7/10/10 25/9/53
f  25/9/53 28/11/54 8/8/8
f  25/9/53 23/7/52 26/5/51
f  26/5/51 28/11/54 25/9/53
f  10/12/12 26/5/55 27/6/56
f  8/8/15 28/11/57 10/13/12
f  28/11/57 26/5/55 10/12/12
f  25/1/53 7/3/10 2/2/2
f  2/2/2 3/1/1 29/3/1
f  2/2/2 29/3/1 30/1/1
f  31/5/58 3/4/4 5/6/6
f  3/4/4 31/5/58 29/7/59
f  30/9/60 33/8/61 32/10/62
f  33/8/61 30/9/60 34/11/63
f  31/5/58 30/9/60 29/7/59
f  30/9/60 31/5/58 34/11/63
f  5/6/13 10/12/12 31/5/64
f  10/13/12 33/8/65 34/11/66
f  10/12/12 34/11/66 31/5/64
f  37/15/67 36/14/68 35/16/69
f  35/16/69 38/17/70 37/15/67
f  37/19/71 40/18/72 39/20/73
f  39/20/73 36/21/74 37/19/71
f  42/20/75 41/18/76 38/19/77
f  38/19/77 35/21/78 42/20/75
f  43/23/79 35/22/69 36/24/68
f  36/24/68 44/25/80 43/23/79
f  43/19/81 45/18/82 42/20/75
f  42/20/75 35/21/78 43/19/81
f  39/20/73 46/18/83 44/19/84
f  44/19/84 36/21/74 39/20/73
f  45/27/85 43/26/79 44/28/80
f  44/28/80 46/29/86 45/27/85
f  40/31/87 41/30/88 42/32/89
f  42/32/89 39/33/90 40/31/87
f  37/30/91 38/31/92 41/33/93
f  41/33/93 40/32/94 37/30/91
f  39/33/90 42/32/89 45/30/95
f  45/30/95 46/31/96 39/33/90
f  2/2/2 30/1/60 32/3/62
f  47/3/47 24/1/47 2/2/2
f  48/1/47 47/3/47 2/2/2
f  27/6/50 24/4/49 49/5/97
f  47/7/98 49/5/97 24/4/49
f  32/10/62 33/8/61 48/9/99
f  50/11/100 48/9/99 33/8/61
f  47/7/98 48/9/99 49/5/97
f  50/11/100 49/5/97 48/9/99
f  49/5/101 10/12/12 27/6/56
f  50/11/102 33/8/65 10/13/12
f  49/5/101 50/11/102 10/12/12
f  32/3/62 48/1/99 2/2/2
f  53/14/103 52/15/104 51/16/105
f  54/17/106 51/16/105 52/15/104
f  56/18/107 52/19/108 55/20/109
f  53/21/110 55/20/109 52/19/108
f  58/18/111 57/20/112 54/19/113
f  51/21/114 54/19/113 57/20/112
f  51/22/105 59/23/115 53/24/103
f  60/25/116 53/24/103 59/23/115
f  61/18/117 59/19/118 57/20/112
f  51/21/114 57/20/112 59/19/118
f  62/18/119 55/20/109 60/19/120
f  53/21/110 60/19/120 55/20/109
f  59/26/115 61/27/121 60/28/116
f  62/29/122 60/28/116 61/27/121
f  58/30/123 56/31/124 57/32/125
f  55/33/126 57/32/125 56/31/124
f  54/31/127 52/30/128 58/33/129
f  56/32/130 58/33/129 52/30/128
f  57/32/125 55/33/126 61/30/131
f  62/31/132 61/30/131 55/33/126
# object head
g head
v 0.00000 0.12311 1.65940
v 1.65730 -0.16658 2.08881
v 1.32717 -1.05867 1.50286
v 0.00000 -1.32597 1.06262
v 1.46836 -0.99282 1.33265
v 1.80022 -0.00514 1.98069
v 0.00000 -1.28858 0.88655
v 1.33101 0.50388 2.60276
v 1.18808 0.35042 2.69859
v 0.00000 0.76033 2.88591
v 0.00000 0.94086 2.81157
v 0.00000 0.25714 1.49543
v 0.07127 -1.10085 3.00770
v 0.00000 -1.09176 3.04938
v 0.11383 0.60530 2.43089
v 0.00000 0.64471 2.51643
v 0.00000 -1.13690 2.94068
v 0.00000 0.55517 2.34025
v 0.16673 -1.35075 3.16524
v 0.22578 -1.11258 3.03770
v 0.27257 -1.34676 2.80793
v 0.19035 -1.49678 3.00183
v 0.00000 -1.31592 3.23620
v 0.00000 -0.97472 3.06133
v 0.00000 -1.31008 2.69848
v 0.00000 -1.53992 2.98516
v 0.07397 -1.28735 2.86107
v 0.90824 -0.42592 1.62665
v 0.00000 -1.22753 2.87051
v 1.00204 -0.53674 1.58411
v 0.99670 -0.36993 1.69894
v 0.07397 -1.18359 2.92220
v 0.13237 -1.24962 2.90802
v 1.08568 -0.45959 1.68382
v 0.00000 0.59352 1.21302
v 0.00000 0.26227 0.60775
v 0.24960 0.56083 1.19362
v 0.31743 0.28789 0.60885
v 0.00000 0.31147 1.80662
v 0.24960 0.32270 1.67545
v 0.00000 -0.37960 0.61033
v 0.32562 -0.27343 0.61328
v -1.32717 -1.05867 1.50286
v -1.65730 -0.16658 2.08881
v -1.46836 -0.99282 1.33265
v -1.80022 -0.00514 1.98069
v -1.33101 0.50388 2.60276
v -1.18808 0.35042 2.69859
v -0.07127 -1.10085 3.00770
v -0.11383 0.60530 2.43089
v -0.16673 -1.35075 3.16524
v -0.27257 -1.34676 2.80793
v -0.22578 -1.11258 3.03770
v -0.19035 -1.49678 3.00183
v -0.07397 -1.28735 2.86107
v -0.90824 -0.42592 1.62665
v -1.00204 -0.53674 1.58411
v -0.07397 -1.18359 2.92220
v -0.99670 -0.36993 1.69894
v -0.13237 -1.24962 2.90802
v -1.08568 -0.45959 1.68382
v -0.24960 0.56083 1.19362
v -0.31743 0.28789 0.60885
v -0.24960 0.32270 1.67545
v -0.32562 -0.27343 0.61328
# 65 verticies
vt 0.17242 0.05914
vt 0.32210 0.05913
vt 0.32104 -0.14088
vt 0.01491 0.52248
vt 0.10590 0.52308
vt 0.10565 0.50330
vt 0.01309 0.50344
vt 0.15942 -0.12911
vt 0.00974 -0.12911
vt 0.15836 -0.32913
vt 0.22946 0.88975
vt 0.57789 0.86498
vt 0.57810 0.88941
vt 0.22916 0.86460
vt 0.40398 0.03445
vt 0.40844 0.04734
vt 0.40037 0.04757
vt -0.54055 0.12914
vt -0.48691 0.12914
vt -0.48691 0.05092
vt -0.54042 0.05092
vt 0.06568 0.72696
vt 0.01204 0.76928
vt 0.01204 0.72696
vt 0.06556 0.76928
vt 0.23703 0.00311
vt 0.15560 0.00311
vt 0.18352 0.03474
vt 0.23703 0.04543
vt 0.18551 0.07575
vt 0.18520 0.05060
vt 0.08686 0.77709
vt 0.20983 0.56117
vt 0.20983 0.77709
vt 0.08015 0.56117
vt 0.11117 0.77878
vt 0.02708 0.62520
vt 0.02708 0.77878
vt 0.11117 0.62520
vt 0.28085 0.77709
vt 0.19390 0.55583
vt 0.19390 0.77709
vt 0.28126 0.55583
vt 0.02775 0.22316
vt -0.13852 0.36541
vt 0.02775 0.16622
vt 0.27770 0.77709
vt 0.28441 0.48460
vt 0.08351 0.77709
vt 0.08351 0.56117
vt -0.06845 0.16622
vt -0.13852 0.16622
# 52 texture verticies
vn -0.26435 -0.41235 0.87183
vn -0.29524 -0.64702 0.70299
vn 0.00000 -0.67500 0.73782
vn 0.00000 -0.38081 0.92466
vn 0.73888 -0.53903 0.40437
vn 0.80553 -0.48964 0.33374
vn 0.25698 -0.94534 -0.20075
vn 0.24338 -0.95532 -0.16772
vn 0.25667 0.32857 0.90893
vn 0.26073 0.36760 0.89269
vn -0.25405 -0.84264 0.47478
vn 0.00000 -0.88739 0.46103
vn 0.71197 -0.17483 0.68009
vn 0.68582 -0.20215 0.69913
vn 0.28391 0.65763 -0.69780
vn 0.25417 0.41251 -0.87478
vn 0.00000 0.67020 -0.74218
vn 0.00000 0.36651 -0.93041
vn 0.23808 0.84719 -0.47495
vn 0.00000 0.88740 -0.46100
vn 0.81896 0.54165 -0.18952
vn 0.00000 0.30625 0.95195
vn 0.99348 0.01883 0.11240
vn 0.00000 0.84841 0.52933
vn 0.00000 0.20101 -0.97959
vn 0.00000 -0.33442 -0.94243
vn 0.00000 -0.92354 0.38351
vn 0.10585 -0.91835 0.38136
vn 0.95252 -0.11770 0.28080
vn 0.95555 -0.08583 0.28206
vn 0.95265 -0.11650 0.28085
vn 0.94715 -0.15879 0.27875
vn 0.37175 0.40340 0.83610
vn 0.00000 0.45611 0.88993
vn 0.00000 0.41549 0.90960
vn 0.42755 0.34210 0.83676
vn 0.00000 -0.80108 -0.59856
vn 0.12183 -0.80935 -0.57456
vn 0.18243 -0.78212 -0.59583
vn -0.00000 -0.78022 -0.62551
vn 0.00000 0.73600 -0.67698
vn 0.35122 0.68844 -0.63458
vn 0.34746 0.69118 -0.63367
vn 0.00000 0.73438 -0.67874
vn 0.00000 -0.74135 0.67112
vn 0.10751 -0.73357 0.67105
vn 0.12031 -0.73806 0.66392
vn 0.00000 -0.74613 0.66580
vn 0.00000 0.43784 -0.89905
vn -0.51237 0.51601 -0.68645
vn -0.03463 -0.83632 -0.54715
vn 0.28248 -0.41186 -0.86636
vn -0.06240 0.85207 0.51969
vn 0.25143 0.96774 0.01649
vn -0.31378 -0.48199 0.81806
vn -0.31362 -0.48202 0.81811
vn 0.00000 -0.50763 0.86158
vn 0.98864 0.13646 -0.06303
vn 0.83827 -0.31969 0.44170
vn -0.34267 -0.47689 0.80942
vn 0.03889 0.88351 -0.46679
vn 0.00000 0.89711 -0.44180
vn 0.00000 0.87722 -0.48008
vn -0.07120 0.90067 -0.42864
vn 0.17493 0.88786 0.42556
vn 0.00000 0.89839 0.43920
vn 0.00000 0.90322 0.42917
vn 0.15014 0.88633 0.43804
vn 0.27033 -0.83331 0.48220
vn 0.00000 -0.86329 0.50470
vn 0.00000 -0.86590 0.50022
vn 0.29143 -0.82514 0.48395
vn 0.01157 -0.00772 -0.99990
vn 0.00000 -0.00641 -0.99998
vn 0.00616 -0.00515 -0.99997
vn 0.99715 0.06761 0.03342
vn 0.99635 0.03743 0.07670
vn 0.99716 0.05543 0.05093
vn 0.99402 0.01535 0.10813
vn 0.00000 -0.00402 -0.99999
vn 0.29524 -0.64702 0.70299
vn 0.26435 -0.41235 0.87183
vn -0.73888 -0.53903 0.40437
vn -0.80553 -0.48964 0.33374
vn -0.25698 -0.94534 -0.20075
vn -0.24338 -0.95532 -0.16772
vn -0.25667 0.32857 0.90893
vn -0.26073 0.36760 0.89269
vn 0.25405 -0.84264 0.47478
vn -0.71197 -0.17483 0.68009
vn -0.68582 -0.20215 0.69913
vn -0.25417 0.41251 -0.87478
vn -0.28391 0.65763 -0.69780
vn -0.23808 0.84719 -0.47495
vn -0.81896 0.54165 -0.18952
vn -0.99348 0.01883 0.11240
vn -0.10585 -0.91835 0.38136
vn -0.95555 -0.08583 0.28206
vn -0.95252 -0.11770 0.28080
vn -0.95265 -0.11650 0.28085
vn -0.94715 -0.15879 0.27875
vn -0.37175 0.40340 0.83610
vn -0.42755 0.34210 0.83676
vn -0.12183 -0.80935 -0.57456
vn -0.18243 -0.78212 -0.59583
vn -0.35122 0.68844 -0.63458
vn -0.34746 0.69118 -0.63367
vn -0.10751 -0.73357 0.67105
vn -0.12031 -0.73806 0.66392
vn 0.51237 0.51601 -0.68645
vn 0.03463 -0.83632 -0.54715
vn -0.28248 -0.41186 -0.86636
vn -0.25143 0.96774 0.01649
vn 0.06240 0.85207 0.51969
vn 0.31362 -0.48202 0.81811
vn 0.31378 -0.48199 0.81806
vn -0.98864 0.13646 -0.06303
vn -0.83827 -0.31969 0.44170
vn 0.34267 -0.47689 0.80942
vn -0.03889 0.88351 -0.46679
vn 0.07120 0.90067 -0.42864
vn -0.17493 0.88786 0.42556
vn -0.15014 0.88633 0.43804
vn -0.27033 -0.83331 0.48220
vn -0.29143 -0.82514 0.48395
vn -0.01157 -0.00772 -0.99990
vn -0.00616 -0.00515 -0.99997
vn -0.99635 0.03743 0.07670
vn -0.99715 0.06761 0.03342
vn -0.99716 0.05543 0.05093
vn -0.99402 0.01535 0.10813
# 131 normals
f  65/34/133 64/35/134 63/36/135
f  63/36/135 66/35/136 65/34/133
f  64/37/137 65/38/137 67/39/137
f  67/39/138 68/40/138 64/37/138
f  65/38/139 66/37/139 69/40/139
f  69/40/140 67/39/140 65/38/140
f  72/37/141 71/38/141 70/39/141
f  70/39/142 73/40/142 72/37/142
f  63/36/135 64/35/134 71/34/143
f  71/34/143 72/35/144 63/36/135
f  64/37/145 68/40/145 70/39/145
f  70/39/146 71/38/146 64/37/146
f  68/41/147 67/42/148 74/43/149
f  69/41/150 74/43/149 67/42/148
f  68/41/147 74/43/149 70/42/151
f  73/41/152 70/42/151 74/43/149
f  77/44/153 76/45/154 75/46/155
f  77/44/153 78/47/156 76/45/154
f  80/47/157 75/46/155 79/45/158
f  80/47/157 77/44/153 75/46/155
f  79/48/159 75/49/160 76/50/159
f  83/51/161 82/52/162 81/53/163
f  83/51/161 81/53/163 84/54/164
f  82/52/165 86/51/166 85/54/167
f  82/52/165 85/54/167 81/53/168
f  87/52/169 83/51/170 84/54/171
f  87/52/169 84/54/171 88/53/172
f  87/55/173 82/56/174 83/57/175
f  86/58/176 82/56/174 87/55/173
f  88/59/177 84/60/178 81/61/179
f  85/62/180 88/59/177 81/61/179
f  78/47/156 77/44/153 80/63/157
f  91/46/181 90/44/182 89/45/183
f  89/45/183 90/44/182 92/47/184
f  94/45/185 93/47/186 91/46/181
f  91/46/181 93/47/186 90/44/182
f  89/50/187 94/48/188 91/49/189
f  89/45/183 96/44/190 95/46/191
f  92/47/184 96/44/190 89/45/183
f  95/46/191 93/47/186 94/45/185
f  96/44/190 93/47/186 95/46/191
f  95/49/192 94/48/188 89/50/187
f  90/64/182 93/63/186 92/47/184
f  96/44/190 92/47/184 93/63/186
f  99/65/193 98/66/194 97/67/195
f  100/68/196 98/66/194 99/65/193
f  102/69/197 97/70/198 101/71/199
f  99/72/200 97/70/198 102/69/197
f  104/73/201 101/74/202 103/75/203
f  102/76/204 101/74/202 104/73/201
f  104/77/205 103/78/206 100/79/207
f  102/80/208 104/81/209 99/82/210
f  100/83/211 99/82/210 104/81/209
f  100/84/207 103/78/206 98/85/212
f  106/35/213 105/34/214 63/36/135
f  66/35/136 63/36/135 105/34/214
f  105/38/215 106/37/215 107/39/215
f  108/40/216 107/39/216 106/37/216
f  66/37/217 105/38/217 69/40/217
f  107/39/218 69/40/218 105/38/218
f  110/38/219 72/37/219 109/39/219
f  73/40/220 109/39/220 72/37/220
f  106/35/213 63/36/135 110/34/221
f  72/35/144 110/34/221 63/36/135
f  108/40/222 106/37/222 109/39/222
f  110/38/223 109/39/223 106/37/223
f  107/42/224 108/41/225 74/43/149
f  74/43/149 69/41/150 107/42/224
f  74/43/149 108/41/225 109/42/226
f  109/42/226 73/41/152 74/43/149
f  76/45/154 112/44/227 111/46/228
f  78/47/156 112/44/227 76/45/154
f  111/46/228 80/47/157 79/45/158
f  112/44/227 80/47/157 111/46/228
f  111/49/229 79/48/159 76/50/159
f  115/52/230 114/51/231 113/53/232
f  113/53/232 114/51/231 116/54/233
f  86/51/166 115/52/234 85/54/167
f  85/54/167 115/52/234 113/53/235
f  114/51/236 87/52/169 116/54/237
f  116/54/237 87/52/169 88/53/172
f  115/56/238 87/55/173 114/57/239
f  115/56/238 86/58/176 87/55/173
f  116/60/240 88/59/177 113/61/241
f  88/59/177 85/62/180 113/61/241
f  112/44/227 78/47/156 80/63/157
f  118/44/242 91/46/181 117/45/243
f  118/44/242 117/45/243 119/47/244
f  121/47/245 120/45/246 91/46/181
f  121/47/245 91/46/181 118/44/242
f  120/48/247 117/50/248 91/49/189
f  123/44/249 117/45/243 122/46/250
f  123/44/249 119/47/244 117/45/243
f  121/47/245 122/46/250 120/45/246
f  121/47/245 123/44/249 122/46/250
f  120/48/247 122/49/251 117/50/248
f  121/63/245 118/64/242 119/47/244
f  119/47/244 123/44/249 121/63/245
f  98/66/194 124/65/252 97/67/195
f  98/66/194 125/68/253 124/65/252
f  97/70/198 126/69/254 101/71/199
f  97/70/198 124/72/255 126/69/254
f  101/74/202 127/73/256 103/75/203
f  101/74/202 126/76/257 127/73/256
f  103/78/206 127/77/258 125/79/259
f  127/81/260 126/80/261 124/82/262
f  124/82/262 125/83/263 127/81/260
f  103/78/206 125/84/259 98/85/212
