# 
# Wavefront OBJ file
# Converted by the DEEP Exploration Deep Exploration 6.0 6.0.2.6082 Release
# Right Hemisphere, LTD
# http://www.righthemisphere.com/
# 
mtllib comm-tower-06.mtl
# object body
g body
v -1.02224 0.48480 -0.12706
v -0.60249 0.96443 -0.12706
v -0.92558 0.42846 0.26972
v -0.50930 0.89418 0.26972
v -1.06413 -0.26278 -0.12706
v -0.96258 -0.23153 0.26972
v -0.64748 -0.92486 -0.12706
v -0.57244 -0.85477 0.26972
v 0.00000 -1.12400 -0.12706
v 0.00000 -1.02408 0.26972
v 0.00000 1.12400 -0.12706
v 0.00000 1.04230 0.26972
v 0.00000 -0.00983 0.52332
v 1.02224 0.48480 -0.12706
v 0.92558 0.42846 0.26972
v 0.60249 0.96443 -0.12706
v 0.50930 0.89418 0.26972
v 1.06413 -0.26278 -0.12706
v 0.96258 -0.23153 0.26972
v 0.64748 -0.92486 -0.12706
v 0.57244 -0.85477 0.26972
# 21 verticies
vt 0.25299 0.61017
vt 0.08594 0.66647
vt 0.27246 0.66647
vt 0.09020 0.61017
vt 0.94974 0.29125
vt 0.93261 0.14843
vt 0.62471 0.15023
vt 0.81902 0.03406
vt 0.60008 0.28506
vt 0.68964 0.04174
vt -0.00750 1.72400
vt -0.19086 1.72390
vt -0.08715 1.47994
# 13 texture verticies
vn -0.72172 0.63648 0.27206
vn -0.71912 0.63776 0.27591
vn -0.72525 0.63469 0.26678
vn -0.71548 0.63952 0.28126
vn -0.96836 0.05428 0.24358
vn -0.96836 0.05428 0.24359
vn -0.96836 0.05427 0.24358
vn -0.96836 0.05428 0.24359
vn -0.82038 -0.51544 0.24758
vn -0.82050 -0.51451 0.24912
vn -0.82028 -0.51621 0.24631
vn -0.82060 -0.51368 0.25049
vn 0.00000 -0.97122 0.23817
vn -0.28033 -0.93339 0.22404
vn 0.00000 -0.96972 0.24421
vn -0.27682 -0.93594 0.21768
vn -0.25838 0.94204 0.21400
vn 0.00000 0.97667 0.21475
vn -0.24945 0.94181 0.22533
vn 0.00000 0.97945 0.20169
vn 0.00000 0.00000 -1.00000
vn 0.00000 0.00000 -1.00000
vn 0.00000 0.23432 0.97216
vn -0.12531 0.20189 0.97136
vn 0.00000 -0.00516 0.99999
vn 0.00000 -0.24256 0.97014
vn -0.14425 -0.19353 0.97043
vn -0.24112 -0.06104 0.96857
vn -0.22152 0.09379 0.97063
vn 0.71912 0.63776 0.27591
vn 0.72172 0.63648 0.27206
vn 0.72525 0.63469 0.26678
vn 0.71548 0.63952 0.28126
vn 0.96836 0.05428 0.24359
vn 0.96836 0.05428 0.24358
vn 0.96836 0.05427 0.24358
vn 0.96836 0.05428 0.24359
vn 0.82050 -0.51451 0.24912
vn 0.82038 -0.51544 0.24758
vn 0.82028 -0.51621 0.24631
vn 0.82060 -0.51368 0.25049
vn 0.28033 -0.93339 0.22404
vn 0.27682 -0.93594 0.21768
vn 0.25838 0.94204 0.21400
vn 0.24945 0.94181 0.22533
vn 0.12531 0.20189 0.97136
vn 0.14425 -0.19353 0.97043
vn 0.24112 -0.06104 0.96857
vn 0.22152 0.09379 0.97063
# 49 normals
usemtl turret_01
f  3/1/1 2/2/2 1/3/3
f  4/4/4 2/2/2 3/1/1
f  6/4/5 1/3/6 5/2/7
f  3/1/8 1/3/6 6/4/5
f  8/1/9 5/2/10 7/3/11
f  6/4/12 5/2/10 8/1/9
f  10/4/13 7/3/14 9/2/15
f  8/1/16 7/3/14 10/4/13
f  4/4/17 11/3/18 2/2/19
f  12/1/20 11/3/18 4/4/17
f  9/5/21 7/6/21 2/7/22
f  7/6/21 5/8/21 2/7/22
f  11/9/21 9/5/21 2/7/22
f  2/7/22 5/8/21 1/10/22
f  12/11/23 4/12/24 13/13/25
f  10/12/26 13/13/25 8/11/27
f  13/13/25 6/12/28 8/11/27
f  3/11/29 6/12/28 13/13/25
f  13/13/25 4/12/24 3/11/29
f  16/2/30 15/1/31 14/3/32
f  16/2/30 17/4/33 15/1/31
f  14/3/34 19/4/35 18/2/36
f  14/3/34 15/1/37 19/4/35
f  18/2/38 21/1/39 20/3/40
f  18/2/38 19/4/41 21/1/39
f  20/3/42 10/4/13 9/2/15
f  20/3/42 21/1/43 10/4/13
f  11/3/18 17/4/44 16/2/45
f  11/3/18 12/1/20 17/4/44
f  20/6/22 9/5/21 16/7/21
f  18/8/22 20/6/22 16/7/21
f  9/5/21 11/9/21 16/7/21
f  18/8/22 16/7/21 14/10/21
f  17/12/46 12/11/23 13/13/25
f  13/13/25 10/12/26 21/11/47
f  19/12/48 13/13/25 21/11/47
f  19/12/48 15/11/49 13/13/25
f  17/12/46 13/13/25 15/11/49
# object head
g head
v -0.26740 0.34370 0.79930
v 0.00000 0.78784 0.32075
v 0.00000 0.34370 0.79930
v -0.37065 0.66736 0.32075
v -0.26740 -0.30604 0.79930
v 0.00000 -0.35022 0.79930
v -0.42045 -0.77872 0.30567
v 0.00000 -0.82290 0.30567
v -0.65949 -0.35984 0.30298
v -0.65379 0.36301 0.29990
v -0.14647 -0.10317 0.66081
v -1.33981 -0.11431 2.09144
v -1.28202 -0.07194 2.13349
v -0.23403 -0.16511 0.59706
v -0.24445 0.08266 0.61115
v -1.28202 0.00170 2.13350
v -1.33982 0.03969 2.09145
v -0.15640 0.02072 0.67524
v -1.35458 -0.03332 2.11140
v -0.32059 -0.10317 0.53197
v -1.39692 -0.07194 2.04847
v -1.39693 0.00170 2.04847
v -0.33149 0.02072 0.54569
v -0.80703 0.27932 0.83188
v -0.54892 0.41236 1.02287
v -0.66690 -0.03734 1.18230
v -0.91397 -0.04187 0.75274
v -0.80703 -0.36305 0.83188
v -0.54892 -0.49609 1.02287
v -0.43532 -0.04447 0.87042
v -0.29081 0.27932 1.21385
v -0.29081 -0.36305 1.21385
v -0.18387 -0.04187 1.29299
v -1.00672 0.22514 1.19290
v -0.79220 0.33571 1.35163
v -0.89026 -0.03805 1.48415
v -1.09561 -0.04181 1.12713
v -1.00672 -0.30876 1.19290
v -0.79220 -0.41933 1.35163
v -0.70431 -0.04398 1.22774
v -0.57768 0.22514 1.51038
v -0.57768 -0.30876 1.51037
v -0.48879 -0.04181 1.57615
v -1.17807 0.18010 1.50022
v -0.99977 0.27200 1.63215
v -1.11479 -0.03864 1.77860
v -1.25194 -0.04177 1.44555
v -1.17807 -0.26364 1.50022
v -0.99977 -0.35554 1.63215
v -0.92406 -0.04357 1.52090
v -0.82147 0.18010 1.76408
v -0.82147 -0.26364 1.76408
v -0.74760 -0.04177 1.81875
v -1.53140 -0.02512 2.37948
v -1.40823 0.19803 2.19340
v -1.22215 -0.02512 2.31656
v -1.59431 -0.02512 2.07023
v -1.40823 -0.24827 2.19340
v -1.28507 -0.02512 2.00731
v 0.26740 0.34370 0.79930
v 0.37065 0.66736 0.32075
v 0.26740 -0.30604 0.79930
v 0.42045 -0.77872 0.30567
v 0.65949 -0.35984 0.30298
v 0.65379 0.36301 0.29990
v 0.14647 -0.10317 0.66081
v 1.28202 -0.07194 2.13349
v 1.33981 -0.11431 2.09144
v 0.23403 -0.16511 0.59706
v 0.24445 0.08266 0.61115
v 1.33982 0.03969 2.09145
v 1.28202 0.00170 2.13350
v 0.15640 0.02072 0.67524
v 1.35458 -0.03332 2.11140
v 0.32059 -0.10317 0.53197
v 1.39692 -0.07194 2.04847
v 1.39693 0.00170 2.04847
v 0.33149 0.02072 0.54569
v 0.80703 0.27932 0.83188
v 0.66690 -0.03734 1.18230
v 0.54892 0.41236 1.02287
v 0.91397 -0.04187 0.75274
v 0.80703 -0.36305 0.83188
v 0.54892 -0.49609 1.02287
v 0.43532 -0.04447 0.87042
v 0.29081 0.27932 1.21385
v 0.29081 -0.36305 1.21385
v 0.18387 -0.04187 1.29299
v 1.00672 0.22514 1.19290
v 0.89026 -0.03805 1.48415
v 0.79220 0.33571 1.35163
v 1.09561 -0.04181 1.12713
v 1.00672 -0.30876 1.19290
v 0.79220 -0.41933 1.35163
v 0.70431 -0.04398 1.22774
v 0.57768 0.22514 1.51038
v 0.57768 -0.30876 1.51037
v 0.48879 -0.04181 1.57615
v 1.17807 0.18010 1.50022
v 1.11479 -0.03864 1.77860
v 0.99977 0.27200 1.63215
v 1.25194 -0.04177 1.44555
v 1.17807 -0.26364 1.50022
v 0.99977 -0.35554 1.63215
v 0.92406 -0.04357 1.52090
v 0.82147 0.18010 1.76408
v 0.82147 -0.26364 1.76408
v 0.74760 -0.04177 1.81875
v 1.53140 -0.02512 2.37948
v 1.22215 -0.02512 2.31656
v 1.40823 0.19803 2.19340
v 1.59431 -0.02512 2.07023
v 1.40823 -0.24827 2.19340
v 1.28507 -0.02512 2.00731
# 114 verticies
vt 0.47445 0.65957
vt 0.47445 0.52556
vt 0.57071 0.65957
vt 0.57030 0.52556
vt -0.22002 1.42583
vt -0.06110 1.42583
vt -0.22002 1.47652
vt -0.06110 1.47652
vt -0.13852 0.16622
vt -0.13852 0.36541
vt -0.05249 0.16622
vt 0.02775 0.16622
vt 0.02775 0.22316
vt 0.02775 0.27289
vt 0.58508 0.52175
vt 0.58487 0.53211
vt 0.99310 0.52136
vt 0.99279 0.53245
vt 0.40037 0.04757
vt 0.40844 0.04734
vt 0.40398 0.03445
vt 0.04844 0.45150
vt 0.08326 0.53031
vt 0.01782 0.53031
vt -0.26900 0.72974
vt -0.20559 0.72974
vt -0.26900 0.67590
vt -0.33242 0.72974
vt -0.26900 0.79316
# 29 texture verticies
vn 0.00000 0.73297 0.68026
vn 0.00000 0.78243 0.62273
vn -0.08418 0.75339 0.65217
vn -0.25207 0.77548 0.57886
vn 0.00000 0.00000 1.00000
vn 0.00000 0.00000 1.00000
vn 0.00000 0.00000 1.00000
vn 0.00000 -0.72226 0.69162
vn 0.00000 -0.71029 0.70391
vn -0.08561 -0.71515 0.69371
vn -0.11553 -0.69929 0.70544
vn 0.00000 0.00936 -0.99996
vn 0.00000 0.00184 -1.00000
vn 0.01676 0.01428 -0.99976
vn 0.03916 0.01672 -0.99909
vn 0.00078 -0.00471 -0.99999
vn -0.64312 0.56273 0.51935
vn -0.75935 0.25028 0.60062
vn -0.77516 0.17662 0.60658
vn -0.77466 -0.12014 0.62086
vn -0.76102 -0.18630 0.62141
vn -0.69943 -0.39532 0.59541
vn -0.00072 -0.00684 -0.99998
vn 0.68297 -0.49466 0.53747
vn -0.01694 -0.99959 0.02290
vn 0.92548 -0.35341 -0.13630
vn 0.37683 -0.78095 -0.49812
vn -0.01388 0.99973 0.01875
vn 0.67414 0.51600 0.52847
vn 0.34645 0.81862 -0.45808
vn 0.90169 0.43045 -0.04098
vn -0.56870 -0.29312 0.76855
vn -0.35719 -0.14320 0.92299
vn -0.59477 0.01386 0.80378
vn -0.35296 0.14849 0.92378
vn -0.56318 0.32183 0.76109
vn -0.71366 -0.49466 -0.49598
vn -0.16642 -0.37058 -0.91377
vn -0.70248 0.51599 -0.49018
vn -0.25078 0.44321 -0.86062
vn -0.77822 -0.14320 0.61144
vn -0.78022 0.14849 0.60762
vn -0.59482 0.00399 0.80385
vn -0.54424 0.40355 0.73550
vn -0.77361 0.28434 0.56629
vn -0.77161 -0.28166 0.57034
vn -0.86684 -0.00067 0.49859
vn -0.54598 -0.39685 0.73784
vn 0.33066 0.27201 -0.90370
vn 0.59526 -0.00224 -0.80353
vn 0.23875 0.00037 -0.97108
vn 0.32818 -0.27351 -0.90415
vn 0.54815 -0.38798 -0.74094
vn 0.54909 0.38421 -0.74221
vn -0.31536 0.28434 0.90537
vn -0.22336 -0.00067 0.97474
vn -0.31982 -0.28166 0.90464
vn 0.85936 0.00038 -0.51138
vn 0.76767 0.27256 -0.57999
vn 0.76883 -0.27407 -0.57775
vn -0.59482 0.00399 0.80385
vn -0.54424 0.40355 0.73549
vn -0.77361 0.28434 0.56629
vn -0.77161 -0.28166 0.57034
vn -0.86684 -0.00067 0.49859
vn 0.33958 0.26475 -0.90255
vn 0.59236 -0.00218 -0.80567
vn 0.24902 0.00037 -0.96850
vn 0.33715 -0.26625 -0.90302
vn 0.55181 -0.37507 -0.74486
vn 0.55269 0.37138 -0.74606
vn -0.31536 0.28434 0.90537
vn -0.22336 -0.00067 0.97474
vn -0.31982 -0.28166 0.90464
vn 0.85044 0.00036 -0.52607
vn 0.76304 0.26166 -0.59102
vn 0.76418 -0.26312 -0.58889
vn -0.60130 0.00472 0.79901
vn -0.50910 0.51398 0.69039
vn -0.80291 0.36627 0.47030
vn -0.80111 -0.36325 0.47567
vn -0.92466 -0.00084 0.38079
vn -0.51178 -0.50647 0.69395
vn 0.32124 0.28119 -0.90429
vn 0.58942 -0.00227 -0.80782
vn 0.22396 0.00039 -0.97460
vn 0.31864 -0.28276 -0.90472
vn 0.54716 -0.39580 -0.73753
vn 0.54812 0.39198 -0.73886
vn -0.22237 0.35837 0.90671
vn -0.10868 -0.00079 0.99408
vn -0.22781 -0.35549 0.90649
vn 0.86035 0.00037 -0.50971
vn 0.76928 0.27447 -0.57696
vn 0.77042 -0.27595 -0.57472
vn 0.83389 0.00000 0.55194
vn 0.00000 1.00000 0.00000
vn -0.55194 0.00000 0.83389
vn -0.83389 -0.00000 -0.55194
vn -0.00000 -1.00000 -0.00000
vn 0.55194 0.00000 -0.83389
vn 0.08418 0.75339 0.65217
vn 0.25207 0.77548 0.57886
vn 0.08561 -0.71515 0.69371
vn 0.11553 -0.69929 0.70544
vn -0.01676 0.01428 -0.99976
vn -0.03916 0.01672 -0.99909
vn -0.00078 -0.00471 -0.99999
vn 0.75935 0.25028 0.60062
vn 0.64312 0.56273 0.51935
vn 0.77516 0.17662 0.60658
vn 0.77466 -0.12014 0.62086
vn 0.76102 -0.18630 0.62141
vn 0.69943 -0.39532 0.59541
vn 0.00072 -0.00684 -0.99998
vn 0.01694 -0.99959 0.02290
vn -0.68297 -0.49466 0.53747
vn -0.92763 -0.35984 -0.10013
vn -0.35366 -0.80404 -0.47795
vn -0.67414 0.51600 0.52847
vn 0.01388 0.99973 0.01875
vn -0.35503 0.80234 -0.47980
vn -0.89661 0.44096 -0.04051
vn 0.35719 -0.14320 0.92299
vn 0.56870 -0.29312 0.76855
vn 0.59477 0.01386 0.80378
vn 0.56318 0.32183 0.76109
vn 0.35296 0.14849 0.92378
vn 0.71366 -0.49466 -0.49599
vn 0.17546 -0.35984 -0.91637
vn 0.70248 0.51599 -0.49018
vn 0.22341 0.44096 -0.86928
vn 0.77823 -0.14321 0.61144
vn 0.78022 0.14848 0.60762
vn 0.54424 0.40355 0.73550
vn 0.59482 0.00399 0.80385
vn 0.77361 0.28434 0.56629
vn 0.77161 -0.28166 0.57034
vn 0.86684 -0.00067 0.49859
vn 0.54598 -0.39685 0.73784
vn -0.59526 -0.00224 -0.80353
vn -0.33066 0.27201 -0.90370
vn -0.23875 0.00037 -0.97108
vn -0.32818 -0.27351 -0.90415
vn -0.54815 -0.38798 -0.74094
vn -0.54909 0.38421 -0.74221
vn 0.31536 0.28434 0.90537
vn 0.22336 -0.00067 0.97474
vn 0.31982 -0.28166 0.90464
vn -0.85936 0.00038 -0.51138
vn -0.76767 0.27256 -0.57999
vn -0.76883 -0.27407 -0.57775
vn 0.54424 0.40355 0.73549
vn 0.59482 0.00399 0.80385
vn 0.77361 0.28434 0.56629
vn 0.77161 -0.28166 0.57034
vn 0.86684 -0.00067 0.49859
vn -0.59236 -0.00218 -0.80567
vn -0.33958 0.26475 -0.90255
vn -0.24902 0.00037 -0.96850
vn -0.33715 -0.26625 -0.90302
vn -0.55181 -0.37507 -0.74486
vn -0.55269 0.37139 -0.74606
vn 0.31536 0.28434 0.90537
vn 0.22336 -0.00067 0.97474
vn 0.31982 -0.28166 0.90464
vn -0.85044 0.00036 -0.52607
vn -0.76304 0.26166 -0.59102
vn -0.76418 -0.26312 -0.58889
vn 0.50910 0.51398 0.69039
vn 0.60130 0.00472 0.79901
vn 0.80291 0.36627 0.47030
vn 0.80111 -0.36325 0.47567
vn 0.92466 -0.00084 0.38079
vn 0.51178 -0.50647 0.69395
vn -0.58942 -0.00227 -0.80782
vn -0.32124 0.28119 -0.90429
vn -0.22396 0.00039 -0.97460
vn -0.31864 -0.28276 -0.90472
vn -0.54716 -0.39580 -0.73753
vn -0.54812 0.39198 -0.73886
vn 0.22237 0.35837 0.90671
vn 0.10868 -0.00079 0.99408
vn 0.22781 -0.35549 0.90649
vn -0.86035 0.00037 -0.50971
vn -0.76928 0.27447 -0.57696
vn -0.77042 -0.27595 -0.57472
vn 0.00000 1.00000 0.00000
vn -0.83389 0.00000 0.55194
vn 0.55194 0.00000 0.83389
vn 0.83389 0.00000 -0.55194
vn 0.00000 -1.00000 0.00000
vn -0.55194 0.00000 -0.83389
# 193 normals
f  24/14/50 23/15/51 22/16/52
f  22/16/52 23/15/51 25/17/53
f  27/18/54 24/19/54 26/20/55
f  26/20/55 24/19/54 22/21/56
f  29/15/57 27/14/58 28/17/59
f  28/17/59 27/14/58 26/16/60
f  23/22/61 29/23/62 25/24/63
f  31/25/64 29/23/62 30/26/65
f  25/15/66 31/17/67 22/16/68
f  22/14/68 31/15/67 26/16/69
f  30/17/70 26/16/69 31/15/67
f  28/17/71 26/16/69 30/15/70
f  30/26/65 29/23/62 28/27/72
f  25/24/63 29/23/62 31/25/64
f  34/28/73 33/29/74 32/30/75
f  33/29/74 35/31/76 32/30/75
f  38/28/77 37/29/78 36/30/79
f  37/29/78 39/31/80 36/30/79
f  37/29/78 34/28/73 39/31/80
f  34/28/73 32/30/75 39/31/80
f  33/32/81 34/33/82 40/34/83
f  37/32/84 38/33/85 40/34/83
f  34/33/82 37/32/84 40/34/83
f  33/29/74 42/28/86 41/30/87
f  35/31/76 33/29/74 41/30/87
f  43/29/88 38/28/77 36/30/79
f  44/31/89 43/29/88 36/30/79
f  42/28/86 43/29/88 44/31/89
f  41/30/87 42/28/86 44/31/89
f  42/33/90 33/32/81 40/34/83
f  38/33/85 43/32/91 40/34/83
f  43/32/91 42/33/90 40/34/83
f  47/35/92 46/36/93 45/37/94
f  49/37/95 47/35/92 48/36/96
f  48/36/96 47/35/92 45/37/94
f  50/36/97 47/35/92 49/37/95
f  45/37/98 51/35/99 48/36/100
f  48/36/100 51/35/99 49/37/101
f  49/37/101 51/35/99 50/36/102
f  46/36/103 51/35/99 45/37/98
f  52/37/104 46/36/93 47/35/92
f  54/36/105 47/35/92 53/37/106
f  52/37/104 47/35/92 54/36/105
f  53/37/106 47/35/92 50/36/97
f  54/36/107 51/35/99 52/37/108
f  53/37/109 51/35/99 54/36/107
f  50/36/102 51/35/99 53/37/109
f  52/37/108 51/35/99 46/36/103
f  57/35/110 56/36/111 55/37/112
f  59/37/113 57/35/110 58/36/114
f  58/36/114 57/35/110 55/37/112
f  60/36/97 57/35/110 59/37/113
f  55/37/115 61/35/116 58/36/117
f  58/36/117 61/35/116 59/37/118
f  59/37/118 61/35/116 60/36/119
f  56/36/120 61/35/116 55/37/115
f  62/37/121 56/36/111 57/35/110
f  64/36/122 57/35/110 63/37/123
f  62/37/121 57/35/110 64/36/122
f  63/37/123 57/35/110 60/36/97
f  64/36/124 61/35/116 62/37/125
f  63/37/126 61/35/116 64/36/124
f  60/36/119 61/35/116 63/37/126
f  62/37/125 61/35/116 56/36/120
f  67/35/127 66/36/128 65/37/129
f  69/37/130 67/35/127 68/36/131
f  68/36/131 67/35/127 65/37/129
f  70/36/132 67/35/127 69/37/130
f  65/37/133 71/35/134 68/36/135
f  68/36/135 71/35/134 69/37/136
f  69/37/136 71/35/134 70/36/137
f  66/36/138 71/35/134 65/37/133
f  72/37/139 66/36/128 67/35/127
f  74/36/140 67/35/127 73/37/141
f  72/37/139 67/35/127 74/36/140
f  73/37/141 67/35/127 70/36/132
f  74/36/142 71/35/134 72/37/143
f  73/37/144 71/35/134 74/36/142
f  70/36/137 71/35/134 73/37/144
f  72/37/143 71/35/134 66/36/138
f  77/38/145 76/39/146 75/40/147
f  76/39/146 78/38/148 75/40/147
f  78/38/148 79/41/149 75/40/147
f  79/41/149 77/38/145 75/40/147
f  76/39/146 77/38/145 80/42/150
f  78/38/148 76/39/146 80/42/150
f  79/41/149 78/38/148 80/42/150
f  77/38/145 79/41/149 80/42/150
f  23/15/51 24/14/50 81/16/151
f  23/15/51 81/16/151 82/17/152
f  24/19/54 27/18/54 83/20/54
f  24/19/54 83/20/54 81/21/56
f  27/14/58 29/15/57 84/17/153
f  27/14/58 84/17/153 83/16/154
f  29/23/62 23/22/61 82/24/155
f  29/23/62 86/25/156 85/26/157
f  86/17/158 82/15/159 81/16/160
f  86/15/158 81/14/160 83/16/161
f  83/16/161 85/17/162 86/15/158
f  83/16/161 84/17/163 85/15/162
f  29/23/62 85/26/157 84/27/164
f  29/23/62 82/24/155 86/25/156
f  89/29/165 88/28/166 87/30/167
f  90/31/168 89/29/165 87/30/167
f  93/29/169 92/28/170 91/30/171
f  94/31/172 93/29/169 91/30/171
f  88/28/166 93/29/169 94/31/172
f  87/30/167 88/28/166 94/31/172
f  88/33/173 89/32/174 95/34/175
f  92/33/176 93/32/177 95/34/175
f  93/32/177 88/33/173 95/34/175
f  97/28/178 89/29/165 96/30/179
f  89/29/165 90/31/168 96/30/179
f  92/28/170 98/29/180 91/30/171
f  98/29/180 99/31/181 91/30/171
f  98/29/180 97/28/178 99/31/181
f  97/28/178 96/30/179 99/31/181
f  89/32/174 97/33/182 95/34/175
f  98/32/183 92/33/176 95/34/175
f  97/33/182 98/32/183 95/34/175
f  102/36/184 101/35/185 100/37/186
f  101/35/185 104/37/187 103/36/188
f  101/35/185 103/36/188 100/37/186
f  101/35/185 105/36/189 104/37/187
f  106/35/190 100/37/191 103/36/192
f  106/35/190 103/36/192 104/37/193
f  106/35/190 104/37/193 105/36/194
f  106/35/190 102/36/195 100/37/191
f  102/36/184 107/37/196 101/35/185
f  101/35/185 109/36/197 108/37/198
f  101/35/185 107/37/196 109/36/197
f  101/35/185 108/37/198 105/36/189
f  106/35/190 109/36/199 107/37/200
f  106/35/190 108/37/201 109/36/199
f  106/35/190 105/36/194 108/37/201
f  106/35/190 107/37/200 102/36/195
f  112/36/202 111/35/203 110/37/204
f  111/35/203 114/37/205 113/36/206
f  111/35/203 113/36/206 110/37/204
f  111/35/203 115/36/189 114/37/205
f  116/35/207 110/37/208 113/36/209
f  116/35/207 113/36/209 114/37/210
f  116/35/207 114/37/210 115/36/211
f  116/35/207 112/36/212 110/37/208
f  112/36/202 117/37/213 111/35/203
f  111/35/203 119/36/214 118/37/215
f  111/35/203 117/37/213 119/36/214
f  111/35/203 118/37/215 115/36/189
f  116/35/207 119/36/216 117/37/217
f  116/35/207 118/37/218 119/36/216
f  116/35/207 115/36/211 118/37/218
f  116/35/207 117/37/217 112/36/212
f  122/36/219 121/35/220 120/37/221
f  121/35/220 124/37/222 123/36/223
f  121/35/220 123/36/223 120/37/221
f  121/35/220 125/36/224 124/37/222
f  126/35/225 120/37/226 123/36/227
f  126/35/225 123/36/227 124/37/228
f  126/35/225 124/37/228 125/36/229
f  126/35/225 122/36/230 120/37/226
f  122/36/219 127/37/231 121/35/220
f  121/35/220 129/36/232 128/37/233
f  121/35/220 127/37/231 129/36/232
f  121/35/220 128/37/233 125/36/224
f  126/35/225 129/36/234 127/37/235
f  126/35/225 128/37/236 129/36/234
f  126/35/225 125/36/229 128/37/236
f  126/35/225 127/37/235 122/36/230
f  132/39/237 131/38/238 130/40/239
f  133/38/240 132/39/237 130/40/239
f  134/41/241 133/38/240 130/40/239
f  131/38/238 134/41/241 130/40/239
f  131/38/238 132/39/237 135/42/242
f  132/39/237 133/38/240 135/42/242
f  133/38/240 134/41/241 135/42/242
f  134/41/241 131/38/238 135/42/242
f  36/31/79 39/31/80 35/30/76
f  32/30/75 35/30/76 39/31/80
f  44/31/89 36/31/79 41/30/87
f  35/30/76 41/30/87 36/31/79
f  99/30/181 96/30/179 87/31/167
f  90/31/168 87/31/167 96/30/179
f  91/30/171 99/30/181 94/31/172
f  87/31/167 94/31/172 99/30/181
