# 
# Wavefront OBJ file
# Converted by the DEEP Exploration Deep Exploration 6.0 6.0.2.6082 Release
# Right Hemisphere, LTD
# http://www.righthemisphere.com/
# 
mtllib comm-tower-01.mtl
# object body
g body
v 0.52491 -1.27290 -0.13098
v 0.00000 -0.00000 -0.13098
v 0.00000 -1.27290 -0.13098
v 1.27334 -0.52447 -0.13098
v 0.00000 -1.00288 0.43956
v 0.41307 -1.00288 0.43956
v 1.37340 -0.00000 -0.13098
v 1.10339 -0.00000 0.43956
v 1.00333 -0.41263 0.43956
v 0.00000 -0.49907 0.61765
v 0.20438 -0.49907 0.61764
v 0.54064 -0.00000 0.61765
v 0.49951 -0.20394 0.61765
v 0.00000 -0.00000 0.69808
v 0.60056 -0.13563 0.88607
v 0.62400 -0.90849 0.71847
v 0.23334 -0.50999 0.89794
v 0.99196 -0.53488 0.70861
v 0.55010 0.04731 0.56839
v 0.97679 -0.40722 0.38963
v 0.50223 -0.89995 0.40141
v 0.07802 -0.43488 0.57541
v 0.52491 1.27289 -0.13098
v 0.00000 1.27289 -0.13098
v 1.27334 0.52446 -0.13098
v 0.41307 1.00287 0.43956
v 0.00000 1.00288 0.43956
v 1.00333 0.41262 0.43956
v 0.20438 0.49906 0.61765
v 0.00000 0.49906 0.61765
v 0.49951 0.20393 0.61765
v 0.62400 0.90848 0.71847
v 0.60056 0.13562 0.88607
v 0.23334 0.50998 0.89794
v 0.99196 0.53487 0.70861
v 0.55010 -0.04731 0.56839
v 0.97679 0.40721 0.38963
v 0.50223 0.89994 0.40141
v 0.07802 0.43488 0.57541
v 0.00000 0.53019 1.22528
v 0.00000 0.67467 0.53804
v 0.40812 0.53019 1.22528
v 0.61797 0.70028 0.50809
v 0.00000 -0.35562 1.22528
v 0.40812 -0.29218 1.22528
v 0.00000 -0.60958 0.56189
v 0.62615 -0.50467 0.51252
v -0.52491 -1.27290 -0.13098
v -1.27334 -0.52447 -0.13098
v -0.41307 -1.00288 0.43956
v -1.37340 -0.00000 -0.13098
v -1.10339 -0.00000 0.43956
v -1.00333 -0.41263 0.43956
v -0.20438 -0.49907 0.61764
v -0.54064 -0.00000 0.61765
v -0.49951 -0.20394 0.61765
v -0.62400 -0.90849 0.71847
v -0.60056 -0.13563 0.88607
v -0.23334 -0.50998 0.89794
v -0.99196 -0.53487 0.70861
v -0.55010 0.04731 0.56839
v -0.97678 -0.40722 0.38963
v -0.50223 -0.89995 0.40141
v -0.07802 -0.43488 0.57541
v -0.52491 1.27289 -0.13098
v -1.27334 0.52446 -0.13098
v -0.41307 1.00288 0.43956
v -1.00333 0.41262 0.43956
v -0.20438 0.49906 0.61765
v -0.49951 0.20393 0.61765
v -0.60056 0.13562 0.88607
v -0.62399 0.90848 0.71847
v -0.23334 0.50998 0.89794
v -0.99196 0.53487 0.70861
v -0.55010 -0.04731 0.56839
v -0.97678 0.40722 0.38963
v -0.50223 0.89995 0.40141
v -0.07802 0.43488 0.57541
v -0.40812 0.53019 1.22528
v -0.61796 0.70028 0.50809
v -0.40812 -0.29217 1.22528
v -0.62615 -0.50467 0.51252
# 82 verticies
vt 0.19235 0.48964
vt 0.19144 0.67039
vt 0.28250 0.48848
vt 0.31054 0.16119
vt 0.18769 0.05035
vt 0.26941 0.04988
vt 0.21284 0.16103
vt -0.06320 0.05194
vt 0.00351 0.16215
vt -0.10154 0.16101
vt 0.02260 0.05124
vt 0.14724 -0.05021
vt 0.20575 -0.04966
vt 0.06469 -0.04977
vt 0.00694 -0.04946
vt 0.24953 0.61515
vt 0.35457 0.48150
vt 0.30459 0.48119
vt 0.19474 0.48145
vt 0.13856 0.48076
vt 0.10328 0.77166
vt 0.28403 0.77074
vt 0.10464 0.67930
vt 0.28519 0.68059
vt 0.10289 0.48460
vt 0.22586 0.70052
vt 0.22586 0.48460
vt 0.09618 0.70052
vt -0.05443 0.26061
vt -0.13852 0.10169
vt -0.13852 0.26061
vt -0.05443 0.10169
vt 0.27373 0.70052
vt 0.12980 0.48460
vt 0.12980 0.70052
vt 0.26702 0.48460
vt 0.02775 0.22316
vt -0.13852 0.36541
vt 0.02775 0.16622
vt 0.29373 0.48460
vt 0.09953 0.70052
vt 0.09953 0.48460
vt 0.30044 0.70052
vt -0.06845 0.16622
vt -0.13852 0.16622
# 45 texture verticies
vn 0.00000 0.00000 -1.00000
vn 0.00000 0.00000 -1.00000
vn 0.00000 0.00000 -1.00000
vn -0.00000 -0.90389 0.42778
vn 0.34060 -0.82227 0.45592
vn -0.00000 -0.90388 0.42778
vn 0.34060 -0.82227 0.45592
vn 0.89458 0.00000 0.44692
vn 0.88199 -0.46830 -0.05276
vn 0.86958 0.00000 -0.49380
vn 0.77275 -0.44469 0.45289
vn -0.00000 -0.33327 0.94283
vn 0.09540 -0.23041 0.96841
vn -0.00000 -0.24720 0.96897
vn 0.11880 -0.28681 0.95059
vn 0.21309 -0.12018 0.96961
vn 0.30486 0.00000 0.95240
vn 0.23464 0.00000 0.97208
vn 0.27436 -0.14844 0.95010
vn 0.00000 0.00000 1.00000
vn -0.28115 0.30465 0.91003
vn 0.23091 -0.19951 0.95230
vn -0.30942 0.32571 0.89341
vn 0.22830 -0.19972 0.95288
vn 0.74442 0.62291 0.24047
vn 0.99122 -0.10306 -0.08279
vn 0.40099 0.64259 -0.65290
vn 0.73211 0.16794 -0.66016
vn -0.65653 -0.34219 -0.67221
vn -0.17638 -0.74956 -0.63801
vn -0.67964 -0.70887 0.18867
vn 0.08207 -0.99461 -0.06333
vn -0.63051 0.62937 0.45427
vn -0.63114 0.62460 0.45992
vn -0.00000 -0.00000 -1.00000
vn 0.00000 0.90389 0.42777
vn 0.34060 0.82227 0.45592
vn 0.34060 0.82227 0.45592
vn 0.88199 0.46830 -0.05276
vn 0.77275 0.44469 0.45289
vn 0.00000 0.33327 0.94283
vn 0.00000 0.24719 0.96897
vn 0.09540 0.23041 0.96841
vn 0.11880 0.28681 0.95059
vn 0.21309 0.12017 0.96961
vn 0.27436 0.14844 0.95010
vn -0.28115 -0.30465 0.91003
vn -0.30942 -0.32571 0.89341
vn 0.23091 0.19951 0.95230
vn 0.22830 0.19972 0.95288
vn 0.74442 -0.62291 0.24047
vn 0.40195 -0.63908 -0.65575
vn 0.99122 0.10306 -0.08279
vn 0.73058 -0.16848 -0.66171
vn -0.65305 0.34308 -0.67515
vn -0.67964 0.70887 0.18867
vn -0.17684 0.74820 -0.63947
vn 0.08207 0.99461 -0.06333
vn -0.63051 -0.62937 0.45427
vn -0.63114 -0.62460 0.45992
vn -0.01288 0.97696 0.21304
vn 0.00000 0.97615 0.21712
vn 0.00000 0.97861 0.20573
vn -0.02961 0.97449 0.22246
vn 0.00000 0.00000 1.00000
vn 0.16928 -0.92433 0.34200
vn -0.00000 -0.94027 0.34044
vn -0.00000 -0.93390 0.35752
vn 0.14536 -0.93509 0.32324
vn -0.07791 -0.00419 -0.99695
vn -0.00000 -0.00872 -0.99996
vn -0.05648 -0.01436 -0.99830
vn 0.95789 0.00493 0.28709
vn 0.95839 0.00362 0.28543
vn 0.95976 -0.00000 0.28082
vn 0.95686 0.00757 0.29045
vn 0.00000 -0.01857 -0.99983
vn -0.34060 -0.82227 0.45592
vn -0.34060 -0.82227 0.45592
vn -0.89458 0.00000 0.44692
vn -0.86958 0.00000 -0.49380
vn -0.88199 -0.46830 -0.05276
vn -0.77275 -0.44469 0.45289
vn -0.09540 -0.23041 0.96841
vn -0.11880 -0.28681 0.95059
vn -0.21309 -0.12018 0.96961
vn -0.23464 0.00000 0.97208
vn -0.30486 0.00000 0.95240
vn -0.27436 -0.14844 0.95010
vn 0.28115 0.30465 0.91003
vn 0.30942 0.32571 0.89341
vn -0.23091 -0.19951 0.95230
vn -0.22830 -0.19972 0.95288
vn -0.74442 0.62291 0.24047
vn -0.40099 0.64259 -0.65290
vn -0.99122 -0.10306 -0.08279
vn -0.73211 0.16794 -0.66016
vn 0.65653 -0.34219 -0.67221
vn 0.67964 -0.70887 0.18867
vn 0.17638 -0.74956 -0.63801
vn -0.08207 -0.99461 -0.06333
vn 0.63051 0.62937 0.45427
vn 0.63114 0.62460 0.45992
vn 0.00000 0.00000 -1.00000
vn -0.34060 0.82227 0.45592
vn -0.34060 0.82227 0.45592
vn -0.88199 0.46830 -0.05276
vn -0.77275 0.44469 0.45289
vn -0.09540 0.23041 0.96841
vn -0.11880 0.28681 0.95059
vn -0.21309 0.12018 0.96961
vn -0.27436 0.14844 0.95010
vn 0.28115 -0.30465 0.91003
vn -0.23091 0.19951 0.95230
vn 0.30942 -0.32571 0.89341
vn -0.22830 0.19972 0.95288
vn -0.74442 -0.62291 0.24047
vn -0.99122 0.10306 -0.08279
vn -0.40195 -0.63908 -0.65575
vn -0.73058 -0.16848 -0.66171
vn 0.65305 0.34308 -0.67515
vn 0.17684 0.74820 -0.63947
vn 0.67964 0.70887 0.18867
vn -0.08207 0.99461 -0.06333
vn 0.63051 -0.62937 0.45427
vn 0.63114 -0.62460 0.45992
vn 0.01289 0.97696 0.21304
vn 0.02962 0.97449 0.22246
vn -0.16928 -0.92433 0.34200
vn -0.14536 -0.93509 0.32324
vn 0.07791 -0.00419 -0.99695
vn 0.05648 -0.01436 -0.99830
vn -0.95789 0.00493 0.28709
vn -0.95976 -0.00000 0.28082
vn -0.95839 0.00362 0.28543
vn -0.95686 0.00757 0.29045
# 136 normals
usemtl turret_01
f  3/1/1 2/2/2 1/3/3
f  1/3/3 2/2/2 4/1/3
f  3/4/4 6/5/5 5/6/6
f  6/5/5 3/4/4 1/7/7
f  8/8/8 4/9/9 7/10/10
f  4/9/9 8/8/8 9/11/11
f  4/9/9 6/5/5 1/7/7
f  6/5/5 4/9/9 9/11/11
f  5/6/12 11/12/13 10/13/14
f  11/12/13 5/6/12 6/5/15
f  13/14/16 8/8/17 12/15/18
f  8/8/17 13/14/16 9/11/19
f  9/11/19 11/12/13 6/5/15
f  11/12/13 9/11/19 13/14/16
f  14/16/20 10/17/14 11/18/13
f  14/16/20 13/19/16 12/20/18
f  14/16/20 11/18/13 13/19/16
f  17/21/21 16/22/22 15/23/23
f  18/24/24 15/23/23 16/22/22
f  15/24/25 18/23/26 19/22/27
f  20/21/28 19/22/27 18/23/26
f  22/24/29 21/23/30 17/22/31
f  16/21/32 17/22/31 21/23/30
f  21/21/30 20/23/28 16/22/32
f  18/24/26 16/22/32 20/23/28
f  22/24/33 15/21/23 19/22/34
f  15/21/23 22/24/33 17/23/21
f  4/1/9 2/2/2 7/3/10
f  24/1/35 23/3/35 2/2/2
f  23/3/35 25/1/35 2/2/2
f  24/4/36 27/6/36 26/5/37
f  26/5/37 23/7/38 24/4/36
f  8/8/8 7/10/10 25/9/39
f  25/9/39 28/11/40 8/8/8
f  25/9/39 23/7/38 26/5/37
f  26/5/37 28/11/40 25/9/39
f  27/6/41 30/13/42 29/12/43
f  29/12/43 26/5/44 27/6/41
f  31/14/45 12/15/18 8/8/17
f  8/8/17 28/11/46 31/14/45
f  28/11/46 26/5/44 29/12/43
f  29/12/43 31/14/45 28/11/46
f  14/16/20 29/18/43 30/17/42
f  14/16/20 12/20/18 31/19/45
f  14/16/20 31/19/45 29/18/43
f  34/21/47 33/23/48 32/22/49
f  35/24/50 32/22/49 33/23/48
f  33/24/51 36/22/52 35/23/53
f  37/21/54 35/23/53 36/22/52
f  39/24/55 34/22/56 38/23/57
f  32/21/58 38/23/57 34/22/56
f  38/21/57 32/22/58 37/23/54
f  35/24/53 37/23/54 32/22/58
f  39/24/59 36/22/60 33/21/48
f  33/21/48 34/23/47 39/24/59
f  25/1/39 7/3/10 2/2/2
f  42/25/61 41/26/62 40/27/63
f  43/28/64 41/26/62 42/25/61
f  45/29/65 40/30/65 44/31/65
f  42/32/65 40/30/65 45/29/65
f  47/33/66 44/34/67 46/35/68
f  45/36/69 44/34/67 47/33/66
f  47/37/70 46/38/71 43/39/72
f  45/40/73 43/41/74 42/42/75
f  43/41/74 45/40/73 47/43/76
f  43/44/72 46/38/71 41/45/77
f  22/22/29 20/21/28 21/21/30
f  20/21/28 22/22/29 19/22/27
f  36/24/52 38/23/57 37/23/54
f  38/23/57 36/24/52 39/24/55
f  3/1/1 48/3/1 2/2/2
f  48/3/1 49/1/1 2/2/2
f  3/4/4 5/6/6 50/5/78
f  50/5/78 48/7/79 3/4/4
f  52/8/80 51/10/81 49/9/82
f  49/9/82 53/11/83 52/8/80
f  49/9/82 48/7/79 50/5/78
f  50/5/78 53/11/83 49/9/82
f  5/6/12 10/13/14 54/12/84
f  54/12/84 50/5/85 5/6/12
f  56/14/86 55/15/87 52/8/88
f  52/8/88 53/11/89 56/14/86
f  53/11/89 50/5/85 54/12/84
f  54/12/84 56/14/86 53/11/89
f  14/16/20 54/18/84 10/17/14
f  14/16/20 55/20/87 56/19/86
f  14/16/20 56/19/86 54/18/84
f  59/21/90 58/23/91 57/22/92
f  60/24/93 57/22/92 58/23/91
f  58/24/94 61/22/95 60/23/96
f  62/21/97 60/23/96 61/22/95
f  64/24/98 59/22/99 63/23/100
f  57/21/101 63/23/100 59/22/99
f  63/21/100 57/22/101 62/23/97
f  60/24/96 62/23/97 57/22/101
f  64/24/102 61/22/103 58/21/91
f  58/21/91 59/23/90 64/24/102
f  49/1/82 51/3/81 2/2/2
f  24/1/35 2/2/2 65/3/104
f  65/3/104 2/2/2 66/1/104
f  24/4/36 67/5/105 27/6/36
f  67/5/105 24/4/36 65/7/106
f  52/8/80 66/9/107 51/10/81
f  66/9/107 52/8/80 68/11/108
f  66/9/107 67/5/105 65/7/106
f  67/5/105 66/9/107 68/11/108
f  27/6/41 69/12/109 30/13/42
f  69/12/109 27/6/41 67/5/110
f  70/14/111 52/8/88 55/15/87
f  52/8/88 70/14/111 68/11/112
f  68/11/112 69/12/109 67/5/110
f  69/12/109 68/11/112 70/14/111
f  14/16/20 30/17/42 69/18/109
f  14/16/20 70/19/111 55/20/87
f  14/16/20 69/18/109 70/19/111
f  73/21/113 72/22/114 71/23/115
f  74/24/116 71/23/115 72/22/114
f  71/24/117 74/23/118 75/22/119
f  76/21/120 75/22/119 74/23/118
f  78/24/121 77/23/122 73/22/123
f  72/21/124 73/22/123 77/23/122
f  77/21/122 76/23/120 72/22/124
f  74/24/118 72/22/124 76/23/120
f  78/24/125 71/21/115 75/22/126
f  71/21/115 78/24/125 73/23/113
f  66/1/107 2/2/2 51/3/81
f  79/25/127 40/27/63 41/26/62
f  80/28/128 79/25/127 41/26/62
f  81/29/65 44/31/65 40/30/65
f  79/32/20 81/29/65 40/30/65
f  82/33/129 46/35/68 44/34/67
f  81/36/130 82/33/129 44/34/67
f  82/37/131 80/39/132 46/38/71
f  81/40/133 79/42/134 80/41/135
f  80/41/135 82/43/136 81/40/133
f  80/44/132 41/45/77 46/38/71
f  64/22/98 63/21/100 62/21/97
f  62/21/97 61/22/95 64/22/98
f  75/24/119 76/23/120 77/23/122
f  77/23/122 78/24/121 75/24/119
# object head
g head
v 0.06392 -1.39100 3.46636
v 0.00587 -1.39519 3.40593
v 0.89819 0.12877 2.34488
v 0.99199 0.16149 2.45898
v 0.06392 -1.44286 3.35766
v 0.98665 0.06164 2.28281
v 0.12232 -1.43449 3.42468
v 1.07563 0.06888 2.37344
v 0.13322 -1.57341 3.59947
v 0.18040 -1.37210 3.52152
v 0.21778 -1.53544 3.31649
v 0.15209 -1.67330 3.45566
v 0.00000 -1.55269 3.65913
v 0.00000 -1.26507 3.55367
v 0.00000 -1.49570 3.23326
v 0.00000 -1.70589 3.43824
v 0.00000 0.87218 1.68421
v 0.00000 0.49231 1.21718
v 0.24960 0.84085 1.67398
v 0.31743 0.51793 1.21828
v 0.00000 0.60521 2.23789
v 0.24960 0.60272 2.15581
v 0.00000 -0.14956 1.21976
v 0.32562 -0.04338 1.22271
v -0.00587 -1.39519 3.40593
v -0.06392 -1.39100 3.46636
v -0.89819 0.12877 2.34488
v -0.99199 0.16149 2.45898
v -0.06391 -1.44286 3.35766
v -0.98665 0.06164 2.28281
v -0.12232 -1.43448 3.42468
v -1.07563 0.06889 2.37344
v -0.18039 -1.37210 3.52152
v -0.13322 -1.57341 3.59947
v -0.21778 -1.53544 3.31649
v -0.15209 -1.67330 3.45566
v -0.24960 0.84085 1.67398
v -0.31743 0.51793 1.21828
v -0.24960 0.60273 2.15581
v -0.32561 -0.04338 1.22271
v -0.01015 -0.24598 1.79453
v -0.00097 0.67281 3.01388
v 0.98273 -0.32092 1.84469
v 0.99992 0.59280 3.06058
v 2.13835 -0.46617 2.35233
v 2.14704 0.09370 3.09520
v 1.07469 -0.22395 1.65374
v -0.00025 0.92378 2.96176
v -0.01066 -0.11727 1.58025
v 1.08997 0.81261 3.02958
v 2.28996 0.22756 3.07788
v 2.27955 -0.40089 2.24397
v -1.00302 -0.31373 1.85423
v -1.00192 0.60005 3.07020
v -2.15473 -0.45063 2.37295
v -2.15223 0.10926 3.11585
v -1.09599 -0.21610 1.66416
v -1.09055 0.82050 3.04005
v -2.29423 0.24415 3.09990
v -2.29637 -0.38433 2.26595
v -0.25331 0.58055 2.57773
v 0.27230 0.01085 1.85519
v -0.25221 0.01354 1.85959
v 0.27114 0.57630 2.57499
v 0.37379 0.35910 1.74231
v 0.35852 0.70919 2.24195
v -0.32553 0.71828 2.25237
v -0.30095 0.37057 1.74584
# 68 verticies
vt 0.27062 0.88563
vt 0.27096 0.57743
vt 0.28132 0.57763
vt 0.28171 0.88593
vt 0.40398 0.03445
vt 0.40037 0.04757
vt 0.40844 0.04734
vt -0.54055 0.12914
vt -0.48691 0.12914
vt -0.48691 0.05092
vt -0.54042 0.05092
vt 0.06568 0.72696
vt 0.01204 0.76928
vt 0.01204 0.72696
vt 0.06556 0.76928
vt 0.23703 0.00311
vt 0.15560 0.00311
vt 0.18352 0.03474
vt 0.23703 0.04543
vt 0.08686 0.77709
vt 0.20983 0.56117
vt 0.20983 0.77709
vt 0.08015 0.56117
vt 0.11117 0.77878
vt 0.02708 0.62520
vt 0.02708 0.77878
vt 0.11117 0.62520
vt 0.28085 0.77709
vt 0.19390 0.55583
vt 0.19390 0.77709
vt 0.28126 0.55583
vt 0.02775 0.22316
vt -0.13852 0.36541
vt 0.02775 0.16622
vt 0.27770 0.77709
vt 0.28441 0.48460
vt 0.08351 0.77709
vt 0.08351 0.56117
vt -0.06845 0.16622
vt -0.13852 0.16622
vt 0.27758 0.67879
vt 0.41151 0.47814
vt 0.41150 0.67891
vt 0.27652 0.47877
vt 0.13284 0.51373
vt 0.13325 0.63606
vt 0.36477 0.47285
vt 0.36502 0.50199
vt 0.47739 0.47345
vt 0.47920 0.50185
vt 0.10328 0.77166
vt 0.10464 0.67930
vt 0.28403 0.77074
vt 0.28519 0.68059
# 54 texture verticies
vn -0.55289 0.68303 -0.47726
vn -0.88792 0.44642 -0.11093
vn 0.00779 0.55532 0.83160
vn 0.26780 0.86121 0.43197
vn 0.20684 0.03591 -0.97772
vn -0.10440 -0.53495 -0.83841
vn -0.35021 -0.84538 0.40334
vn -0.35772 -0.84282 0.40212
vn 0.97893 0.08953 -0.18349
vn 0.88819 -0.35859 0.28728
vn -0.34269 -0.84789 0.40454
vn 0.95252 -0.15104 0.26437
vn 0.95555 -0.11956 0.26949
vn 0.95265 -0.14986 0.26456
vn 0.94715 -0.19157 0.25732
vn 0.37176 0.29850 0.87903
vn 0.00000 0.34425 0.93888
vn 0.00000 0.30154 0.95345
vn 0.42755 0.23757 0.87222
vn -0.00000 -0.72216 -0.69172
vn 0.12183 -0.73329 -0.66891
vn 0.18244 -0.70367 -0.68670
vn -0.00000 -0.69817 -0.71593
vn 0.00000 0.81302 -0.58224
vn 0.35123 0.76064 -0.54595
vn 0.34746 0.76325 -0.54471
vn 0.00000 0.81162 -0.58418
vn -0.00000 -0.81761 0.57577
vn 0.10751 -0.80988 0.57665
vn 0.12031 -0.81347 0.56903
vn -0.00000 -0.82171 0.56991
vn 0.03166 0.78620 -0.61716
vn 0.00000 0.80208 -0.59721
vn 0.00000 0.77579 -0.63099
vn -0.06333 0.80981 -0.58327
vn 0.14527 0.89022 0.43176
vn 0.00000 0.89769 0.44062
vn 0.00000 0.90076 0.43432
vn 0.12958 0.88893 0.43933
vn 0.24038 -0.78117 0.57618
vn -0.00000 -0.81273 0.58263
vn -0.00000 -0.80333 0.59553
vn 0.17942 -0.80190 0.56988
vn 0.01157 -0.00772 -0.99990
vn -0.00000 -0.00641 -0.99998
vn 0.00616 -0.00515 -0.99997
vn 0.99708 0.06845 0.03383
vn 0.99550 0.04230 0.08481
vn 0.99674 0.05617 0.05784
vn 0.99053 0.01552 0.13643
vn -0.00000 -0.00402 -0.99999
vn 0.55289 0.68303 -0.47726
vn -0.00779 0.55532 0.83160
vn 0.88792 0.44642 -0.11093
vn -0.26780 0.86121 0.43197
vn -0.20684 0.03591 -0.97772
vn 0.10440 -0.53495 -0.83841
vn 0.35021 -0.84538 0.40334
vn 0.35772 -0.84282 0.40212
vn -0.97893 0.08953 -0.18349
vn -0.88819 -0.35859 0.28728
vn 0.34269 -0.84789 0.40454
vn -0.95252 -0.15104 0.26436
vn -0.95265 -0.14986 0.26456
vn -0.95555 -0.11956 0.26949
vn -0.94715 -0.19157 0.25732
vn -0.37175 0.29850 0.87903
vn -0.42755 0.23757 0.87222
vn -0.18244 -0.70367 -0.68670
vn -0.12183 -0.73329 -0.66891
vn -0.34746 0.76325 -0.54471
vn -0.35122 0.76064 -0.54595
vn -0.12031 -0.81347 0.56903
vn -0.10752 -0.80988 0.57665
vn -0.03166 0.78620 -0.61716
vn 0.06334 0.80981 -0.58327
vn -0.14527 0.89022 0.43176
vn -0.12958 0.88893 0.43933
vn -0.24039 -0.78117 0.57618
vn -0.17943 -0.80190 0.56988
vn -0.01157 -0.00772 -0.99990
vn -0.00616 -0.00515 -0.99997
vn -0.99708 0.06845 0.03383
vn -0.99674 0.05617 0.05784
vn -0.99550 0.04230 0.08481
vn -0.99053 0.01552 0.13643
vn -0.09076 -0.79521 0.59950
vn -0.00000 -0.79896 0.60138
vn 0.00000 -0.79866 0.60179
vn -0.09153 -0.79545 0.59906
vn -0.34311 -0.74840 0.56760
vn -0.34310 -0.74841 0.56759
vn -0.34345 -0.74808 0.56781
vn -0.34285 -0.74864 0.56744
vn 0.00000 0.79863 -0.60182
vn -0.00000 0.79854 -0.60194
vn 0.11827 0.79255 -0.59823
vn 0.11804 0.79248 -0.59837
vn 0.38201 0.73574 -0.55924
vn 0.38169 0.73604 -0.55907
vn 0.38169 0.73605 -0.55906
vn 0.38146 0.73626 -0.55894
vn -0.03867 -0.85664 -0.51447
vn -0.05444 -0.87948 -0.47281
vn -0.03383 0.15316 0.98762
vn -0.04013 0.20331 0.97829
vn 0.63796 -0.61854 0.45870
vn 0.63623 -0.61993 0.45924
vn 0.07257 -0.90296 -0.42356
vn 0.08116 -0.89697 -0.43457
vn 0.01772 0.10967 0.99381
vn 0.02356 0.13015 0.99121
vn 0.09076 -0.79587 0.59863
vn 0.09152 -0.79612 0.59818
vn 0.34311 -0.75090 0.56430
vn 0.34312 -0.75088 0.56431
vn 0.34347 -0.75057 0.56452
vn 0.34286 -0.75112 0.56415
vn -0.11828 0.79340 -0.59710
vn -0.11804 0.79333 -0.59723
vn -0.38171 0.73880 -0.55540
vn -0.38203 0.73851 -0.55557
vn -0.38170 0.73881 -0.55540
vn -0.38147 0.73902 -0.55527
vn 0.02752 -0.85688 -0.51477
vn 0.04353 -0.87985 -0.47326
vn 0.04443 0.15285 0.98725
vn 0.05100 0.20296 0.97786
vn -0.63830 -0.61372 0.46468
vn -0.63658 -0.61511 0.46520
vn -0.08319 -0.90238 -0.42284
vn -0.09185 -0.89632 -0.43378
vn -0.00739 0.10977 0.99393
vn -0.01310 0.13029 0.99139
vn -0.00770 -0.93957 -0.34226
vn -0.00962 -0.91539 -0.40246
vn -0.00171 -0.78587 0.61839
vn -0.00314 -0.78637 0.61774
vn 0.95892 -0.22233 0.17620
vn 0.86936 0.41581 -0.26705
vn 0.52310 0.73408 0.43301
vn 0.70179 0.71210 -0.02007
vn -0.79527 0.48113 -0.36886
vn -0.98724 -0.14240 0.07120
vn -0.68630 0.72683 -0.02642
vn -0.52437 0.73837 0.42408
vn -0.00981 -0.30510 -0.95227
vn -0.01018 -0.30564 -0.95209
# 148 normals
f  85/46/137 84/47/138 83/48/139
f  85/46/137 83/48/139 86/49/140
f  88/49/141 87/48/142 84/47/138
f  88/49/141 84/47/138 85/46/137
f  87/50/143 83/51/143 84/52/144
f  90/46/145 83/48/139 89/47/146
f  90/46/145 86/49/140 83/48/139
f  88/49/141 89/47/146 87/48/142
f  88/49/141 90/46/145 89/47/146
f  87/50/143 89/52/147 83/51/143
f  93/53/148 92/54/149 91/55/150
f  93/53/148 91/55/150 94/56/151
f  92/54/152 96/53/153 95/56/154
f  92/54/152 95/56/154 91/55/155
f  97/54/156 93/53/157 94/56/158
f  97/54/156 94/56/158 98/55/159
f  97/57/160 92/58/161 93/59/162
f  96/60/163 92/58/161 97/57/160
f  98/61/164 94/62/165 91/63/166
f  95/64/167 98/61/164 91/63/166
f  88/46/141 85/49/137 86/49/140
f  86/49/140 90/46/145 88/46/141
f  101/65/168 100/66/169 99/67/170
f  102/68/171 100/66/169 101/65/168
f  104/69/172 99/70/173 103/71/174
f  101/72/175 99/70/173 104/69/172
f  106/73/176 103/74/177 105/75/178
f  104/76/179 103/74/177 106/73/176
f  106/77/180 105/78/181 102/79/182
f  104/80/183 106/81/184 101/82/185
f  102/83/186 101/82/185 106/81/184
f  102/84/182 105/78/181 100/85/187
f  109/46/188 108/48/189 107/47/190
f  109/46/188 110/49/191 108/48/189
f  112/49/192 107/47/190 111/48/193
f  112/49/192 109/46/188 107/47/190
f  111/50/194 107/52/195 108/51/194
f  114/46/196 113/47/197 108/48/189
f  114/46/196 108/48/189 110/49/191
f  112/49/192 111/48/193 113/47/197
f  112/49/192 113/47/197 114/46/196
f  111/50/194 108/51/194 113/52/198
f  117/53/199 116/55/200 115/54/201
f  117/53/199 118/56/202 116/55/200
f  115/54/203 95/56/154 96/53/153
f  115/54/203 116/55/204 95/56/154
f  97/54/156 118/56/205 117/53/206
f  97/54/156 98/55/159 118/56/205
f  97/57/160 117/59/207 115/58/208
f  96/60/163 97/57/160 115/58/208
f  98/61/164 116/63/209 118/62/210
f  95/64/167 116/63/209 98/61/164
f  112/46/192 110/49/191 109/49/188
f  110/49/191 112/46/192 114/46/196
f  119/65/211 99/67/170 100/66/169
f  120/68/212 119/65/211 100/66/169
f  121/69/213 103/71/174 99/70/173
f  119/72/214 121/69/213 99/70/173
f  122/73/215 105/75/178 103/74/177
f  121/76/216 122/73/215 103/74/177
f  122/77/217 120/79/218 105/78/181
f  121/80/219 119/82/220 122/81/221
f  120/83/222 122/81/221 119/82/220
f  120/84/218 100/85/187 105/78/181
f  125/86/223 124/87/224 123/88/225
f  124/87/224 125/86/223 126/89/226
f  128/90/227 125/86/228 127/91/229
f  125/86/228 128/90/227 126/89/230
f  131/88/231 130/87/232 129/86/233
f  132/89/234 129/86/233 130/87/232
f  134/91/235 129/86/236 133/90/237
f  132/89/238 133/90/237 129/86/236
f  123/92/239 131/93/239 125/94/239
f  129/95/240 125/94/240 131/93/240
f  126/94/241 132/95/241 124/92/241
f  130/93/242 124/92/242 132/95/242
f  127/92/243 134/93/243 128/94/243
f  133/95/244 128/94/244 134/93/244
f  125/94/245 129/95/245 127/92/245
f  134/93/246 127/92/246 129/95/246
f  128/92/247 133/93/247 126/94/247
f  132/95/248 126/94/248 133/93/248
f  124/87/224 135/86/249 123/88/225
f  135/86/249 124/87/224 136/89/250
f  135/86/251 138/90/252 137/91/253
f  138/90/252 135/86/251 136/89/254
f  130/87/232 131/88/231 139/86/255
f  139/86/255 140/89/256 130/87/232
f  139/86/257 142/91/258 141/90/259
f  141/90/259 140/89/260 139/86/257
f  131/93/261 123/92/261 135/94/261
f  135/94/262 139/95/262 131/93/262
f  140/95/263 136/94/263 124/92/263
f  124/92/264 130/93/264 140/95/264
f  142/93/265 137/92/265 138/94/265
f  138/94/266 141/95/266 142/93/266
f  139/95/267 135/94/267 137/92/267
f  137/92/268 142/93/268 139/95/268
f  141/93/269 138/92/269 136/94/269
f  136/94/270 140/95/270 141/93/270
f  145/96/271 144/97/272 143/98/273
f  146/99/274 143/98/273 144/97/272
f  144/99/275 147/98/276 146/97/277
f  148/96/278 146/97/277 147/98/276
f  150/99/279 145/98/280 149/97/281
f  143/96/282 149/97/281 145/98/280
f  149/96/281 143/98/282 148/97/278
f  146/99/277 148/97/278 143/98/282
f  150/99/283 147/98/284 144/96/272
f  144/96/272 145/97/271 150/99/283
f  147/99/276 149/97/281 148/97/278
f  149/97/281 147/99/276 150/99/279
