# 
# Wavefront OBJ file
# Converted by the DEEP Exploration Deep Exploration 6.0 6.0.2.6082 Release
# Right Hemisphere, LTD
# http://www.righthemisphere.com/
# 
mtllib flame-thrower-04.mtl
# object body
g body
v 1.41882 -0.42915 1.39714
v 2.01745 -0.42915 0.59014
v 1.42154 -0.95161 1.39690
v 2.01757 -1.07386 0.59014
v 1.50163 -1.31277 0.55397
v 1.20645 -1.20977 1.01400
v 0.83276 -0.87314 1.33099
v 0.82583 -0.42915 1.33156
v 0.00000 1.00167 1.19538
v 0.00000 1.28967 0.59014
v 0.65564 0.82138 1.05644
v 0.77370 1.09505 0.52801
v 0.34142 0.31759 1.57655
v 0.00000 0.31747 1.62532
v 0.44964 0.23516 1.34442
v 1.37073 0.23201 1.05644
v 0.83276 0.01484 1.33099
v 0.00000 0.24547 1.34080
v 1.42154 0.09331 1.39690
v 2.01757 0.21555 0.59014
v 1.60780 0.36557 0.52801
v 1.21957 -1.20352 -0.13018
v 0.67332 -0.88703 0.90025
v 2.07447 -1.15059 -0.11726
v 2.07435 -0.43539 -0.16245
v 2.07447 0.27981 -0.16245
v 1.66470 0.44332 -0.16652
v 0.48066 -0.25956 0.85442
v 1.09843 0.27600 -0.16717
v 0.85477 1.13308 -0.19137
v 0.00000 1.39057 -0.18111
v 0.00000 -0.02167 0.90433
v 0.00000 0.27600 -0.15514
v -1.41882 -0.42915 1.39714
v -1.42154 -0.95161 1.39690
v -2.01745 -0.42915 0.59014
v -2.01757 -1.07386 0.59014
v -1.50163 -1.31277 0.55397
v -1.20645 -1.20977 1.01400
v -0.83276 -0.87314 1.33099
v -0.82583 -0.42915 1.33156
v -0.65564 0.82138 1.05644
v -0.77370 1.09505 0.52801
v -0.34142 0.31759 1.57655
v -0.44964 0.23516 1.34442
v -1.37073 0.23201 1.05644
v -0.83276 0.01484 1.33099
v -1.42154 0.09331 1.39690
v -2.01757 0.21555 0.59014
v -1.60780 0.36557 0.52801
v -1.21957 -1.20352 -0.13018
v -0.67332 -0.88703 0.90025
v -2.07447 -1.15059 -0.11726
v -2.07435 -0.43539 -0.16245
v -2.07447 0.27981 -0.16245
v -1.66470 0.44332 -0.16652
v -0.48066 -0.25956 0.85442
v -1.09843 0.27600 -0.16717
v -0.85477 1.13308 -0.19137
# 59 verticies
vt -0.51751 1.01683
vt -0.67023 1.19991
vt -0.67142 1.01605
vt -0.45526 1.20143
vt -0.40881 0.97990
vt -0.36066 1.15392
vt -0.51711 1.01674
vt -0.40864 0.97954
vt -0.35525 1.18013
vt -0.47210 1.35970
vt -0.61988 1.21895
vt -0.61723 1.36122
vt -0.46596 1.21817
vt -0.60040 1.19991
vt -0.47141 0.99386
vt -0.41803 1.19445
vt 0.95810 0.54939
vt 0.73368 0.40660
vt 0.75517 0.54803
vt 0.92590 0.68788
vt 0.78402 0.68815
vt -0.42343 1.16824
vt -0.47158 0.99421
vt 0.98450 0.40747
vt -0.13547 1.18565
vt -0.18362 1.01162
vt 0.20181 0.17877
vt 0.19153 0.38693
vt 0.34293 0.18075
vt 0.48783 0.38316
vt 0.48410 0.18061
vt 0.73441 0.60582
vt 0.73428 0.40724
vt 0.98244 0.60363
vt 0.98213 0.40811
vt 0.15592 0.38693
vt 0.15062 0.18075
vt 0.33453 0.18061
vt 0.42729 0.38316
vt 0.24689 0.51269
vt 0.22149 0.66050
vt 0.19096 0.51215
vt 0.34555 0.61863
vt 0.31256 0.53872
vt 0.17247 0.54038
vt -0.00509 0.61857
vt 0.31407 0.72996
vt 0.03218 0.54199
vt 0.10195 0.72757
vt 0.23902 0.88468
vt 0.27049 0.77335
vt 0.26803 0.55768
vt 0.01162 0.56128
# 53 texture verticies
vn 0.44296 0.00106 0.89654
vn 0.93703 0.00062 0.34924
vn 0.39788 0.00000 0.91744
vn 0.94363 0.00017 0.33099
vn 0.38854 -0.88752 0.24767
vn -0.05422 -0.97368 0.22138
vn 0.07312 -0.98920 0.12707
vn 0.34430 -0.85666 0.38418
vn -0.33121 -0.81516 0.47521
vn -0.17143 -0.76955 0.61514
vn -0.72472 -0.53822 0.43022
vn -0.11059 -0.00211 0.99386
vn -0.10992 0.00000 0.99394
vn 0.42179 0.77493 0.47073
vn 0.00000 0.95640 0.29206
vn 0.00000 0.90298 0.42968
vn 0.44113 0.85069 0.28590
vn 0.00000 0.58728 0.80938
vn 0.20308 0.55199 0.80874
vn 0.29891 0.47313 0.82873
vn 0.00000 0.53205 0.84671
vn 0.88943 -0.09268 0.44758
vn 0.58216 0.67775 0.44917
vn 0.04266 -0.03479 0.99848
vn 0.30159 0.36593 0.88042
vn -0.00095 -0.06250 0.99804
vn 0.00000 -0.96008 0.27972
vn -0.00735 -0.83147 0.55552
vn 0.05109 -0.93336 0.35528
vn 0.00000 -0.89106 0.45389
vn 0.44296 -0.00106 0.89654
vn 0.94384 -0.00017 0.33040
vn 0.30948 0.92112 0.23615
vn 0.26436 0.90445 0.33479
vn 0.30503 0.92839 0.21226
vn 0.26131 0.90692 0.33048
vn -0.68930 0.38273 0.61513
vn -0.16457 0.90465 0.39310
vn -0.11059 0.00211 0.99386
vn 0.63136 0.72192 0.28325
vn -0.52151 -0.79469 -0.31064
vn -0.79437 -0.55303 -0.25125
vn -0.81228 -0.43120 0.39276
vn 0.72330 -0.01779 -0.69031
vn 0.71618 -0.04548 -0.69644
vn 0.22121 -0.97411 -0.04658
vn 0.63249 -0.00010 -0.77457
vn 0.36617 0.92098 0.13309
vn 0.35258 0.92765 0.12307
vn -0.53651 -0.56934 -0.62291
vn -0.68649 -0.47163 -0.55344
vn -0.82014 -0.48729 0.29987
vn -0.85605 -0.07340 0.51165
vn 0.37026 0.67603 -0.63710
vn 0.29032 0.31630 -0.90314
vn 0.00000 0.79782 -0.60289
vn -0.36106 -0.66758 0.65113
vn -0.19489 -0.77028 0.60720
vn 0.00000 -0.85293 0.52203
vn -0.00000 -0.88440 -0.46673
vn -0.00000 -0.96272 -0.27049
vn 0.00128 -0.03755 -0.99929
vn 0.00308 -0.02675 -0.99964
vn -0.00000 -0.02732 -0.99963
vn -0.93703 0.00062 0.34924
vn -0.44296 0.00106 0.89654
vn -0.39788 0.00000 0.91744
vn -0.94363 0.00017 0.33099
vn 0.05422 -0.97368 0.22138
vn -0.38854 -0.88752 0.24767
vn -0.07312 -0.98920 0.12707
vn -0.34430 -0.85666 0.38418
vn 0.17143 -0.76955 0.61514
vn 0.33121 -0.81516 0.47521
vn 0.72472 -0.53822 0.43022
vn 0.11059 -0.00211 0.99386
vn 0.10992 0.00000 0.99394
vn -0.42179 0.77493 0.47073
vn -0.44113 0.85069 0.28590
vn -0.20308 0.55199 0.80874
vn -0.29891 0.47313 0.82873
vn -0.88943 -0.09268 0.44758
vn -0.58216 0.67775 0.44917
vn -0.04266 -0.03479 0.99848
vn -0.30159 0.36593 0.88042
vn 0.00095 -0.06250 0.99804
vn 0.00735 -0.83147 0.55552
vn -0.05109 -0.93336 0.35528
vn -0.44296 -0.00106 0.89654
vn -0.94384 -0.00017 0.33040
vn -0.26436 0.90445 0.33479
vn -0.30948 0.92112 0.23615
vn -0.30503 0.92839 0.21226
vn -0.26131 0.90692 0.33048
vn 0.16457 0.90465 0.39310
vn 0.68930 0.38273 0.61513
vn 0.11059 0.00211 0.99386
vn -0.63136 0.72192 0.28325
vn 0.52151 -0.79469 -0.31064
vn 0.79437 -0.55303 -0.25125
vn 0.81228 -0.43120 0.39276
vn -0.72330 -0.01779 -0.69031
vn -0.71618 -0.04548 -0.69644
vn -0.22121 -0.97411 -0.04658
vn -0.63249 -0.00010 -0.77457
vn -0.36617 0.92098 0.13309
vn -0.35258 0.92765 0.12307
vn 0.53651 -0.56934 -0.62291
vn 0.68649 -0.47163 -0.55344
vn 0.82014 -0.48729 0.29987
vn 0.85605 -0.07340 0.51165
vn -0.37026 0.67603 -0.63710
vn -0.29032 0.31630 -0.90314
vn 0.36106 -0.66758 0.65113
vn 0.19489 -0.77028 0.60720
vn -0.00128 -0.03755 -0.99929
vn -0.00308 -0.02675 -0.99964
# 117 normals
usemtl turret_01
f  3/1/1 2/2/2 1/3/3
f  2/2/2 3/1/1 4/4/4
f  4/4/5 6/5/6 5/6/7
f  6/5/6 4/4/5 3/7/8
f  6/8/9 3/4/10 7/9/11
f  1/10/3 7/11/12 3/12/1
f  7/11/12 1/10/3 8/13/13
f  11/1/14 10/2/15 9/3/16
f  10/2/15 11/1/14 12/4/17
f  9/3/18 13/4/19 11/1/20
f  13/4/19 9/3/18 14/14/21
f  11/15/22 13/4/22 15/16/22
f  16/17/23 12/18/17 11/19/14
f  11/19/20 17/20/24 16/17/25
f  17/20/24 11/19/20 15/21/26
f  14/10/27 15/11/28 13/12/29
f  15/11/28 14/10/27 18/13/30
f  1/3/3 2/2/2 19/1/31
f  20/4/32 19/1/31 2/2/2
f  21/22/33 16/23/34 20/4/35
f  19/7/36 20/4/35 16/23/34
f  17/11/37 19/12/38 16/10/38
f  19/12/31 17/11/39 1/10/3
f  8/13/13 1/10/3 17/11/39
f  12/18/17 16/17/23 21/24/40
f  22/4/41 5/6/7 6/5/6
f  6/5/6 23/7/42 22/4/41
f  7/9/11 23/4/43 6/8/9
f  25/2/44 2/3/2 24/4/45
f  4/1/4 24/4/45 2/3/2
f  24/7/46 4/4/5 5/6/7
f  5/6/7 22/4/41 24/7/46
f  26/4/47 20/1/32 25/2/44
f  2/3/2 25/2/44 20/1/32
f  27/22/48 21/23/33 26/4/49
f  20/7/35 26/4/49 21/23/33
f  29/25/50 22/4/41 28/26/51
f  23/7/42 28/26/51 22/4/41
f  17/27/37 28/28/52 8/29/53
f  23/30/43 7/31/11 8/29/53
f  8/29/53 28/28/52 23/30/43
f  30/32/54 12/33/17 27/34/55
f  21/35/40 27/34/55 12/33/17
f  31/2/56 10/3/15 30/4/54
f  12/1/17 30/4/54 10/3/15
f  15/29/26 28/28/57 17/27/24
f  28/36/58 15/37/28 18/38/30
f  18/38/30 32/39/59 28/36/58
f  28/40/51 33/41/60 29/42/50
f  28/42/52 32/40/61 33/41/61
f  27/43/55 26/44/47 25/45/44
f  27/43/55 22/46/62 29/47/63
f  24/48/45 22/46/62 25/45/44
f  22/46/62 27/43/55 25/45/44
f  30/49/54 27/50/55 29/51/63
f  29/51/63 33/52/64 30/49/54
f  33/52/64 31/53/56 30/49/54
f  36/2/65 35/1/66 34/3/67
f  35/1/66 36/2/65 37/4/68
f  39/5/69 37/4/70 38/6/71
f  37/4/70 39/5/69 35/7/72
f  35/4/73 39/8/74 40/9/75
f  40/11/76 34/10/67 35/12/66
f  34/10/67 40/11/76 41/13/77
f  10/2/15 42/1/78 9/3/16
f  42/1/78 10/2/15 43/4/79
f  44/4/80 9/3/18 42/1/81
f  9/3/18 44/4/80 14/14/21
f  44/4/82 42/15/82 45/16/82
f  43/18/79 46/17/83 42/19/78
f  47/20/84 42/19/81 46/17/85
f  42/19/81 47/20/84 45/21/86
f  45/11/87 14/10/27 44/12/88
f  14/10/27 45/11/87 18/13/30
f  36/2/65 34/3/67 48/1/89
f  48/1/89 49/4/90 36/2/65
f  46/23/91 50/22/92 49/4/93
f  49/4/93 48/7/94 46/23/91
f  48/12/95 47/11/96 46/10/95
f  47/11/97 48/12/89 34/10/67
f  34/10/67 41/13/77 47/11/97
f  46/17/83 43/18/79 50/24/98
f  38/6/71 51/4/99 39/5/69
f  52/7/100 39/5/69 51/4/99
f  52/4/101 40/9/75 39/8/74
f  36/3/65 54/2/102 53/4/103
f  53/4/103 37/1/68 36/3/65
f  37/4/70 53/7/104 38/6/71
f  51/4/99 38/6/71 53/7/104
f  49/1/90 55/4/105 54/2/102
f  54/2/102 36/3/65 49/1/90
f  50/23/92 56/22/106 55/4/107
f  55/4/107 49/7/93 50/23/92
f  51/4/99 58/25/108 57/26/109
f  57/26/109 52/7/100 51/4/99
f  57/28/110 47/27/96 41/29/111
f  40/31/75 52/30/101 41/29/111
f  57/28/110 41/29/111 52/30/101
f  43/33/79 59/32/112 56/34/113
f  56/34/113 50/35/98 43/33/79
f  10/3/15 31/2/56 59/4/112
f  59/4/112 43/1/79 10/3/15
f  57/28/114 45/29/86 47/27/84
f  45/37/87 57/36/115 18/38/30
f  32/39/59 18/38/30 57/36/115
f  33/41/60 57/40/109 58/42/108
f  32/40/61 57/42/110 33/41/61
f  55/44/105 56/43/113 54/45/102
f  51/46/116 56/43/113 58/47/117
f  51/46/116 53/48/103 54/45/102
f  56/43/113 51/46/116 54/45/102
f  56/50/113 59/49/112 58/51/117
f  33/52/64 58/51/117 59/49/112
f  31/53/56 33/52/64 59/49/112
# object gun-01
g gun_01
v 0.35902 -0.49600 1.25867
v 0.41202 -0.82217 0.84971
v 0.58132 -0.82217 1.25844
v 0.25477 -0.49600 1.00699
v 0.41202 -0.82217 1.66717
v 0.25477 -0.49600 1.51035
v 0.00000 -0.49600 1.61460
v 0.00000 -0.82217 1.83647
v 0.00000 -0.49600 0.90274
v 0.00000 -0.82217 0.68041
v 0.24868 -1.87489 1.00290
v 0.00000 -1.87489 0.89865
v 0.00000 -1.94235 1.25308
v 0.35293 -1.87489 1.25458
v 0.24868 -1.87489 1.50626
v 0.00000 -1.87489 1.61051
v 0.00000 -0.40916 1.25867
v 0.34284 -1.57385 0.91220
v 0.48523 -1.57385 1.25595
v 0.34284 -1.57385 1.59970
v 0.00000 -1.57385 1.74209
v 0.00000 -1.57385 0.76982
v 0.21731 -0.47302 1.25527
v 0.15689 0.33355 1.10285
v 0.15314 -0.47302 1.10033
v 0.22107 0.33355 1.25779
v 0.15314 -0.47302 1.41021
v 0.15689 0.33355 1.41273
v 0.00000 -0.47302 1.47439
v 0.00000 0.33355 1.47691
v 0.00000 0.33355 1.03867
v 0.00000 -0.47302 1.03615
v 0.00000 -0.52496 1.25435
v 0.00000 0.40694 1.25779
v -0.35902 -0.49600 1.25867
v -0.58132 -0.82217 1.25844
v -0.41202 -0.82217 0.84971
v -0.25477 -0.49600 1.00699
v -0.41202 -0.82217 1.66717
v -0.25477 -0.49600 1.51035
v -0.24868 -1.87489 1.00290
v -0.35293 -1.87489 1.25458
v -0.24868 -1.87489 1.50626
v -0.34284 -1.57385 0.91220
v -0.48523 -1.57385 1.25595
v -0.34284 -1.57385 1.59970
v -0.21731 -0.47302 1.25527
v -0.15314 -0.47302 1.10033
v -0.15689 0.33355 1.10285
v -0.22107 0.33355 1.25779
v -0.15314 -0.47302 1.41021
v -0.15689 0.33355 1.41273
# 52 verticies
vt 0.08165 0.77676
vt -0.02718 0.77676
vt 0.08165 0.84402
vt -0.02718 0.84402
vt 0.27061 0.92569
vt 0.23579 0.95103
vt 0.30123 0.95103
vt 0.04366 0.51783
vt 0.07428 0.61800
vt 0.10910 0.51783
vt 0.56864 0.53103
vt 0.56864 0.48249
vt 0.49532 0.53103
vt 0.49532 0.48249
vt 0.31043 0.34499
vt 0.31043 0.48317
vt 0.41926 0.34499
vt 0.41926 0.48317
vt 0.09212 0.02622
vt 0.09212 0.23326
vt 0.05353 0.02622
vt 0.05353 0.23326
vt 0.74708 0.28902
vt 0.71226 0.38920
vt 0.77771 0.38920
# 25 texture verticies
vn 0.97643 0.21585 0.00038
vn 0.68971 0.21785 -0.69053
vn 0.62319 0.78207 0.00009
vn 0.43994 0.78179 -0.44188
vn 0.68988 0.21571 0.69104
vn 0.44005 0.78156 0.44218
vn 0.00000 0.21662 0.97625
vn 0.00000 0.78147 0.62395
vn 0.00000 0.21947 -0.97562
vn 0.00000 0.78180 -0.62353
vn -0.00000 -1.00000 -0.00086
vn 0.00000 -0.98236 -0.18698
vn 0.13299 -0.98220 -0.13267
vn 0.13208 -0.98241 0.13204
vn 0.18775 -0.98222 0.00014
vn 0.00000 -0.98265 0.18547
vn 0.00000 1.00000 0.00000
vn 0.64832 -0.39749 -0.64936
vn 0.68378 -0.25449 -0.68387
vn 0.91549 -0.40234 -0.00109
vn 0.96595 -0.25875 -0.00006
vn 0.64832 -0.40325 0.64582
vn 0.68339 -0.25920 0.68249
vn 0.00000 -0.40206 0.91561
vn 0.00000 -0.25750 0.96628
vn -0.00000 -0.39344 -0.91935
vn -0.00000 -0.25078 -0.96804
vn 0.70724 -0.00024 -0.70697
vn 0.60143 0.52475 -0.60243
vn 0.99999 -0.00465 -0.00076
vn 0.85184 0.52381 0.00051
vn 0.70839 -0.00550 0.70580
vn 0.60183 0.52325 0.60333
vn 0.00000 -0.00481 0.99999
vn 0.00000 0.52408 0.85167
vn 0.00000 0.00312 -1.00000
vn 0.00000 0.52601 -0.85048
vn -0.00000 -1.00000 -0.00105
vn -0.00000 -0.97282 -0.23156
vn 0.16466 -0.97258 -0.16426
vn 0.16355 -0.97289 0.16350
vn 0.23245 -0.97261 0.00017
vn 0.00000 -0.97326 0.22972
vn 0.00000 1.00000 -0.00000
vn -0.68971 0.21785 -0.69053
vn -0.97643 0.21585 0.00038
vn -0.62319 0.78207 0.00009
vn -0.43994 0.78179 -0.44188
vn -0.68988 0.21571 0.69104
vn -0.44005 0.78156 0.44218
vn -0.13299 -0.98220 -0.13267
vn -0.13208 -0.98241 0.13204
vn -0.18775 -0.98222 0.00014
vn -0.68378 -0.25449 -0.68387
vn -0.64832 -0.39749 -0.64936
vn -0.91549 -0.40234 -0.00109
vn -0.96595 -0.25875 -0.00006
vn -0.64832 -0.40325 0.64582
vn -0.68339 -0.25920 0.68249
vn -0.60143 0.52475 -0.60243
vn -0.70724 -0.00024 -0.70697
vn -0.99999 -0.00465 -0.00076
vn -0.85184 0.52381 0.00051
vn -0.70839 -0.00550 0.70580
vn -0.60183 0.52325 0.60333
vn -0.16466 -0.97258 -0.16426
vn -0.16355 -0.97289 0.16350
vn -0.23245 -0.97261 0.00017
# 68 normals
f  62/54/118 61/55/119 60/56/120
f  63/57/121 60/56/120 61/55/119
f  64/55/122 62/54/118 60/56/120
f  60/56/120 65/57/123 64/55/122
f  67/54/124 64/55/122 66/56/125
f  65/57/123 66/56/125 64/55/122
f  61/55/119 69/54/126 68/56/127
f  68/56/127 63/57/121 61/55/119
f  72/58/128 71/59/129 70/60/130
f  74/60/131 72/58/128 73/59/132
f  73/59/132 72/58/128 70/60/130
f  75/59/133 72/58/128 74/60/131
f  63/61/121 76/62/134 60/63/120
f  60/63/120 76/62/134 65/61/123
f  65/61/123 76/62/134 66/63/125
f  68/63/127 76/62/134 63/61/121
f  70/64/135 77/65/136 73/66/137
f  78/67/138 73/66/137 77/65/136
f  73/66/137 78/67/138 74/64/139
f  79/65/140 74/64/139 78/67/138
f  74/64/139 79/65/140 75/66/141
f  80/67/142 75/66/141 79/65/140
f  71/66/143 81/67/144 70/64/135
f  77/65/136 70/64/135 81/67/144
f  77/68/136 61/69/119 78/70/138
f  62/71/118 78/70/138 61/69/119
f  78/70/138 62/71/118 79/68/140
f  64/69/122 79/68/140 62/71/118
f  79/68/140 64/69/122 80/70/142
f  67/71/124 80/70/142 64/69/122
f  81/70/144 69/71/126 77/68/136
f  61/69/119 77/68/136 69/71/126
f  84/72/145 83/73/146 82/74/147
f  85/75/148 82/74/147 83/73/146
f  82/74/147 85/75/148 86/72/149
f  87/73/150 86/72/149 85/75/148
f  86/72/149 87/73/150 88/74/151
f  89/75/152 88/74/151 87/73/150
f  91/74/153 90/75/154 84/72/145
f  83/73/146 84/72/145 90/75/154
f  92/76/155 91/77/156 84/78/157
f  86/78/158 92/76/155 82/77/159
f  82/77/159 92/76/155 84/78/157
f  88/77/160 92/76/155 86/78/158
f  83/78/146 93/76/161 85/77/148
f  85/77/148 93/76/161 87/78/150
f  87/78/150 93/76/161 89/77/152
f  90/77/154 93/76/161 83/78/146
f  96/55/162 95/54/163 94/56/164
f  94/56/164 97/57/165 96/55/162
f  95/54/163 98/55/166 94/56/164
f  99/57/167 94/56/164 98/55/166
f  98/55/166 67/54/124 66/56/125
f  66/56/125 99/57/167 98/55/166
f  69/54/126 96/55/162 68/56/127
f  97/57/165 68/56/127 96/55/162
f  71/59/129 72/58/128 100/60/168
f  72/58/128 102/60/169 101/59/170
f  72/58/128 101/59/170 100/60/168
f  72/58/128 75/59/133 102/60/169
f  76/62/134 97/61/165 94/63/164
f  76/62/134 94/63/164 99/61/167
f  76/62/134 99/61/167 66/63/125
f  76/62/134 68/63/127 97/61/165
f  103/65/171 100/64/172 101/66/173
f  101/66/173 104/67/174 103/65/171
f  104/67/174 101/66/173 102/64/175
f  102/64/175 105/65/176 104/67/174
f  105/65/176 102/64/175 75/66/141
f  75/66/141 80/67/142 105/65/176
f  81/67/144 71/66/143 100/64/172
f  100/64/172 103/65/171 81/67/144
f  96/69/162 103/68/171 104/70/174
f  104/70/174 95/71/163 96/69/162
f  95/71/163 104/70/174 105/68/176
f  105/68/176 98/69/166 95/71/163
f  98/69/166 105/68/176 80/70/142
f  80/70/142 67/71/124 98/69/166
f  69/71/126 81/70/144 103/68/171
f  103/68/171 96/69/162 69/71/126
f  108/73/177 107/72/178 106/74/179
f  106/74/179 109/75/180 108/73/177
f  109/75/180 106/74/179 110/72/181
f  110/72/181 111/73/182 109/75/180
f  111/73/182 110/72/181 88/74/151
f  88/74/151 89/75/152 111/73/182
f  90/75/154 91/74/153 107/72/178
f  107/72/178 108/73/177 90/75/154
f  91/77/156 92/76/155 107/78/183
f  92/76/155 110/78/184 106/77/185
f  92/76/155 106/77/185 107/78/183
f  92/76/155 88/77/160 110/78/184
f  93/76/161 108/78/177 109/77/180
f  93/76/161 109/77/180 111/78/182
f  93/76/161 111/78/182 89/77/152
f  93/76/161 90/77/154 108/78/177
