# 
# Wavefront OBJ file
# Converted by the DEEP Exploration Deep Exploration 6.0 6.0.2.6082 Release
# Right Hemisphere, LTD
# http://www.righthemisphere.com/
# 
mtllib turret-14.mtl
# object body
g body
v 1.18135 -0.30520 1.14262
v 0.80546 -1.06481 1.14262
v 0.00000 -0.22156 1.14262
v 0.00000 -1.16218 1.14262
v 1.18135 0.48674 1.14262
v 0.00000 0.48674 1.14262
v 1.57458 -0.75713 -0.13703
v 1.19870 -1.64013 -0.13703
v 1.06467 1.12036 1.14262
v 0.00000 1.25639 1.14262
v 1.59682 1.39548 -0.13703
v 1.71350 0.49890 -0.13703
v 0.00000 -1.51677 0.82733
v 0.47092 -1.50811 0.76973
v 0.79247 -1.91803 -0.15418
v 1.25959 -0.25458 -0.13487
v 1.24995 0.25992 -0.13487
v 1.00431 1.78331 -0.13357
v 0.69203 1.54184 0.74321
v 0.34051 -1.32521 0.53351
v 0.00000 -1.33387 0.59111
v 0.59850 -1.53506 -0.15418
v 0.00000 -1.50375 -0.14692
v 0.51890 1.39152 0.53351
v 0.75453 1.61052 -0.15418
v 0.00000 1.57922 -0.14692
v 0.00000 1.41320 0.56176
v 0.00000 1.60218 0.78423
v 0.62224 0.37772 1.59422
v 0.00000 0.37772 1.59422
v 0.00000 0.93916 1.58190
v 0.61352 0.93916 1.58190
v 0.71523 -0.82982 1.11624
v 0.00000 -0.59719 1.59334
v 0.63239 -0.51069 1.60928
v 0.00000 1.15057 1.11624
v 0.67286 1.11555 1.11624
v 0.00000 -0.90601 1.11624
v -0.80547 -1.06480 1.14262
v -1.18135 -0.30520 1.14262
v -1.18135 0.48674 1.14262
v -1.57458 -0.75712 -0.13703
v -1.19870 -1.64013 -0.13703
v -1.06467 1.12036 1.14262
v -1.71350 0.49890 -0.13703
v -1.59682 1.39548 -0.13703
v -0.47092 -1.50811 0.76973
v -0.79247 -1.91803 -0.15418
v -1.25959 -0.25459 -0.13487
v -1.24995 0.25992 -0.13487
v -1.00431 1.78332 -0.13357
v -0.69203 1.54184 0.74321
v -0.34052 -1.32521 0.53351
v -0.59850 -1.53506 -0.15418
v -0.51890 1.39153 0.53351
v -0.75453 1.61052 -0.15418
v -0.62224 0.37772 1.59422
v -0.61352 0.93916 1.58190
v -0.71523 -0.82982 1.11624
v -0.63239 -0.51069 1.60928
v -0.67286 1.11555 1.11624
# 61 verticies
vt 0.26210 0.73271
vt 0.15547 0.84431
vt 0.10572 0.74378
vt 0.26210 0.85720
vt 0.10572 0.63897
vt 0.26210 0.63897
vt 0.53552 0.92142
vt 0.53668 0.78079
vt 0.76228 0.77987
vt 0.76092 0.92087
vt 0.12116 0.55510
vt 0.26210 0.53710
vt 0.20213 0.36400
vt 0.02956 0.36583
vt 0.05883 0.25696
vt 0.19980 0.25956
vt 0.56018 0.36583
vt 0.48431 0.25696
vt 0.10071 0.64631
vt 0.10366 0.53853
vt 0.29205 0.53632
vt 0.29229 0.64845
vt 0.29250 0.65245
vt 0.29366 0.55398
vt 0.10030 0.65153
vt 0.87333 0.54244
vt 0.57377 0.63043
vt 0.58166 0.54064
vt 0.91784 0.62917
vt -0.88822 0.49915
vt -0.80130 0.49743
vt -0.80092 0.56997
vt -0.88796 0.56991
vt -0.80434 0.49743
vt -0.95217 0.49915
vt -0.95192 0.56991
vt -0.80397 0.56997
vt -0.33284 0.16790
vt -0.41925 0.16660
vt -0.41877 0.31249
vt -0.34138 0.31158
vt 0.16643 0.49795
vt 0.28240 0.49691
vt 0.16659 0.54084
vt 0.28263 0.54087
vt 0.28714 0.77287
vt 0.20975 0.77196
vt 0.28762 0.61406
vt 0.18459 0.61536
vt 0.67647 0.54064
vt 0.67458 0.63043
vt 0.28702 0.76624
vt 0.17104 0.76410
vt 0.18277 0.68796
vt 0.28326 0.68576
vt 0.01296 0.47796
vt 0.12900 0.48185
vt 0.02312 0.57026
vt 0.13531 0.56978
vt 0.08714 0.48474
vt 0.24261 0.48198
vt 0.29870 0.56930
vt -0.04178 0.56912
vt -0.01111 0.48691
vt 0.61397 0.17717
vt 0.76442 0.25621
vt 0.70490 0.29293
vt 0.60109 0.24788
vt 0.63195 0.19972
vt 0.82509 0.25551
vt 0.99591 0.22775
vt 0.95882 0.28096
vt 0.85300 0.29397
vt 0.97574 0.19811
vt 0.61817 0.10665
vt 0.97268 0.10914
# 76 texture verticies
vn 0.00000 0.00000 1.00000
vn 0.00000 0.00000 1.00000
vn 0.64009 -0.28697 -0.71269
vn 0.68369 -0.28026 -0.67382
vn 0.82468 -0.38578 0.41363
vn 0.80964 -0.40064 0.42892
vn 0.03453 0.25488 0.96635
vn 0.00000 0.41706 0.90888
vn 0.90467 0.14869 0.39932
vn 0.71956 0.09364 -0.68809
vn 0.59586 0.08720 -0.79834
vn 0.89754 0.16527 0.40878
vn 0.27706 -0.72886 0.62610
vn -0.00000 -0.66448 0.74731
vn -0.00000 -0.67384 0.73888
vn 0.29682 -0.73361 0.61132
vn 0.55709 -0.83044 0.00468
vn 0.52044 -0.73380 -0.43667
vn 0.99828 0.00469 0.05842
vn 0.99813 0.00000 0.06113
vn 0.54924 0.00684 -0.83564
vn 0.56019 0.00875 -0.82832
vn 0.84520 0.52947 0.07274
vn 0.45146 -0.87406 0.17944
vn 0.49473 0.78231 0.37846
vn 0.49992 0.77586 0.38487
vn 0.50549 0.76877 0.39177
vn 0.49052 0.78743 0.37328
vn -0.00000 -0.79832 -0.60224
vn -0.07806 -0.80868 -0.58305
vn -0.06976 -0.79977 -0.59624
vn -0.00000 -0.79069 -0.61222
vn -0.82260 -0.56618 -0.05255
vn -0.67392 -0.34872 -0.65133
vn -0.85988 -0.49018 -0.14257
vn -0.80412 -0.59425 -0.01621
vn -0.00000 -0.78693 -0.61704
vn -0.01138 -0.40152 -0.91578
vn 0.02058 -0.96953 0.24410
vn 0.00000 -0.97452 0.22432
vn -0.38450 0.63565 -0.66941
vn -0.63148 0.77538 -0.00411
vn -0.28634 0.44343 -0.84934
vn -0.64290 0.76573 -0.01809
vn -0.02410 0.61236 -0.79021
vn 0.00000 0.79033 -0.61268
vn 0.00877 0.96565 0.25968
vn 0.00000 0.97364 0.22809
vn 0.00000 0.99821 0.05979
vn 0.10091 0.94435 0.31308
vn 0.02521 0.79047 -0.61198
vn 0.00000 0.76213 -0.64742
vn 0.00000 0.02193 0.99976
vn 0.00000 0.02193 0.99976
vn 0.09929 -0.82765 0.55239
vn 0.00000 -0.83614 0.54852
vn 0.09455 -0.83163 0.54722
vn 0.00000 0.92074 0.39019
vn 0.00000 0.91055 0.41340
vn 0.02860 0.92383 0.38175
vn 0.04852 0.93199 0.35921
vn 0.83803 0.02418 0.54508
vn 0.71431 0.01344 0.69970
vn 0.54857 0.00935 -0.83605
vn 0.63063 0.01264 -0.77598
vn 0.99092 0.01830 0.13320
vn 0.00000 -0.83949 0.54337
vn 0.00000 0.00992 0.99995
vn 0.00000 -0.00089 1.00000
vn 0.00943 0.01021 -0.99990
vn 0.00550 0.00134 -0.99998
vn -0.00000 -0.00000 -1.00000
vn 0.00000 0.00000 -1.00000
vn -0.64009 -0.28697 -0.71269
vn -0.82467 -0.38578 0.41363
vn -0.68369 -0.28026 -0.67381
vn -0.80963 -0.40064 0.42893
vn -0.03453 0.25488 0.96636
vn -0.90467 0.14869 0.39932
vn -0.59586 0.08720 -0.79834
vn -0.71956 0.09364 -0.68809
vn -0.89754 0.16527 0.40878
vn -0.27706 -0.72886 0.62610
vn -0.29682 -0.73361 0.61132
vn -0.55709 -0.83044 0.00469
vn -0.52044 -0.73380 -0.43667
vn -0.99828 0.00469 0.05842
vn -0.54924 0.00684 -0.83564
vn -0.99813 0.00000 0.06113
vn -0.56019 0.00875 -0.82832
vn -0.84520 0.52947 0.07274
vn -0.45146 -0.87407 0.17944
vn -0.45146 -0.87406 0.17944
vn -0.49473 0.78231 0.37846
vn -0.50549 0.76877 0.39177
vn -0.49992 0.77586 0.38487
vn -0.49052 0.78743 0.37328
vn 0.06976 -0.79977 -0.59624
vn 0.07806 -0.80868 -0.58304
vn 0.82260 -0.56619 -0.05255
vn 0.85988 -0.49018 -0.14257
vn 0.67392 -0.34872 -0.65133
vn 0.80412 -0.59425 -0.01621
vn -0.02058 -0.96953 0.24410
vn 0.01138 -0.40152 -0.91578
vn 0.38450 0.63566 -0.66941
vn 0.28634 0.44343 -0.84934
vn 0.63148 0.77538 -0.00411
vn 0.64291 0.76573 -0.01809
vn 0.02410 0.61236 -0.79021
vn -0.00877 0.96565 0.25968
vn -0.10090 0.94435 0.31309
vn -0.02521 0.79047 -0.61199
vn -0.09929 -0.82765 0.55239
vn -0.09455 -0.83163 0.54723
vn -0.02860 0.92382 0.38175
vn -0.04851 0.93199 0.35922
vn -0.83803 0.02418 0.54508
vn -0.54857 0.00934 -0.83605
vn -0.71431 0.01344 0.69970
vn -0.63063 0.01264 -0.77598
vn -0.99092 0.01830 0.13320
vn -0.00943 0.01021 -0.99990
vn -0.00550 0.00134 -0.99998
# 124 normals
usemtl turret_01
f  3/1/1 2/2/2 1/3/1
f  2/2/2 3/1/1 4/4/1
f  3/1/1 1/3/1 5/5/2
f  5/5/2 6/6/1 3/1/1
f  8/7/3 7/8/4 1/9/5
f  1/9/5 2/10/6 8/7/3
f  6/6/1 5/5/2 9/11/7
f  9/11/7 10/12/8 6/6/1
f  5/9/9 12/8/10 11/7/11
f  11/7/11 9/10/12 5/9/9
f  2/13/13 4/14/14 13/15/15
f  13/15/15 14/16/16 2/13/13
f  14/16/16 8/17/17 2/13/13
f  8/17/17 14/16/16 15/18/18
f  5/19/19 1/20/20 16/21/21
f  16/21/21 17/22/22 5/19/19
f  7/23/23 16/24/23 1/25/23
f  12/23/24 5/25/24 17/24/24
f  19/26/25 11/27/26 18/28/27
f  11/27/26 19/26/25 9/29/28
f  21/30/29 20/31/30 14/32/31
f  14/32/31 13/33/32 21/30/29
f  20/34/33 22/35/34 15/36/35
f  15/36/35 14/37/36 20/34/33
f  23/38/37 22/39/38 20/40/39
f  20/40/39 21/41/40 23/38/37
f  25/42/41 24/43/42 18/44/43
f  19/45/44 18/44/43 24/43/42
f  25/46/45 26/47/46 24/48/47
f  27/49/48 24/48/47 26/47/46
f  9/29/7 28/50/49 10/51/8
f  28/50/49 9/29/7 19/26/50
f  24/43/51 27/42/52 28/44/49
f  28/44/49 19/45/50 24/43/51
f  31/52/53 30/53/53 29/54/54
f  31/52/53 29/54/54 32/55/54
f  35/56/55 34/57/56 33/58/57
f  36/57/58 31/59/59 32/58/60
f  36/57/58 32/58/60 37/56/61
f  29/60/62 35/61/63 33/62/64
f  29/60/62 33/62/64 37/63/65
f  29/60/62 37/63/65 32/64/66
f  34/57/56 38/59/67 33/58/57
f  30/53/68 34/52/69 35/55/63
f  35/55/63 29/54/62 30/53/68
f  22/65/34 16/66/70 7/67/4
f  7/67/4 8/68/3 22/65/34
f  8/68/17 15/69/18 22/65/38
f  17/70/71 18/71/43 11/72/11
f  11/72/11 12/73/10 17/70/71
f  17/70/71 25/74/41 18/71/43
f  22/65/38 25/74/45 17/70/22
f  17/70/22 16/66/21 22/65/38
f  23/75/37 26/76/46 25/74/45
f  25/74/45 22/65/38 23/75/37
f  33/55/64 36/53/72 37/52/65
f  36/53/72 33/55/64 38/54/73
f  3/1/1 40/3/2 39/2/1
f  39/2/1 4/4/1 3/1/1
f  3/1/1 41/5/1 40/3/2
f  41/5/1 3/1/1 6/6/1
f  43/7/74 40/9/75 42/8/76
f  40/9/75 43/7/74 39/10/77
f  6/6/1 44/11/78 41/5/1
f  44/11/78 6/6/1 10/12/8
f  41/9/79 46/7/80 45/8/81
f  46/7/80 41/9/79 44/10/82
f  39/13/83 13/15/15 4/14/14
f  13/15/15 39/13/83 47/16/84
f  47/16/84 39/13/83 43/17/85
f  43/17/85 48/18/86 47/16/84
f  41/19/87 49/21/88 40/20/89
f  49/21/88 41/19/87 50/22/90
f  42/23/91 40/25/91 49/24/91
f  45/23/92 50/24/93 41/25/92
f  52/26/94 51/28/95 46/27/96
f  46/27/96 44/29/97 52/26/94
f  21/30/29 47/32/98 53/31/99
f  47/32/98 21/30/29 13/33/32
f  53/34/100 48/36/101 54/35/102
f  48/36/101 53/34/100 47/37/103
f  23/38/37 53/40/104 54/39/105
f  53/40/104 23/38/37 21/41/40
f  56/42/106 51/44/107 55/43/108
f  52/45/109 55/43/108 51/44/107
f  56/46/110 55/48/111 26/47/46
f  27/49/48 26/47/46 55/48/111
f  44/29/78 10/51/8 28/50/49
f  28/50/49 52/26/112 44/29/78
f  55/43/113 28/44/49 27/42/52
f  28/44/49 55/43/113 52/45/112
f  31/52/53 57/54/53 30/53/53
f  31/52/53 58/55/53 57/54/53
f  60/56/114 59/58/115 34/57/56
f  36/57/58 58/58/116 31/59/59
f  36/57/58 61/56/117 58/58/116
f  57/60/118 59/62/119 60/61/120
f  57/60/118 61/63/121 59/62/119
f  57/60/118 58/64/122 61/63/121
f  34/57/56 59/58/115 38/59/67
f  30/53/68 60/55/120 34/52/69
f  60/55/120 30/53/68 57/54/118
f  54/65/102 42/67/76 49/66/123
f  42/67/76 54/65/102 43/68/74
f  43/68/85 54/65/105 48/69/86
f  50/70/124 46/72/80 51/71/107
f  46/72/80 50/70/124 45/73/81
f  50/70/124 51/71/107 56/74/106
f  54/65/105 50/70/90 56/74/110
f  50/70/90 54/65/105 49/66/88
f  23/75/37 56/74/110 26/76/46
f  56/74/110 23/75/37 54/65/105
f  59/55/119 61/52/121 36/53/72
f  36/53/72 38/54/73 59/55/119
# object head
g head
v 0.31950 1.61752 2.45699
v 0.00141 0.29248 2.46807
v 0.00141 1.73132 2.45699
v 0.29681 0.28658 2.46415
v 0.50146 1.82447 1.69970
v 0.00141 1.93893 1.69970
v 0.49665 0.56421 1.69043
v 0.00141 0.59439 1.71189
v 0.74138 1.07023 2.33033
v 0.73853 -0.22815 2.33896
v 0.39190 -0.04070 2.78062
v 0.37248 0.91664 2.78854
v 0.00141 -0.24254 2.34549
v 0.00141 -0.05412 2.78715
v 0.42648 0.40587 1.51979
v 0.00141 0.41078 1.52611
v 0.00141 -0.19736 1.48391
v 0.44570 -0.20700 1.49885
v 0.00141 0.92251 2.79487
v 0.00141 1.07514 2.33665
v -0.31668 1.61752 2.45699
v -0.29399 0.28658 2.46415
v -0.49864 1.82447 1.69970
v -0.49383 0.56421 1.69043
v -0.73571 -0.22815 2.33896
v -0.73856 1.07023 2.33033
v -0.38908 -0.04070 2.78062
v -0.36966 0.91664 2.78854
v -0.42367 0.40587 1.51979
v -0.44288 -0.20700 1.49885
# 30 verticies
vt 0.00523 0.95230
vt 0.17297 0.95171
vt 0.00448 0.99225
vt 0.17209 0.99189
vt 0.37424 0.12161
vt 0.16946 0.07731
vt 0.37424 0.00133
vt 0.16946 -0.00359
vt 0.06207 0.52752
vt 0.26454 0.52735
vt 0.06188 0.64332
vt 0.26599 0.64351
vt 0.41598 0.87130
vt 0.52927 0.87130
vt 0.41598 0.79182
vt 0.52927 0.78995
vt 0.37424 0.03695
vt 0.19616 0.03558
vt 0.37424 0.29789
vt 0.13740 0.26962
vt 0.47644 0.48283
vt 0.47788 0.54914
vt 0.38595 0.54895
vt 0.38614 0.48301
vt 0.41383 0.48301
vt 0.41364 0.54895
vt 0.01144 -0.14673
vt 0.18147 -0.14693
vt 0.18164 -0.20484
vt 0.01125 -0.20510
vt 0.16848 0.60307
vt 0.29616 0.60236
vt 0.29499 0.48460
vt 0.16891 0.48385
vt 0.09654 0.15899
vt -0.00379 0.16055
vt 0.00055 0.36113
vt 0.09665 0.35957
# 38 texture verticies
vn 0.00000 0.00770 0.99997
vn 0.00000 0.00553 0.99998
vn 0.00398 0.00740 0.99996
vn 0.01338 0.00515 0.99990
vn 0.00000 0.96442 0.26439
vn 0.00000 0.95028 0.31139
vn 0.24358 0.93001 0.27523
vn 0.31908 0.89192 0.32041
vn -0.00000 -0.00907 -0.99996
vn 0.00000 0.00313 -1.00000
vn -0.03334 -0.00527 -0.99943
vn 0.00168 0.00735 -0.99997
vn 0.00000 -0.92871 -0.37080
vn -0.00000 -0.93376 -0.35789
vn -0.03926 -0.93011 -0.36517
vn -0.07215 -0.93272 -0.35332
vn 0.97265 -0.00542 0.23222
vn 0.97154 -0.00888 0.23672
vn 0.97053 -0.01194 0.24069
vn 0.96942 -0.01521 0.24493
vn 0.78459 0.00448 0.61999
vn 0.78714 0.00237 0.61676
vn 0.78075 0.00764 0.62479
vn 0.77716 0.01056 0.62922
vn 0.02142 -0.91959 0.39230
vn 0.03817 -0.90873 0.41564
vn -0.01404 0.06923 -0.99750
vn 0.03435 0.03521 -0.99879
vn 0.01698 -0.00790 0.99982
vn 0.01691 -0.00793 0.99983
vn 0.02039 0.94856 0.31595
vn 0.00904 0.94590 0.32434
vn 0.94424 -0.00426 -0.32923
vn 0.91914 0.04220 -0.39167
vn 0.01902 -0.99845 -0.05236
vn -0.02109 -0.99962 -0.01782
vn -0.00029 0.77345 -0.63385
vn -0.00049 0.77340 -0.63392
vn -0.00398 0.00740 0.99996
vn -0.01338 0.00515 0.99990
vn -0.24358 0.93001 0.27524
vn -0.31908 0.89192 0.32041
vn 0.03334 -0.00527 -0.99943
vn -0.00168 0.00735 -0.99997
vn 0.03926 -0.93011 -0.36517
vn 0.07215 -0.93272 -0.35332
vn -0.97265 -0.00542 0.23222
vn -0.97053 -0.01194 0.24069
vn -0.97154 -0.00888 0.23672
vn -0.96942 -0.01521 0.24493
vn -0.78459 0.00448 0.61999
vn -0.78075 0.00764 0.62479
vn -0.78714 0.00237 0.61676
vn -0.77716 0.01056 0.62922
vn -0.02141 -0.91959 0.39230
vn -0.03817 -0.90873 0.41564
vn 0.01404 0.06923 -0.99750
vn -0.03435 0.03521 -0.99879
vn -0.01698 -0.00790 0.99982
vn -0.01691 -0.00793 0.99983
vn -0.02039 0.94856 0.31595
vn -0.00904 0.94590 0.32434
vn -0.94424 -0.00426 -0.32923
vn -0.91914 0.04220 -0.39167
vn -0.01902 -0.99845 -0.05236
vn 0.02109 -0.99962 -0.01782
vn 0.00029 0.77345 -0.63385
vn 0.00049 0.77340 -0.63392
# 68 normals
f  64/77/125 63/78/126 62/79/127
f  62/79/127 63/78/126 65/80/128
f  67/81/129 64/82/130 66/83/131
f  66/83/131 64/82/130 62/84/132
f  69/85/133 67/86/134 68/87/135
f  68/87/135 67/86/134 66/88/136
f  63/89/137 69/90/138 65/91/139
f  65/91/139 69/90/138 68/92/140
f  66/93/141 62/94/142 68/95/143
f  62/94/142 65/96/144 68/95/143
f  72/97/145 71/98/146 70/99/147
f  73/100/148 72/97/145 70/99/147
f  75/101/149 74/102/149 71/98/149
f  71/98/150 72/97/150 75/101/150
f  78/97/151 77/101/151 76/102/151
f  76/102/152 79/98/152 78/97/152
f  80/103/153 75/104/153 72/105/153
f  72/105/154 73/106/154 80/103/154
f  81/102/155 80/101/155 73/97/155
f  73/97/156 70/98/156 81/102/156
f  70/107/157 71/108/157 79/109/157
f  79/109/158 76/110/158 70/107/158
f  71/100/159 74/99/159 78/98/159
f  78/98/160 79/97/160 71/100/160
f  81/111/161 70/112/161 76/113/161
f  76/113/162 77/114/162 81/111/162
f  64/77/125 82/79/163 63/78/126
f  82/79/163 83/80/164 63/78/126
f  67/81/129 84/83/165 64/82/130
f  84/83/165 82/84/166 64/82/130
f  69/85/133 85/87/167 67/86/134
f  85/87/167 84/88/168 67/86/134
f  63/89/137 83/91/169 69/90/138
f  83/91/169 85/92/170 69/90/138
f  84/93/171 85/95/172 82/94/173
f  82/94/173 85/95/172 83/96/174
f  88/97/175 87/99/176 86/98/177
f  89/100/178 87/99/176 88/97/175
f  75/101/179 86/98/179 74/102/179
f  86/98/180 75/101/180 88/97/180
f  78/97/181 90/102/181 77/101/181
f  90/102/182 78/97/182 91/98/182
f  80/103/183 88/105/183 75/104/183
f  88/105/184 80/103/184 89/106/184
f  81/102/185 89/97/185 80/101/185
f  89/97/186 81/102/186 87/98/186
f  87/107/187 91/109/187 86/108/187
f  91/109/188 87/107/188 90/110/188
f  86/100/189 78/98/189 74/99/189
f  78/98/190 86/100/190 91/97/190
f  81/111/191 90/113/191 87/112/191
f  90/113/192 81/111/192 77/114/192
# object barrel
g barrel
v 0.15554 -0.12758 2.09666
v 0.00141 -2.52252 2.03157
v 0.15782 -2.52252 2.09619
v 0.00141 -0.12758 2.03204
v 0.22295 -0.12758 2.25547
v 0.22523 -2.52252 2.25500
v 0.15836 -0.12758 2.41539
v 0.15928 -2.52252 2.41629
v 0.00141 -2.52252 2.48504
v 0.00141 -0.12758 2.48276
v 0.00141 -2.52252 2.25830
v 0.00141 -0.12486 2.25830
v -0.15273 -0.12758 2.09666
v -0.15500 -2.52252 2.09619
v -0.22014 -0.12758 2.25547
v -0.22241 -2.52252 2.25500
v -0.15554 -0.12758 2.41539
v -0.15647 -2.52252 2.41629
# 18 verticies
vt 0.05221 0.30034
vt 0.10142 0.30033
vt 0.05258 0.00972
vt 0.10180 0.00970
vt 0.10193 0.30032
vt 0.10150 0.00969
vt 0.05249 0.30026
vt 0.05251 0.00963
vt 0.10118 0.30018
vt 0.10167 0.00955
vt 0.18514 0.53658
vt 0.21673 0.53662
vt 0.20063 0.56926
# 13 texture verticies
vn 0.54622 -0.63060 -0.55135
vn -0.00000 -0.63020 -0.77643
vn 0.54902 0.62780 -0.55176
vn 0.00000 0.62591 -0.77990
vn 0.77689 -0.62962 -0.00529
vn 0.77912 0.62683 -0.00681
vn 0.55463 -0.63116 0.54224
vn 0.55669 0.62713 0.54479
vn 0.00000 -0.62710 0.77894
vn 0.00000 0.62479 0.78079
vn 0.00000 -1.00000 0.00000
vn 0.00000 1.00000 0.00007
vn -0.54622 -0.63060 -0.55135
vn -0.54903 0.62780 -0.55176
vn -0.77689 -0.62962 -0.00529
vn -0.77913 0.62683 -0.00681
vn -0.55463 -0.63116 0.54224
vn -0.55670 0.62713 0.54479
# 18 normals
f  94/115/193 93/116/194 92/117/195
f  92/117/195 93/116/194 95/118/196
f  97/119/197 94/115/193 96/120/198
f  96/120/198 94/115/193 92/117/195
f  99/121/199 97/119/197 98/122/200
f  98/122/200 97/119/197 96/120/198
f  100/123/201 99/121/199 98/122/200
f  100/123/201 98/122/200 101/124/202
f  93/125/194 94/126/193 102/127/203
f  94/126/193 97/125/197 102/127/203
f  97/125/197 99/126/199 102/127/203
f  99/126/199 100/125/201 102/127/203
f  92/126/195 95/125/196 103/127/204
f  96/125/198 92/126/195 103/127/204
f  98/126/200 96/125/198 103/127/204
f  101/125/202 98/126/200 103/127/204
f  105/115/205 104/117/206 93/116/194
f  104/117/206 95/118/196 93/116/194
f  107/119/207 106/120/208 105/115/205
f  106/120/208 104/117/206 105/115/205
f  109/121/209 108/122/210 107/119/207
f  108/122/210 106/120/208 107/119/207
f  100/123/201 108/122/210 109/121/209
f  100/123/201 101/124/202 108/122/210
f  93/125/194 102/127/203 105/126/205
f  105/126/205 102/127/203 107/125/207
f  107/125/207 102/127/203 109/126/209
f  109/126/209 102/127/203 100/125/201
f  104/126/206 103/127/204 95/125/196
f  106/125/208 103/127/204 104/126/206
f  108/126/210 103/127/204 106/125/208
f  101/125/202 103/127/204 108/126/210
