# 
# Wavefront OBJ file
# Converted by the DEEP Exploration Deep Exploration 6.0 6.0.2.6082 Release
# Right Hemisphere, LTD
# http://www.righthemisphere.com/
# 
mtllib comm-tower-03.mtl
# object comm-tower-03
g comm_tower_03
v 0.52491 -1.27290 -0.10650
v 0.00000 -0.00000 -0.10650
v 0.00000 -1.27290 -0.10650
v 1.40730 -0.66286 -0.10650
v 0.00000 -1.00288 0.59919
v 0.41307 -1.00288 0.59919
v 1.50736 -0.00000 -0.10650
v 1.23735 -0.00000 0.59919
v 1.13729 -0.52151 0.59919
v 0.00000 -0.00000 0.85772
v 1.53934 -1.05745 0.69932
v 1.58161 -1.85784 -0.12456
v 1.18534 -1.41108 0.70181
v 1.99669 -1.44291 -0.12456
v 1.01634 -1.38901 0.41117
v 1.25794 -1.67504 -0.12831
v 1.52658 -0.87806 0.41590
v 1.82394 -1.10952 -0.12831
v 0.95025 -0.41405 0.90996
v 0.52491 -0.83922 0.91025
v 0.94296 -0.26581 0.61823
v 0.35955 -0.84901 0.61876
v 0.52491 1.27289 -0.10650
v 0.00000 1.27289 -0.10650
v 1.40730 0.66285 -0.10650
v 0.41307 1.00287 0.59919
v 0.00000 1.00288 0.59919
v 1.13729 0.52150 0.59919
v 0.00000 0.12311 1.65940
v 1.65730 -0.16658 2.08881
v 1.32717 -1.05867 1.50286
v 0.00000 -1.32597 1.06262
v 1.46836 -0.99282 1.33265
v 1.80022 -0.00514 1.98069
v 0.00000 -1.28858 0.88655
v 1.33101 0.50388 2.60276
v 1.18808 0.35042 2.69859
v 0.00000 0.76033 2.88591
v 0.00000 0.94086 2.81157
v 0.00000 0.25714 1.49543
v 0.07127 -1.10085 3.00770
v 0.00000 -1.09176 3.04938
v 0.11383 0.60530 2.43089
v 0.00000 0.64471 2.51643
v 0.00000 -1.13690 2.94068
v 0.00000 0.55517 2.34025
v 0.16673 -1.35075 3.16524
v 0.22578 -1.11258 3.03770
v 0.27257 -1.34676 2.80793
v 0.19035 -1.49678 3.00183
v 0.00000 -1.31592 3.23620
v 0.00000 -0.97472 3.06133
v 0.00000 -1.31008 2.69848
v 0.00000 -1.53992 2.98516
v 0.07397 -1.28735 2.86107
v 0.90824 -0.42592 1.62665
v 0.00000 -1.22753 2.87051
v 1.00204 -0.53674 1.58411
v 0.99670 -0.36993 1.69894
v 0.07397 -1.18359 2.92220
v 0.13237 -1.24962 2.90802
v 1.08568 -0.45959 1.68382
v 0.00000 0.59352 1.21302
v 0.00000 0.26227 0.60775
v 0.24960 0.56083 1.19362
v 0.31743 0.28789 0.60885
v 0.00000 0.31147 1.80662
v 0.24960 0.32270 1.67545
v 0.00000 -0.37960 0.61033
v 0.32562 -0.27343 0.61328
v -0.52491 -1.27290 -0.10650
v -1.40730 -0.66286 -0.10650
v -0.41307 -1.00288 0.59919
v -1.50736 -0.00000 -0.10650
v -1.23735 -0.00000 0.59919
v -1.13729 -0.52151 0.59919
v -1.53934 -1.05745 0.69932
v -1.18534 -1.41108 0.70181
v -1.58161 -1.85784 -0.12456
v -1.99669 -1.44291 -0.12456
v -1.01634 -1.38901 0.41117
v -1.25794 -1.67504 -0.12831
v -1.82394 -1.10952 -0.12831
v -1.52658 -0.87806 0.41590
v -0.95025 -0.41405 0.90996
v -0.52491 -0.83922 0.91025
v -0.94296 -0.26581 0.61823
v -0.35955 -0.84901 0.61876
v -0.52491 1.27289 -0.10650
v -1.40730 0.66285 -0.10650
v -0.41307 1.00287 0.59919
v -1.13729 0.52150 0.59919
v -1.32717 -1.05867 1.50286
v -1.65730 -0.16658 2.08881
v -1.46836 -0.99282 1.33265
v -1.80022 -0.00514 1.98069
v -1.33101 0.50388 2.60276
v -1.18808 0.35042 2.69859
v -0.07127 -1.10085 3.00770
v -0.11383 0.60530 2.43089
v -0.16673 -1.35075 3.16524
v -0.27257 -1.34676 2.80793
v -0.22578 -1.11258 3.03770
v -0.19035 -1.49678 3.00183
v -0.07397 -1.28735 2.86107
v -0.90824 -0.42592 1.62665
v -1.00204 -0.53674 1.58411
v -0.07397 -1.18359 2.92220
v -0.99670 -0.36993 1.69894
v -0.13237 -1.24962 2.90802
v -1.08568 -0.45959 1.68382
v -0.24960 0.56083 1.19362
v -0.31743 0.28789 0.60885
v -0.24960 0.32270 1.67545
v -0.32562 -0.27343 0.61328
v -0.27046 1.53308 0.69932
v 0.26561 2.12892 -0.12456
v 0.22991 1.53282 0.70181
v -0.32129 2.12903 -0.12456
v 0.33380 1.39770 0.41117
v 0.36522 1.77080 -0.12831
v -0.38829 1.39721 0.41590
v -0.43489 1.77114 -0.12831
v -0.30886 0.66157 0.90996
v 0.29254 0.66146 0.91025
v -0.40853 0.55159 0.61823
v 0.41639 0.55145 0.61876
# 127 verticies
vt 0.19235 0.48964
vt 0.19144 0.67039
vt 0.28250 0.48848
vt 0.31054 0.16119
vt 0.18769 0.05035
vt 0.26941 0.04988
vt 0.21284 0.16103
vt -0.06320 0.05194
vt 0.00351 0.16215
vt -0.10154 0.16101
vt 0.02260 0.05124
vt 0.14724 -0.05021
vt 0.06469 -0.04977
vt -0.35541 0.76004
vt -0.58072 0.77067
vt -0.35465 0.63286
vt -0.58008 0.62346
vt -0.02194 0.29428
vt -0.02330 0.38664
vt 0.15861 0.29557
vt 0.15744 0.38572
vt -0.35541 0.63343
vt -0.58072 0.62280
vt -0.35465 0.76061
vt -0.58008 0.77001
vt 0.24826 0.12882
vt 0.25428 0.08999
vt 0.15057 0.12791
vt 0.14941 0.09128
vt 0.10328 0.77166
vt 0.10464 0.67930
vt 0.28403 0.77074
vt 0.28519 0.68059
vt 0.17242 0.05914
vt 0.32210 0.05913
vt 0.32104 -0.14088
vt 0.01491 0.52248
vt 0.10590 0.52308
vt 0.10565 0.50330
vt 0.01309 0.50344
vt 0.15942 -0.12911
vt 0.00974 -0.12911
vt 0.15836 -0.32913
vt 0.22946 0.88975
vt 0.57789 0.86498
vt 0.57810 0.88941
vt 0.22916 0.86460
vt 0.40398 0.03445
vt 0.40844 0.04734
vt 0.40037 0.04757
vt -0.54055 0.12914
vt -0.48691 0.12914
vt -0.48691 0.05092
vt -0.54042 0.05092
vt 0.06568 0.72696
vt 0.01204 0.76928
vt 0.01204 0.72696
vt 0.06556 0.76928
vt 0.23703 0.00311
vt 0.15560 0.00311
vt 0.18352 0.03474
vt 0.23703 0.04543
vt 0.18551 0.07575
vt 0.18520 0.05060
vt 0.08686 0.77709
vt 0.20983 0.56117
vt 0.20983 0.77709
vt 0.08015 0.56117
vt 0.11117 0.77878
vt 0.02708 0.62520
vt 0.02708 0.77878
vt 0.11117 0.62520
vt 0.28085 0.77709
vt 0.19390 0.55583
vt 0.19390 0.77709
vt 0.28126 0.55583
vt 0.02775 0.22316
vt -0.13852 0.36541
vt 0.02775 0.16622
vt 0.27770 0.77709
vt 0.28441 0.48460
vt 0.08351 0.77709
vt 0.08351 0.56117
vt -0.06845 0.16622
vt -0.13852 0.16622
# 85 texture verticies
vn 0.00000 0.00000 -1.00000
vn 0.00000 0.00000 -1.00000
vn 0.00000 0.00000 -1.00000
vn 0.00000 -0.93397 0.35735
vn 0.26629 -0.88729 0.37657
vn 0.00000 -0.93397 0.35736
vn 0.28055 -0.88078 0.38146
vn 0.92742 0.00000 0.37403
vn 0.84162 -0.53019 -0.10283
vn 0.84612 0.00000 -0.53300
vn 0.75913 -0.51799 0.39421
vn 0.00000 0.00000 1.00000
vn 0.00000 -0.24962 0.96834
vn 0.07033 -0.22174 0.97257
vn 0.20452 0.00000 0.97886
vn 0.17295 -0.10814 0.97898
vn 0.39348 -0.38924 0.83287
vn 0.57354 -0.57266 0.58576
vn 0.39752 -0.39274 0.82930
vn 0.57282 -0.57304 0.58609
vn -0.48025 -0.84555 0.23324
vn -0.48353 -0.84481 0.22912
vn -0.52638 -0.81149 0.25378
vn -0.53989 -0.80283 0.25296
vn 0.85201 0.44458 0.27646
vn 0.80481 0.51837 0.28909
vn 0.85111 0.45065 0.26932
vn 0.79547 0.52758 0.29813
vn -0.38549 0.38739 0.83745
vn -0.39985 0.40060 0.82440
vn 0.73872 0.60816 0.29057
vn 0.74084 0.60116 0.29961
vn -0.53520 -0.77771 0.32973
vn -0.54474 -0.77586 0.31829
vn -0.66136 0.66187 0.35290
vn -0.66133 0.66187 0.35295
vn -0.58255 0.58305 -0.56629
vn -0.58083 0.58342 -0.56768
vn -0.39967 0.40551 -0.82209
vn -0.39524 0.39985 -0.82698
vn 0.00742 -0.00742 -0.99995
vn 0.00741 -0.00742 -0.99995
vn 0.00741 -0.00742 -0.99995
vn 0.00741 -0.00742 -0.99995
vn -0.16497 0.16838 -0.97182
vn -0.16884 0.16801 -0.97122
vn -0.00000 -0.00000 -1.00000
vn 0.00000 0.00000 -1.00000
vn 0.00000 0.93397 0.35735
vn 0.00000 0.93397 0.35735
vn 0.26629 0.88729 0.37657
vn 0.28055 0.88078 0.38146
vn 0.84162 0.53019 -0.10283
vn 0.75913 0.51799 0.39421
vn 0.07033 0.22174 0.97257
vn 0.00000 0.24962 0.96834
vn 0.17295 0.10814 0.97898
vn -0.26435 -0.41235 0.87183
vn -0.29524 -0.64702 0.70299
vn 0.00000 -0.67500 0.73782
vn 0.00000 -0.38081 0.92466
vn 0.73888 -0.53903 0.40437
vn 0.80553 -0.48964 0.33374
vn 0.25698 -0.94534 -0.20075
vn 0.24338 -0.95532 -0.16772
vn 0.25667 0.32857 0.90893
vn 0.26073 0.36760 0.89269
vn -0.25405 -0.84264 0.47478
vn 0.00000 -0.88739 0.46103
vn 0.71197 -0.17483 0.68009
vn 0.68582 -0.20215 0.69913
vn 0.28391 0.65763 -0.69780
vn 0.25417 0.41251 -0.87478
vn 0.00000 0.67020 -0.74218
vn 0.00000 0.36651 -0.93041
vn 0.23808 0.84719 -0.47495
vn 0.00000 0.88740 -0.46100
vn 0.81896 0.54165 -0.18952
vn 0.00000 0.30625 0.95195
vn 0.99348 0.01883 0.11240
vn 0.00000 0.84841 0.52933
vn 0.00000 0.20101 -0.97959
vn 0.00000 -0.33442 -0.94243
vn 0.00000 -0.92354 0.38351
vn 0.10585 -0.91835 0.38136
vn 0.95252 -0.11770 0.28080
vn 0.95555 -0.08583 0.28206
vn 0.95265 -0.11650 0.28085
vn 0.94715 -0.15879 0.27875
vn 0.37175 0.40340 0.83610
vn 0.00000 0.45611 0.88993
vn 0.00000 0.41549 0.90960
vn 0.42755 0.34210 0.83676
vn 0.00000 -0.80108 -0.59856
vn 0.12183 -0.80935 -0.57456
vn 0.18243 -0.78212 -0.59583
vn -0.00000 -0.78022 -0.62551
vn 0.00000 0.73600 -0.67698
vn 0.35122 0.68844 -0.63458
vn 0.34746 0.69118 -0.63367
vn 0.00000 0.73438 -0.67874
vn 0.00000 -0.74135 0.67112
vn 0.10751 -0.73357 0.67105
vn 0.12031 -0.73806 0.66392
vn 0.00000 -0.74613 0.66580
vn 0.00000 0.43784 -0.89905
vn -0.51237 0.51601 -0.68645
vn -0.03463 -0.83632 -0.54715
vn 0.28248 -0.41186 -0.86636
vn -0.06240 0.85207 0.51969
vn 0.25143 0.96774 0.01649
vn -0.31378 -0.48199 0.81806
vn -0.31362 -0.48202 0.81811
vn 0.00000 -0.50763 0.86158
vn 0.98864 0.13646 -0.06303
vn 0.83827 -0.31969 0.44170
vn -0.34267 -0.47689 0.80942
vn 0.03889 0.88351 -0.46679
vn 0.00000 0.89711 -0.44180
vn 0.00000 0.87722 -0.48008
vn -0.07120 0.90067 -0.42864
vn 0.17493 0.88786 0.42556
vn 0.00000 0.89839 0.43920
vn 0.00000 0.90322 0.42917
vn 0.15014 0.88633 0.43804
vn 0.27033 -0.83331 0.48220
vn 0.00000 -0.86329 0.50470
vn 0.00000 -0.86590 0.50022
vn 0.29143 -0.82514 0.48395
vn 0.01157 -0.00772 -0.99990
vn 0.00000 -0.00641 -0.99998
vn 0.00616 -0.00515 -0.99997
vn 0.99715 0.06761 0.03342
vn 0.99635 0.03743 0.07670
vn 0.99716 0.05543 0.05093
vn 0.99402 0.01535 0.10813
vn 0.00000 -0.00402 -0.99999
vn -0.26629 -0.88729 0.37657
vn -0.28055 -0.88078 0.38146
vn -0.84162 -0.53019 -0.10283
vn -0.92742 0.00000 0.37403
vn -0.84612 -0.00000 -0.53300
vn -0.75913 -0.51799 0.39421
vn -0.07033 -0.22174 0.97257
vn -0.20452 0.00000 0.97886
vn -0.17295 -0.10814 0.97898
vn -0.57354 -0.57266 0.58576
vn -0.39348 -0.38924 0.83287
vn -0.39752 -0.39274 0.82930
vn -0.57282 -0.57304 0.58609
vn 0.48353 -0.84481 0.22912
vn 0.48025 -0.84555 0.23324
vn 0.52638 -0.81149 0.25378
vn 0.53989 -0.80283 0.25296
vn -0.80481 0.51837 0.28909
vn -0.85201 0.44458 0.27646
vn -0.85111 0.45065 0.26932
vn -0.79547 0.52758 0.29813
vn 0.38549 0.38739 0.83745
vn 0.39985 0.40060 0.82440
vn -0.74084 0.60116 0.29961
vn -0.73872 0.60816 0.29057
vn 0.53520 -0.77771 0.32973
vn 0.54474 -0.77586 0.31829
vn 0.66136 0.66187 0.35290
vn 0.66133 0.66187 0.35295
vn 0.58083 0.58342 -0.56768
vn 0.58255 0.58305 -0.56629
vn 0.39967 0.40551 -0.82209
vn 0.39524 0.39985 -0.82698
vn -0.00741 -0.00742 -0.99995
vn -0.00742 -0.00742 -0.99995
vn -0.00741 -0.00742 -0.99995
vn -0.00741 -0.00742 -0.99995
vn 0.16497 0.16838 -0.97182
vn 0.16884 0.16801 -0.97122
vn -0.26629 0.88729 0.37657
vn -0.28055 0.88078 0.38146
vn -0.84162 0.53019 -0.10283
vn -0.75913 0.51799 0.39421
vn -0.07033 0.22174 0.97257
vn -0.17295 0.10814 0.97898
vn 0.29524 -0.64702 0.70299
vn 0.26435 -0.41235 0.87183
vn -0.73888 -0.53903 0.40437
vn -0.80553 -0.48964 0.33374
vn -0.25698 -0.94534 -0.20075
vn -0.24338 -0.95532 -0.16772
vn -0.25667 0.32857 0.90893
vn -0.26073 0.36760 0.89269
vn 0.25405 -0.84264 0.47478
vn -0.71197 -0.17483 0.68009
vn -0.68582 -0.20215 0.69913
vn -0.25417 0.41251 -0.87478
vn -0.28391 0.65763 -0.69780
vn -0.23808 0.84719 -0.47495
vn -0.81896 0.54165 -0.18952
vn -0.99348 0.01883 0.11240
vn -0.10585 -0.91835 0.38136
vn -0.95555 -0.08583 0.28206
vn -0.95252 -0.11770 0.28080
vn -0.95265 -0.11650 0.28085
vn -0.94715 -0.15879 0.27875
vn -0.37175 0.40340 0.83610
vn -0.42755 0.34210 0.83676
vn -0.12183 -0.80935 -0.57456
vn -0.18243 -0.78212 -0.59583
vn -0.35122 0.68844 -0.63458
vn -0.34746 0.69118 -0.63367
vn -0.10751 -0.73357 0.67105
vn -0.12031 -0.73806 0.66392
vn 0.51237 0.51601 -0.68645
vn 0.03463 -0.83632 -0.54715
vn -0.28248 -0.41186 -0.86636
vn -0.25143 0.96774 0.01649
vn 0.06240 0.85207 0.51969
vn 0.31362 -0.48202 0.81811
vn 0.31378 -0.48199 0.81806
vn -0.98864 0.13646 -0.06303
vn -0.83827 -0.31969 0.44170
vn 0.34267 -0.47689 0.80942
vn -0.03889 0.88351 -0.46679
vn 0.07120 0.90067 -0.42864
vn -0.17493 0.88786 0.42556
vn -0.15014 0.88633 0.43804
vn -0.27033 -0.83331 0.48220
vn -0.29143 -0.82514 0.48395
vn -0.01157 -0.00772 -0.99990
vn -0.00616 -0.00515 -0.99997
vn -0.99635 0.03743 0.07670
vn -0.99715 0.06761 0.03342
vn -0.99716 0.05543 0.05093
vn -0.99402 0.01535 0.10813
vn -0.00300 0.55347 0.83287
vn -0.00062 0.81049 0.58575
vn -0.00337 0.55880 0.82930
vn 0.00015 0.81025 0.58609
vn 0.93748 0.25831 0.23324
vn 0.93928 0.25546 0.22912
vn 0.94602 0.20160 0.25378
vn 0.94944 0.18592 0.25296
vn -0.91683 0.28810 0.27645
vn -0.93563 0.20255 0.28909
vn -0.92048 0.28317 0.26932
vn -0.93554 0.18942 0.29813
vn -0.00134 -0.54651 0.83745
vn -0.00053 -0.56600 0.82440
vn -0.95239 0.09232 0.29057
vn -0.94894 0.09876 0.29961
vn 0.92837 0.17149 0.32973
vn 0.93380 0.16343 0.31829
vn -0.00036 -0.93566 0.35290
vn -0.00039 -0.93564 0.35295
vn -0.00035 -0.82421 -0.56629
vn -0.00183 -0.82325 -0.56768
vn -0.00414 -0.56935 -0.82209
vn -0.00326 -0.56222 -0.82698
vn 0.00000 0.01049 -0.99994
vn 0.00000 0.01048 -0.99995
vn 0.00000 0.01049 -0.99995
vn 0.00000 0.01048 -0.99995
vn -0.00241 -0.23571 -0.97182
vn 0.00058 -0.23819 -0.97122
# 263 normals
usemtl turret_01
f  3/1/1 2/2/2 1/3/3
f  1/3/3 2/2/2 4/1/3
f  3/4/4 6/5/5 5/6/6
f  6/5/5 3/4/4 1/7/7
f  8/8/8 4/9/9 7/10/10
f  4/9/9 8/8/8 9/11/11
f  4/9/9 6/5/5 1/7/7
f  6/5/5 4/9/9 9/11/11
f  10/12/12 5/6/13 6/5/14
f  8/8/15 10/13/12 9/11/16
f  9/11/16 10/12/12 6/5/14
f  13/14/17 12/15/18 11/16/19
f  14/17/20 11/16/19 12/15/18
f  16/18/21 12/19/22 15/20/23
f  13/21/24 15/20/23 12/19/22
f  18/18/25 17/20/26 14/19/27
f  11/21/28 14/19/27 17/20/26
f  11/22/19 19/23/29 13/24/17
f  20/25/30 13/24/17 19/23/29
f  21/18/31 19/19/32 17/20/26
f  11/21/28 17/20/26 19/19/32
f  22/18/33 15/20/23 20/19/34
f  13/21/24 20/19/34 15/20/23
f  19/26/29 21/27/35 20/28/30
f  22/29/36 20/28/30 21/27/35
f  18/30/37 16/31/38 17/32/39
f  15/33/40 17/32/39 16/31/38
f  14/31/41 12/30/42 18/33/43
f  16/32/44 18/33/43 12/30/42
f  17/32/39 15/33/40 21/30/45
f  22/31/46 21/30/45 15/33/40
f  4/1/9 2/2/2 7/3/10
f  24/1/47 23/3/48 2/2/2
f  23/3/48 25/1/48 2/2/2
f  24/4/49 27/6/50 26/5/51
f  26/5/51 23/7/52 24/4/49
f  8/8/8 7/10/10 25/9/53
f  25/9/53 28/11/54 8/8/8
f  25/9/53 23/7/52 26/5/51
f  26/5/51 28/11/54 25/9/53
f  10/12/12 26/5/55 27/6/56
f  8/8/15 28/11/57 10/13/12
f  28/11/57 26/5/55 10/12/12
f  25/1/53 7/3/10 2/2/2
f  31/34/58 30/35/59 29/36/60
f  29/36/60 32/35/61 31/34/58
f  30/37/62 31/38/62 33/39/62
f  33/39/63 34/40/63 30/37/63
f  31/38/64 32/37/64 35/40/64
f  35/40/65 33/39/65 31/38/65
f  38/37/66 37/38/66 36/39/66
f  36/39/67 39/40/67 38/37/67
f  29/36/60 30/35/59 37/34/68
f  37/34/68 38/35/69 29/36/60
f  30/37/70 34/40/70 36/39/70
f  36/39/71 37/38/71 30/37/71
f  34/41/72 33/42/73 40/43/74
f  35/41/75 40/43/74 33/42/73
f  34/41/72 40/43/74 36/42/76
f  39/41/77 36/42/76 40/43/74
f  43/44/78 42/45/79 41/46/80
f  43/44/78 44/47/81 42/45/79
f  46/47/82 41/46/80 45/45/83
f  46/47/82 43/44/78 41/46/80
f  45/48/84 41/49/85 42/50/84
f  49/51/86 48/52/87 47/53/88
f  49/51/86 47/53/88 50/54/89
f  48/52/90 52/51/91 51/54/92
f  48/52/90 51/54/92 47/53/93
f  53/52/94 49/51/95 50/54/96
f  53/52/94 50/54/96 54/53/97
f  53/55/98 48/56/99 49/57/100
f  52/58/101 48/56/99 53/55/98
f  54/59/102 50/60/103 47/61/104
f  51/62/105 54/59/102 47/61/104
f  44/47/81 43/44/78 46/63/82
f  57/46/106 56/44/107 55/45/108
f  55/45/108 56/44/107 58/47/109
f  60/45/110 59/47/111 57/46/106
f  57/46/106 59/47/111 56/44/107
f  55/50/112 60/48/113 57/49/114
f  55/45/108 62/44/115 61/46/116
f  58/47/109 62/44/115 55/45/108
f  61/46/116 59/47/111 60/45/110
f  62/44/115 59/47/111 61/46/116
f  61/49/117 60/48/113 55/50/112
f  56/64/107 59/63/111 58/47/109
f  62/44/115 58/47/109 59/63/111
f  65/65/118 64/66/119 63/67/120
f  66/68/121 64/66/119 65/65/118
f  68/69/122 63/70/123 67/71/124
f  65/72/125 63/70/123 68/69/122
f  70/73/126 67/74/127 69/75/128
f  68/76/129 67/74/127 70/73/126
f  70/77/130 69/78/131 66/79/132
f  68/80/133 70/81/134 65/82/135
f  66/83/136 65/82/135 70/81/134
f  66/84/132 69/78/131 64/85/137
f  2/2/2 3/1/1 71/3/1
f  2/2/2 71/3/1 72/1/1
f  73/5/138 3/4/4 5/6/6
f  3/4/4 73/5/138 71/7/139
f  72/9/140 75/8/141 74/10/142
f  75/8/141 72/9/140 76/11/143
f  73/5/138 72/9/140 71/7/139
f  72/9/140 73/5/138 76/11/143
f  5/6/13 10/12/12 73/5/144
f  10/13/12 75/8/145 76/11/146
f  10/12/12 76/11/146 73/5/144
f  79/15/147 78/14/148 77/16/149
f  77/16/149 80/17/150 79/15/147
f  79/19/151 82/18/152 81/20/153
f  81/20/153 78/21/154 79/19/151
f  84/20/155 83/18/156 80/19/157
f  80/19/157 77/21/158 84/20/155
f  85/23/159 77/22/149 78/24/148
f  78/24/148 86/25/160 85/23/159
f  85/19/161 87/18/162 84/20/155
f  84/20/155 77/21/158 85/19/161
f  81/20/153 88/18/163 86/19/164
f  86/19/164 78/21/154 81/20/153
f  87/27/165 85/26/159 86/28/160
f  86/28/160 88/29/166 87/27/165
f  82/31/167 83/30/168 84/32/169
f  84/32/169 81/33/170 82/31/167
f  79/30/171 80/31/172 83/33/173
f  83/33/173 82/32/174 79/30/171
f  81/33/170 84/32/169 87/30/175
f  87/30/175 88/31/176 81/33/170
f  2/2/2 72/1/140 74/3/142
f  89/3/47 24/1/47 2/2/2
f  90/1/47 89/3/47 2/2/2
f  27/6/50 24/4/49 91/5/177
f  89/7/178 91/5/177 24/4/49
f  74/10/142 75/8/141 90/9/179
f  92/11/180 90/9/179 75/8/141
f  89/7/178 90/9/179 91/5/177
f  92/11/180 91/5/177 90/9/179
f  91/5/181 10/12/12 27/6/56
f  92/11/182 75/8/145 10/13/12
f  91/5/181 92/11/182 10/12/12
f  74/3/142 90/1/179 2/2/2
f  94/35/183 93/34/184 29/36/60
f  32/35/61 29/36/60 93/34/184
f  93/38/185 94/37/185 95/39/185
f  96/40/186 95/39/186 94/37/186
f  32/37/187 93/38/187 35/40/187
f  95/39/188 35/40/188 93/38/188
f  98/38/189 38/37/189 97/39/189
f  39/40/190 97/39/190 38/37/190
f  94/35/183 29/36/60 98/34/191
f  38/35/69 98/34/191 29/36/60
f  96/40/192 94/37/192 97/39/192
f  98/38/193 97/39/193 94/37/193
f  95/42/194 96/41/195 40/43/74
f  40/43/74 35/41/75 95/42/194
f  40/43/74 96/41/195 97/42/196
f  97/42/196 39/41/77 40/43/74
f  42/45/79 100/44/197 99/46/198
f  44/47/81 100/44/197 42/45/79
f  99/46/198 46/47/82 45/45/83
f  100/44/197 46/47/82 99/46/198
f  99/49/199 45/48/84 42/50/84
f  103/52/200 102/51/201 101/53/202
f  101/53/202 102/51/201 104/54/203
f  52/51/91 103/52/204 51/54/92
f  51/54/92 103/52/204 101/53/205
f  102/51/206 53/52/94 104/54/207
f  104/54/207 53/52/94 54/53/97
f  103/56/208 53/55/98 102/57/209
f  103/56/208 52/58/101 53/55/98
f  104/60/210 54/59/102 101/61/211
f  54/59/102 51/62/105 101/61/211
f  100/44/197 44/47/81 46/63/82
f  106/44/212 57/46/106 105/45/213
f  106/44/212 105/45/213 107/47/214
f  109/47/215 108/45/216 57/46/106
f  109/47/215 57/46/106 106/44/212
f  108/48/217 105/50/218 57/49/114
f  111/44/219 105/45/213 110/46/220
f  111/44/219 107/47/214 105/45/213
f  109/47/215 110/46/220 108/45/216
f  109/47/215 111/44/219 110/46/220
f  108/48/217 110/49/221 105/50/218
f  109/63/215 106/64/212 107/47/214
f  107/47/214 111/44/219 109/63/215
f  64/66/119 112/65/222 63/67/120
f  64/66/119 113/68/223 112/65/222
f  63/70/123 114/69/224 67/71/124
f  63/70/123 112/72/225 114/69/224
f  67/74/127 115/73/226 69/75/128
f  67/74/127 114/76/227 115/73/226
f  69/78/131 115/77/228 113/79/229
f  115/81/230 114/80/231 112/82/232
f  112/82/232 113/83/233 115/81/230
f  69/78/131 113/84/229 64/85/137
f  118/14/234 117/15/235 116/16/236
f  119/17/237 116/16/236 117/15/235
f  121/18/238 117/19/239 120/20/240
f  118/21/241 120/20/240 117/19/239
f  123/18/242 122/20/243 119/19/244
f  116/21/245 119/19/244 122/20/243
f  116/22/236 124/23/246 118/24/234
f  125/25/247 118/24/234 124/23/246
f  126/18/248 124/19/249 122/20/243
f  116/21/245 122/20/243 124/19/249
f  127/18/250 120/20/240 125/19/251
f  118/21/241 125/19/251 120/20/240
f  124/26/246 126/27/252 125/28/247
f  127/29/253 125/28/247 126/27/252
f  123/30/254 121/31/255 122/32/256
f  120/33/257 122/32/256 121/31/255
f  119/31/258 117/30/259 123/33/260
f  121/32/261 123/33/260 117/30/259
f  122/32/256 120/33/257 126/30/262
f  127/31/263 126/30/262 120/33/257
