# 
# Wavefront OBJ file
# Converted by the DEEP Exploration Deep Exploration 6.0 6.0.2.6082 Release
# Right Hemisphere, LTD
# http://www.righthemisphere.com/
# 
mtllib comm-tower-04.mtl
# object comm-tower-04
g comm_tower_04
v -0.00475 0.11799 1.57446
v 1.07521 -0.18138 1.88990
v 0.91032 -0.53737 1.26651
v -0.00475 -0.65912 0.86008
v 1.02887 -0.37181 1.08328
v 1.19520 0.05471 1.77132
v -0.00475 -0.53590 0.66477
v 0.90382 0.40412 2.27261
v 0.78382 0.17633 2.38212
v -0.00475 0.35474 2.56920
v -0.00475 0.60197 2.48124
v -0.00475 0.33913 1.40584
v -0.00475 0.70017 1.31980
v -0.00475 0.64989 0.56347
v 0.20480 0.61724 1.25681
v 0.26175 0.56648 0.60711
v -0.00475 0.23411 1.60462
v 0.20480 0.29715 1.46371
v -0.00475 -0.05986 0.60835
v 0.26862 0.02928 0.61082
v 0.59483 -1.02009 -0.11370
v -0.00475 0.01001 -0.11369
v -0.00475 -1.12290 -0.11370
v 1.17135 -0.28530 -0.11369
v -0.00475 -0.89620 0.54790
v 0.50094 -0.79340 0.54790
v 0.94466 -0.22136 0.54790
v -0.00475 0.01001 0.76494
v 0.61001 0.94017 -0.11370
v -0.00475 1.07868 -0.11370
v 1.13056 0.42234 -0.11370
v 0.51611 0.71347 0.54790
v -0.00475 0.85199 0.54790
v 0.90387 0.32844 0.54790
v -0.91983 -0.53737 1.26651
v -1.08471 -0.18138 1.88990
v -1.03837 -0.37181 1.08328
v -1.20471 0.05471 1.77132
v -0.91332 0.40412 2.27261
v -0.79333 0.17633 2.38212
v -0.21431 0.61724 1.25681
v -0.27125 0.56648 0.60711
v -0.21431 0.29715 1.46371
v -0.27813 0.02928 0.61082
v 0.06885 0.16492 1.66448
v 0.08228 -1.87633 2.60194
v 0.03120 -1.83526 2.67770
v 0.14354 0.10272 1.54966
v -0.15521 0.08406 1.55958
v -0.05759 -1.83526 2.67770
v -0.10339 -1.87634 2.60194
v -0.08052 0.14662 1.67503
v -0.01537 -1.90276 2.61599
v 0.06885 0.04231 1.43388
v 0.03120 -1.91617 2.52552
v -0.05759 -1.91618 2.52553
v -0.08052 0.02333 1.44316
v -0.53829 -0.70666 1.37632
v -0.75922 -0.45633 1.84712
v -0.00692 -0.74125 1.99861
v -0.00492 -0.81038 1.18125
v 0.52846 -0.70666 1.37632
v 0.74939 -0.45633 1.84712
v -0.00059 -0.26722 1.74657
v -0.53829 -0.20601 2.31791
v 0.52846 -0.20601 2.31791
v -0.00492 -0.10229 2.51298
v -0.44831 -1.10057 1.68774
v -0.63194 -0.89252 2.07904
v -0.00667 -1.13413 2.20750
v -0.00501 -1.18678 1.52562
v 0.43830 -1.10057 1.68774
v 0.62192 -0.89252 2.07904
v -0.44831 -0.68446 2.47033
v 0.43830 -0.68446 2.47033
v -0.00501 -0.59826 2.63246
v -0.37353 -1.43758 1.95169
v -0.52614 -1.26466 2.27691
v -0.01027 -1.46556 2.38373
v -0.00508 -1.50923 1.81694
v 0.36336 -1.43758 1.95169
v 0.51598 -1.26466 2.27691
v -0.37353 -1.09174 2.60213
v 0.36336 -1.09174 2.60213
v -0.00508 -1.02009 2.73688
v 0.00266 -2.23432 2.81594
v -0.26639 -2.00370 2.67737
v 0.00266 -1.86513 2.90799
v 0.00266 -2.14227 2.44675
v 0.27171 -2.00370 2.67737
v 0.00266 -1.77308 2.53880
v -0.44545 -1.05867 -0.11370
v -1.18086 -0.28530 -0.11369
v -0.35155 -0.83198 0.54790
v -0.95417 -0.22136 0.54790
v -0.61951 0.94017 -0.11370
v -1.14006 0.42234 -0.11370
v -0.52561 0.71347 0.54790
v -0.91337 0.32844 0.54790
# 99 verticies
vt 0.82269 -0.13646
vt 0.60716 -0.13646
vt 0.71122 0.12594
vt 0.01491 0.52248
vt 0.10590 0.52308
vt 0.10565 0.50330
vt 0.01309 0.50344
vt 0.15942 -0.12911
vt 0.00974 -0.12911
vt 0.15836 -0.32913
vt 0.08686 0.77709
vt 0.20983 0.56117
vt 0.20983 0.77709
vt 0.08015 0.56117
vt 0.11117 0.77878
vt 0.02708 0.62520
vt 0.02708 0.77878
vt 0.11117 0.62520
vt 0.28085 0.77709
vt 0.19390 0.55583
vt 0.19390 0.77709
vt 0.28126 0.55583
vt 0.02775 0.22316
vt -0.13852 0.36541
vt 0.02775 0.16622
vt 0.27770 0.77709
vt 0.28441 0.48460
vt 0.08351 0.77709
vt 0.08351 0.56117
vt -0.06845 0.16622
vt -0.13852 0.16622
vt 0.19235 0.48964
vt 0.19144 0.67039
vt 0.28250 0.48848
vt 0.32156 0.22430
vt 0.13360 0.01438
vt 0.26401 0.00559
vt 0.17746 0.22407
vt 0.40861 0.22309
vt 0.43781 0.01304
vt 0.22151 0.38815
vt 0.12468 0.73153
vt 0.21157 0.73240
vt 0.42302 0.73129
vt 0.02241 0.73024
vt 0.21054 0.73237
vt 0.21147 0.73240
vt 0.58508 0.52175
vt 0.58487 0.53211
vt 0.99310 0.52136
vt 0.99279 0.53245
vt 0.40037 0.04757
vt 0.40844 0.04734
vt 0.40398 0.03445
vt 0.04844 0.45150
vt 0.08326 0.53031
vt 0.01782 0.53031
vt -0.26900 0.72974
vt -0.20559 0.72974
vt -0.26900 0.67590
vt -0.33242 0.72974
vt -0.26900 0.79316
vt 0.21202 0.73242
vt 0.42185 0.73130
vt 0.02109 0.73030
vt 0.21168 0.73240
# 66 texture verticies
vn -0.30854 -0.72188 0.61943
vn -0.36070 -0.80514 0.47079
vn 0.00000 -0.85495 0.51870
vn 0.00000 -0.67677 0.73619
vn 0.84822 -0.52430 0.07504
vn 0.90032 -0.43230 0.05033
vn 0.32995 -0.79839 -0.50369
vn 0.33118 -0.79670 -0.50556
vn 0.28262 0.29060 0.91415
vn 0.27793 0.32199 0.90503
vn -0.27072 -0.90445 0.32966
vn 0.00000 -0.97283 0.23154
vn 0.81491 -0.13056 0.56469
vn 0.80216 -0.14397 0.57949
vn 0.33826 0.80869 -0.48126
vn 0.28613 0.70863 -0.64496
vn 0.00000 0.84494 -0.53486
vn 0.00000 0.64628 -0.76310
vn 0.25458 0.90722 -0.33488
vn 0.00000 0.97141 -0.23743
vn 0.34179 0.93791 -0.05914
vn 0.00000 0.99857 -0.05346
vn 0.00000 0.99780 -0.06633
vn 0.30544 0.95102 -0.04754
vn 0.39421 0.48395 0.78127
vn 0.00000 0.53526 0.84469
vn 0.00000 0.52146 0.85328
vn 0.42334 0.49181 0.76086
vn 0.31791 -0.90752 0.27449
vn 0.00000 -0.94716 0.32075
vn 0.00000 -0.95912 0.28300
vn 0.45304 -0.84028 0.29781
vn 0.01126 -0.00678 -0.99991
vn -0.00000 -0.02484 -0.99969
vn 0.11360 -0.05031 -0.99225
vn 0.99727 0.04010 0.06203
vn 0.99670 0.02244 0.07804
vn 0.99706 0.03157 0.06977
vn 0.99618 0.01334 0.08627
vn 0.00000 -0.06310 -0.99801
vn 0.00000 0.00000 -1.00000
vn 0.00000 0.00000 -1.00000
vn 0.00000 0.00000 -1.00000
vn 0.01188 -0.94167 0.33632
vn 0.50013 -0.79715 0.33826
vn 0.00859 -0.94597 0.32414
vn 0.47235 -0.81110 0.34496
vn 0.94632 -0.29338 -0.13566
vn 0.89896 -0.27716 0.33921
vn -0.00230 0.00693 0.99997
vn 0.00183 -0.23292 0.97249
vn 0.11779 -0.18922 0.97484
vn 0.20835 -0.06077 0.97616
vn -0.00000 -0.00000 -1.00000
vn 0.00000 0.94050 0.33979
vn 0.00000 0.94601 0.32415
vn 0.46753 0.81728 0.33686
vn 0.44653 0.82512 0.34610
vn 0.90345 0.40774 -0.13234
vn 0.85041 0.39505 0.34746
vn 0.12351 0.20794 0.97031
vn 0.00000 0.24962 0.96834
vn 0.20176 0.08911 0.97537
vn 0.36070 -0.80514 0.47079
vn 0.30854 -0.72188 0.61943
vn -0.84822 -0.52430 0.07504
vn -0.90032 -0.43230 0.05033
vn -0.32995 -0.79839 -0.50369
vn -0.33118 -0.79670 -0.50556
vn -0.28262 0.29060 0.91415
vn -0.27793 0.32199 0.90503
vn 0.27072 -0.90445 0.32966
vn -0.81491 -0.13056 0.56469
vn -0.80216 -0.14397 0.57949
vn -0.28613 0.70863 -0.64496
vn -0.33826 0.80869 -0.48126
vn -0.25458 0.90722 -0.33488
vn -0.34179 0.93791 -0.05914
vn -0.30544 0.95102 -0.04754
vn -0.39421 0.48395 0.78127
vn -0.42334 0.49181 0.76086
vn -0.31791 -0.90752 0.27449
vn -0.45304 -0.84028 0.29781
vn -0.01126 -0.00678 -0.99991
vn -0.11360 -0.05031 -0.99225
vn -0.99670 0.02244 0.07804
vn -0.99727 0.04010 0.06203
vn -0.99706 0.03157 0.06977
vn -0.99618 0.01334 0.08627
vn 0.49465 0.38505 0.77914
vn 0.99959 -0.02515 0.01337
vn 0.37067 0.87844 0.30158
vn 0.78215 0.54671 -0.29890
vn -0.99973 -0.02060 0.01095
vn -0.51600 0.38096 0.76722
vn -0.81972 0.50316 -0.27367
vn -0.44321 0.81411 0.37523
vn 0.29312 -0.84416 0.44885
vn 0.14321 -0.71975 0.67930
vn -0.01386 -0.88286 0.46943
vn -0.14848 -0.71628 0.68184
vn -0.32183 -0.83597 0.44449
vn 0.49466 -0.43062 -0.75491
vn 0.35341 0.27160 -0.89517
vn -0.51599 -0.42302 -0.74485
vn -0.43043 0.17189 -0.88611
vn 0.14320 -0.96565 0.21684
vn -0.14849 -0.96581 0.21253
vn -0.00105 -0.88295 0.46947
vn -0.39420 -0.81145 0.43146
vn -0.27850 -0.94237 0.18543
vn 0.27780 -0.94234 0.18661
vn 0.00018 -0.99644 0.08427
vn 0.39244 -0.81212 0.43181
vn -0.19258 0.75933 -0.62155
vn 0.00166 0.88295 -0.46947
vn -0.00027 0.72110 -0.69283
vn 0.19376 0.75801 -0.62280
vn 0.27460 0.84901 -0.45142
vn -0.27170 0.84973 -0.45181
vn -0.27850 -0.68069 0.67757
vn 0.00018 -0.62707 0.77896
vn 0.27780 -0.68166 0.67688
vn -0.00027 0.97762 -0.21039
vn -0.19258 0.93990 -0.28195
vn 0.19376 0.94020 -0.28015
vn -0.00106 -0.88295 0.46947
vn -0.40093 -0.80888 0.43009
vn -0.28325 -0.94203 0.17986
vn 0.28254 -0.94201 0.18107
vn 0.00018 -0.99703 0.07698
vn 0.39914 -0.80957 0.43045
vn -0.18672 0.76385 -0.61779
vn -0.00086 0.88295 -0.46947
vn 0.00014 0.72792 -0.68566
vn 0.18612 0.76452 -0.61714
vn 0.26286 0.85190 -0.45296
vn -0.26436 0.85154 -0.45277
vn -0.28325 -0.67589 0.68040
vn 0.00018 -0.62136 0.78353
vn 0.28254 -0.67688 0.67971
vn 0.00014 0.97549 -0.22006
vn -0.18673 0.93931 -0.28780
vn 0.18612 0.93915 -0.28872
vn -0.00399 -0.88294 0.46947
vn -0.40355 -0.80786 0.42955
vn -0.28434 -0.94204 0.17808
vn 0.28166 -0.94198 0.18260
vn 0.00067 -0.99704 0.07683
vn 0.39685 -0.81044 0.43092
vn -0.19334 0.75844 -0.62241
vn -0.00088 0.88295 -0.46947
vn 0.00015 0.72124 -0.69268
vn 0.19271 0.75914 -0.62175
vn 0.27218 0.84961 -0.45175
vn -0.27372 0.84923 -0.45154
vn -0.28434 -0.67441 0.68141
vn 0.00067 -0.62124 0.78362
vn 0.28166 -0.67813 0.67883
vn 0.00015 0.97757 -0.21059
vn -0.19334 0.94011 -0.28072
vn 0.19271 0.93996 -0.28168
vn 0.00000 0.51504 0.85717
vn -1.00000 0.00000 0.00000
vn 0.00000 -0.85717 0.51504
vn -0.00000 -0.51504 -0.85717
vn 1.00000 0.00000 0.00000
vn 0.00000 0.85717 -0.51504
vn -0.44657 -0.83001 0.33416
vn -0.42653 -0.83536 0.34677
vn -0.92943 -0.33939 -0.14481
vn -0.87912 -0.33587 0.33813
vn -0.10605 -0.20703 0.97257
vn -0.20588 -0.07078 0.97601
vn -0.46753 0.81728 0.33686
vn -0.44653 0.82512 0.34610
vn -0.90345 0.40774 -0.13234
vn -0.85041 0.39505 0.34746
vn -0.12351 0.20794 0.97031
vn -0.20176 0.08911 0.97537
# 180 normals
usemtl turret_01
f  3/1/1 2/2/2 1/3/3
f  1/3/3 4/2/4 3/1/1
f  2/4/5 3/5/5 5/6/5
f  5/6/6 6/7/6 2/4/6
f  3/5/7 4/4/7 7/7/7
f  7/7/8 5/6/8 3/5/8
f  10/4/9 9/5/9 8/6/9
f  8/6/10 11/7/10 10/4/10
f  1/3/3 2/2/2 9/1/11
f  9/1/11 10/2/12 1/3/3
f  2/4/13 6/7/13 8/6/13
f  8/6/14 9/5/14 2/4/14
f  6/8/15 5/9/16 12/10/17
f  7/8/18 12/10/17 5/9/16
f  6/8/15 12/10/17 8/9/19
f  11/8/20 8/9/19 12/10/17
f  15/11/21 14/12/22 13/13/23
f  16/14/24 14/12/22 15/11/21
f  18/15/25 13/16/26 17/17/27
f  15/18/28 13/16/26 18/15/25
f  20/19/29 17/20/30 19/21/31
f  18/22/32 17/20/30 20/19/29
f  20/23/33 19/24/34 16/25/35
f  18/26/36 20/27/37 15/28/38
f  16/29/39 15/28/38 20/27/37
f  16/30/35 19/24/34 14/31/40
f  23/32/41 22/33/42 21/34/43
f  21/34/43 22/33/42 24/32/43
f  23/35/44 26/36/45 25/37/46
f  26/36/45 23/35/44 21/38/47
f  24/39/48 26/36/45 21/38/47
f  26/36/45 24/39/48 27/40/49
f  28/41/50 25/42/51 26/43/52
f  27/44/53 28/41/50 26/43/52
f  30/32/42 29/34/54 22/33/42
f  29/34/54 31/32/54 22/33/42
f  30/38/55 33/36/56 32/40/57
f  32/40/57 29/39/58 30/38/55
f  27/40/49 24/39/48 31/38/59
f  31/38/59 34/36/60 27/40/49
f  31/38/59 29/39/58 32/40/57
f  32/40/57 34/36/60 31/38/59
f  28/41/50 32/45/61 33/46/62
f  27/44/53 34/47/63 28/41/50
f  34/47/63 32/45/61 28/41/50
f  31/32/59 24/34/48 22/33/42
f  36/2/64 35/1/65 1/3/3
f  4/2/4 1/3/3 35/1/65
f  35/5/66 36/4/66 37/6/66
f  38/7/67 37/6/67 36/4/67
f  4/4/68 35/5/68 7/7/68
f  37/6/69 7/7/69 35/5/69
f  40/5/70 10/4/70 39/6/70
f  11/7/71 39/6/71 10/4/71
f  36/2/64 1/3/3 40/1/72
f  10/2/12 40/1/72 1/3/3
f  38/7/73 36/4/73 39/6/73
f  40/5/74 39/6/74 36/4/74
f  37/9/75 38/8/76 12/10/17
f  12/10/17 7/8/18 37/9/75
f  12/10/17 38/8/76 39/9/77
f  39/9/77 11/8/20 12/10/17
f  14/12/22 41/11/78 13/13/23
f  14/12/22 42/14/79 41/11/78
f  13/16/26 43/15/80 17/17/27
f  13/16/26 41/18/81 43/15/80
f  17/20/30 44/19/82 19/21/31
f  17/20/30 43/22/83 44/19/82
f  19/24/34 44/23/84 42/25/85
f  44/27/86 43/26/87 41/28/88
f  41/28/88 42/29/89 44/27/86
f  19/24/34 42/30/85 14/31/40
f  47/48/90 46/49/91 45/50/92
f  46/49/91 48/51/93 45/50/92
f  51/48/94 50/49/95 49/50/96
f  50/49/95 52/51/97 49/50/96
f  50/49/95 47/48/90 52/51/97
f  47/48/90 45/50/92 52/51/97
f  46/52/98 47/53/99 53/54/100
f  50/52/101 51/53/102 53/54/100
f  47/53/99 50/52/101 53/54/100
f  46/49/91 55/48/103 54/50/104
f  48/51/93 46/49/91 54/50/104
f  56/49/105 51/48/94 49/50/96
f  57/51/106 56/49/105 49/50/96
f  55/48/103 56/49/105 57/51/106
f  54/50/104 55/48/103 57/51/106
f  55/53/107 46/52/98 53/54/100
f  51/53/102 56/52/108 53/54/100
f  56/52/108 55/53/107 53/54/100
f  60/55/109 59/56/110 58/57/111
f  62/57/112 60/55/109 61/56/113
f  61/56/113 60/55/109 58/57/111
f  63/56/114 60/55/109 62/57/112
f  58/57/115 64/55/116 61/56/117
f  61/56/117 64/55/116 62/57/118
f  62/57/118 64/55/116 63/56/119
f  59/56/120 64/55/116 58/57/115
f  65/57/121 59/56/110 60/55/109
f  67/56/122 60/55/109 66/57/123
f  65/57/121 60/55/109 67/56/122
f  66/57/123 60/55/109 63/56/114
f  67/56/124 64/55/116 65/57/125
f  66/57/126 64/55/116 67/56/124
f  63/56/119 64/55/116 66/57/126
f  65/57/125 64/55/116 59/56/120
f  70/55/127 69/56/128 68/57/129
f  72/57/130 70/55/127 71/56/131
f  71/56/131 70/55/127 68/57/129
f  73/56/132 70/55/127 72/57/130
f  68/57/133 60/55/134 71/56/135
f  71/56/135 60/55/134 72/57/136
f  72/57/136 60/55/134 73/56/137
f  69/56/138 60/55/134 68/57/133
f  74/57/139 69/56/128 70/55/127
f  76/56/140 70/55/127 75/57/141
f  74/57/139 70/55/127 76/56/140
f  75/57/141 70/55/127 73/56/132
f  76/56/142 60/55/134 74/57/143
f  75/57/144 60/55/134 76/56/142
f  73/56/137 60/55/134 75/57/144
f  74/57/143 60/55/134 69/56/138
f  79/55/145 78/56/146 77/57/147
f  81/57/148 79/55/145 80/56/149
f  80/56/149 79/55/145 77/57/147
f  82/56/150 79/55/145 81/57/148
f  77/57/151 70/55/152 80/56/153
f  80/56/153 70/55/152 81/57/154
f  81/57/154 70/55/152 82/56/155
f  78/56/156 70/55/152 77/57/151
f  83/57/157 78/56/146 79/55/145
f  85/56/158 79/55/145 84/57/159
f  83/57/157 79/55/145 85/56/158
f  84/57/159 79/55/145 82/56/150
f  85/56/160 70/55/152 83/57/161
f  84/57/162 70/55/152 85/56/160
f  82/56/155 70/55/152 84/57/162
f  83/57/161 70/55/152 78/56/156
f  88/58/163 87/59/164 86/60/165
f  87/59/164 89/58/166 86/60/165
f  89/58/166 90/61/167 86/60/165
f  90/61/167 88/58/163 86/60/165
f  87/59/164 88/58/163 91/62/168
f  89/58/166 87/59/164 91/62/168
f  90/61/167 89/58/166 91/62/168
f  88/58/163 90/61/167 91/62/168
f  45/51/92 48/51/93 57/50/106
f  54/50/104 57/50/106 48/51/93
f  52/51/97 45/51/92 49/50/96
f  57/50/106 49/50/96 45/51/92
f  92/34/41 22/33/42 23/32/41
f  93/32/41 22/33/42 92/34/41
f  25/37/46 94/36/169 23/35/44
f  92/38/170 23/35/44 94/36/169
f  92/38/170 94/36/169 93/39/171
f  95/40/172 93/39/171 94/36/169
f  94/63/173 25/42/51 28/41/50
f  94/63/173 28/41/50 95/64/174
f  22/33/42 96/34/42 30/32/42
f  22/33/42 97/32/42 96/34/42
f  98/40/175 33/36/56 30/38/55
f  30/38/55 96/39/176 98/40/175
f  97/38/177 93/39/171 95/40/172
f  95/40/172 99/36/178 97/38/177
f  98/40/175 96/39/176 97/38/177
f  97/38/177 99/36/178 98/40/175
f  33/46/62 98/65/179 28/41/50
f  28/41/50 99/66/180 95/64/174
f  28/41/50 98/65/179 99/66/180
f  22/33/42 93/34/171 97/32/177
