# 
# Wavefront OBJ file
# Converted by the DEEP Exploration Deep Exploration 6.0 6.0.2.6082 Release
# Right Hemisphere, LTD
# http://www.righthemisphere.com/
# 
mtllib turret-15.mtl
# object turret-15
g turret_15
v 1.16109 -0.27035 0.52691
v 0.84466 -1.45566 -0.10730
v 0.68548 -1.08667 0.52691
v 0.00000 0.08325 1.20905
v 1.50926 -0.41447 -0.10730
v 1.05936 0.97430 0.52691
v 1.44875 0.91887 -0.10730
v 1.12607 1.27963 -0.10730
v 0.00000 1.07863 0.52691
v 0.00000 1.38042 -0.10730
v 0.00000 -1.04328 -0.10730
v 0.00000 -0.78394 0.52691
v -1.16109 -0.27035 0.52691
v -0.68548 -1.08667 0.52691
v -0.84466 -1.45566 -0.10730
v -1.50926 -0.41447 -0.10730
v -1.05936 0.97430 0.52691
v -1.44875 0.91887 -0.10730
v -1.12607 1.27963 -0.10730
v -0.26742 0.90878 2.03046
v 0.25158 -0.62198 2.02062
v -0.23333 -0.62687 2.02062
v 0.19647 0.91402 2.02697
v 0.44840 -0.81549 1.64833
v 0.46943 -0.82020 1.32856
v -0.41188 -0.80576 1.67700
v -0.25993 -0.57666 1.03373
v 0.28311 0.68510 1.02783
v -0.28354 0.68118 1.02783
v 0.30673 -0.57275 1.03373
v -0.44626 0.93113 1.32032
v 0.36128 1.16863 1.70155
v -0.45101 1.18006 1.69557
v 0.43280 0.93660 1.32032
v 1.03115 -0.29255 1.69305
v 1.06122 0.58139 1.29307
v 1.07828 -0.45906 1.30073
v 1.01390 0.44496 1.70009
v 0.40619 -0.30447 1.69885
v 0.40105 -0.47183 1.30653
v 0.37941 0.84736 1.29868
v 0.38436 0.71179 1.70570
v -0.40963 -0.82567 1.32856
v 0.12585 -0.71942 1.76098
v 0.08359 -2.85286 1.72514
v 0.00158 -2.85352 1.77376
v 0.00157 -0.72038 1.83206
v 0.00157 -0.74049 1.54774
v 0.00158 -2.85353 1.59706
v 0.08359 -2.85286 1.64065
v 0.12654 -0.73951 1.61882
v 0.00158 -2.88201 1.68083
v 0.18856 -1.63056 1.57793
v 0.17212 -1.96574 1.79631
v 0.16863 -1.68855 1.79630
v 0.19573 -1.98592 1.57808
v 0.00158 -1.96935 1.87285
v 0.00158 -1.69227 1.87287
v 0.00158 -1.61056 1.53768
v 0.00158 -2.00010 1.53782
v -0.12270 -0.71942 1.76098
v -0.08044 -2.85286 1.72514
v -0.08044 -2.85286 1.64065
v -0.12339 -0.73951 1.61882
v -0.18541 -1.63056 1.57793
v -0.16548 -1.68855 1.79630
v -0.16897 -1.96574 1.79631
v -0.19258 -1.98592 1.57808
v 0.00158 -0.70992 1.68083
v -1.07361 -0.45906 1.30073
v -1.05654 0.58139 1.29307
v -1.02648 -0.29255 1.69305
v -1.00923 0.44496 1.70009
v -0.39638 -0.47183 1.30653
v -0.40151 -0.30447 1.69885
v -0.37474 0.84736 1.29868
v -0.37969 0.71179 1.70570
# 77 verticies
vt 0.00974 0.65908
vt -0.01176 0.50458
vt 0.27498 0.65688
vt -0.26949 0.29368
vt -0.14301 0.47217
vt -0.00424 0.29587
vt 0.29961 0.50901
vt -0.14177 0.47420
vt 0.17724 0.50458
vt 0.01524 0.65688
vt 0.00132 0.50901
vt -0.01670 0.29587
vt -0.14355 0.47217
vt -0.26236 0.29368
vt 0.52385 0.31441
vt 0.69833 0.15691
vt 0.68098 0.41226
vt 0.85956 0.40343
vt 0.92489 0.31530
vt 0.95938 0.14959
vt 0.43470 0.87771
vt 0.43586 0.99888
vt 0.00272 0.87680
vt 0.00230 0.99833
vt 0.13517 0.19639
vt -0.02460 0.30620
vt -0.02342 0.19525
vt 0.11047 0.07338
vt 0.26599 0.64351
vt 0.26454 0.52735
vt 0.06188 0.64332
vt 0.06207 0.52752
vt 0.72891 0.84773
vt 0.59764 0.84814
vt 0.72946 0.95243
vt 0.59855 0.95305
vt -0.10810 0.78465
vt -0.00262 0.87680
vt 0.43470 0.87059
vt -0.00262 0.86968
vt 0.43586 0.78520
vt 0.76398 0.55200
vt 0.58306 0.55312
vt 0.76419 0.63271
vt 0.58358 0.63359
vt 0.10538 0.69609
vt 0.10494 0.77213
vt 0.28409 0.69587
vt 0.28735 0.77238
vt 0.58584 0.77678
vt 0.58471 0.92039
vt 0.82747 0.77773
vt 0.76653 0.92057
vt 0.58487 0.53211
vt 0.58508 0.52175
vt 0.99310 0.52136
vt 0.99279 0.53245
vt 0.40844 0.04734
vt 0.40037 0.04757
vt 0.40398 0.03445
vt -0.48691 0.12914
vt -0.48691 0.05092
vt -0.54055 0.12914
vt -0.54042 0.05092
vt 0.02813 0.06059
vt 0.02801 0.01827
vt 0.08165 0.01827
vt 0.08165 0.06059
vt 0.15560 0.00311
vt 0.18352 0.04543
vt 0.23703 0.00311
vt 0.23703 0.04543
vt 0.13659 0.30620
vt -0.00273 0.07338
vt -0.00262 0.78955
vt 0.07531 0.69562
vt 0.43470 0.79046
vt 0.38600 0.69617
vt 0.10494 0.78994
vt 0.28735 0.79019
# 80 texture verticies
vn 0.23534 -0.81324 0.53221
vn 0.28538 -0.88293 -0.37281
vn 0.83922 -0.19975 0.50578
vn 0.47745 -0.11317 0.87134
vn 0.00000 0.00390 0.99999
vn 0.16287 -0.42402 0.89089
vn 0.86693 -0.24238 -0.43552
vn 0.32132 0.30446 0.89669
vn 0.57658 0.61771 0.53478
vn 0.84079 0.30631 -0.44636
vn 0.38068 0.80271 -0.45906
vn 0.00000 0.85922 -0.51161
vn 0.00000 0.90298 0.42968
vn 0.00000 0.56530 0.82488
vn 0.00000 -0.71682 -0.69725
vn 0.00000 -0.91719 0.39845
vn 0.00000 -0.61826 0.78598
vn -0.28538 -0.88293 -0.37281
vn -0.23534 -0.81324 0.53221
vn -0.83922 -0.19975 0.50578
vn -0.47745 -0.11317 0.87134
vn -0.16287 -0.42402 0.89089
vn -0.86693 -0.24238 -0.43552
vn -0.32132 0.30446 0.89669
vn -0.57658 0.61771 0.53478
vn -0.84079 0.30631 -0.44636
vn -0.38068 0.80271 -0.45906
vn 0.00007 -0.00641 0.99998
vn 0.00148 -0.00593 0.99998
vn 0.00609 -0.00436 0.99997
vn 0.00755 -0.00387 0.99996
vn 0.00372 -0.97281 0.23157
vn -0.00657 -0.99967 0.02480
vn -0.00378 -0.98041 0.19695
vn 0.00628 -0.88733 0.46109
vn 0.00003 -0.00469 -0.99999
vn 0.01580 0.83330 -0.55260
vn 0.00090 0.84791 -0.53013
vn 0.00906 0.84001 -0.54249
vn -0.00531 0.85377 -0.52063
vn -0.00403 0.77595 0.63078
vn 0.00332 0.78297 0.62205
vn 0.00114 0.78091 0.62464
vn 0.00651 0.78597 0.61823
vn 0.94843 0.02723 0.31581
vn 0.88216 0.02971 0.47002
vn 0.88871 0.02711 0.45768
vn 0.99616 0.03950 0.07819
vn 0.98490 0.02134 0.17178
vn 0.97304 0.03662 0.22772
vn 0.99355 0.01712 0.11209
vn 0.99267 0.02036 0.11910
vn 0.99326 0.01822 0.11446
vn 0.99220 0.02204 0.12273
vn 0.02071 -0.91970 0.39208
vn 0.02118 -0.91940 0.39276
vn -0.01062 -0.00612 -0.99992
vn -0.00842 -0.00751 -0.99994
vn 0.00940 -0.00655 0.99993
vn 0.00492 -0.00943 0.99994
vn 0.37580 0.88057 0.28874
vn 0.34493 0.87715 0.33412
vn -0.98050 -0.02115 0.19537
vn -0.88265 -0.02187 0.46952
vn -0.97107 -0.02217 0.23775
vn -0.88426 -0.02262 0.46645
vn -0.99978 -0.02084 0.00116
vn -0.99979 -0.01980 -0.00453
vn 0.00000 -0.02848 0.99959
vn 0.86870 -0.02580 0.49466
vn 0.84883 -0.02528 0.52807
vn 0.00000 -0.02732 0.99963
vn 0.85626 -0.02382 -0.51599
vn -0.00000 -0.02333 -0.99973
vn -0.00000 -0.02193 -0.99976
vn 0.87922 -0.02260 -0.47588
vn 0.26188 -0.95442 0.14321
vn 0.00000 -0.95607 0.29312
vn 0.00000 -0.99990 -0.01386
vn -0.00000 -0.94679 -0.32184
vn 0.26576 -0.95253 -0.14849
vn 0.99548 0.01253 0.09418
vn 0.99466 0.01747 0.10171
vn 0.99493 0.01588 0.09928
vn 0.99419 0.02011 0.10572
vn 0.00000 -0.00005 1.00000
vn 0.00000 0.00354 0.99999
vn 0.41392 0.00193 0.91031
vn 0.40939 0.00518 0.91235
vn 0.21080 0.00382 -0.97752
vn 0.20531 0.00086 -0.97870
vn 0.00000 0.00250 -1.00000
vn 0.00000 -0.00035 -1.00000
vn 0.07439 0.96703 0.24356
vn 0.04711 0.96436 0.26037
vn 0.00000 0.96803 0.25082
vn 0.00000 0.97155 0.23684
vn 0.05234 -0.99385 0.09758
vn 0.05882 -0.99390 0.09331
vn 0.00000 -0.99548 0.09502
vn 0.00000 -0.99581 0.09140
vn -0.86870 -0.02580 0.49466
vn -0.84883 -0.02528 0.52807
vn -0.85626 -0.02382 -0.51599
vn -0.87922 -0.02260 -0.47588
vn -0.26188 -0.95442 0.14321
vn -0.26576 -0.95253 -0.14849
vn -0.99466 0.01747 0.10170
vn -0.99548 0.01253 0.09418
vn -0.99493 0.01588 0.09928
vn -0.99419 0.02011 0.10572
vn -0.41392 0.00193 0.91031
vn -0.40939 0.00518 0.91235
vn -0.20531 0.00086 -0.97870
vn -0.21080 0.00382 -0.97752
vn -0.04711 0.96436 0.26037
vn -0.07439 0.96703 0.24356
vn -0.05882 -0.99390 0.09331
vn -0.05234 -0.99385 0.09758
vn 0.00621 -0.99835 0.05706
vn 0.00893 -0.88532 0.46491
vn -0.88106 -0.02058 -0.47256
vn -0.88499 -0.01879 -0.46523
vn -0.00472 0.75942 -0.65058
vn -0.00524 0.75878 -0.65133
vn 0.88109 0.01615 -0.47267
vn 0.88502 0.01443 -0.46533
vn 0.00476 -0.76516 -0.64382
vn 0.00528 -0.76452 -0.64458
vn 0.00000 0.99475 -0.10231
vn 0.00000 0.99762 0.06898
vn 0.09591 0.99491 -0.03086
vn 0.14220 0.97369 -0.17807
vn 0.00000 0.97462 -0.22385
vn -0.09591 0.99491 -0.03086
vn -0.14220 0.97369 -0.17807
vn -0.99976 -0.02150 0.00499
vn -0.99967 -0.01628 0.02003
vn -0.99326 0.01822 0.11446
vn -0.99267 0.02036 0.11910
vn -0.99355 0.01712 0.11209
vn -0.99220 0.02204 0.12272
vn -0.02071 -0.91970 0.39208
vn -0.02118 -0.91940 0.39276
vn 0.01062 -0.00612 -0.99992
vn 0.00842 -0.00751 -0.99994
vn -0.00940 -0.00655 0.99993
vn -0.00492 -0.00943 0.99994
vn -0.37580 0.88057 0.28874
vn -0.34493 0.87715 0.33412
vn 0.99976 -0.02150 0.00500
vn 0.99967 -0.01628 0.02003
# 152 normals
usemtl turret_01
f  3/1/1 2/2/2 1/3/3
f  1/4/4 4/5/5 3/6/6
f  5/7/7 1/3/3 2/2/2
f  1/6/4 6/4/8 4/8/5
f  6/1/9 1/3/3 7/2/10
f  5/7/7 7/2/10 1/3/3
f  8/9/11 6/10/9 7/11/10
f  6/3/9 10/2/12 9/1/13
f  9/12/14 4/13/5 6/14/8
f  10/2/12 6/3/9 8/7/11
f  2/15/2 11/16/15 5/17/7
f  5/17/7 11/16/15 7/18/10
f  7/18/10 11/16/15 8/19/11
f  8/19/11 11/16/15 10/20/12
f  11/7/15 2/2/2 12/3/16
f  3/1/1 12/3/16 2/2/2
f  12/4/17 3/6/6 4/5/5
f  15/2/18 14/1/19 13/3/20
f  4/5/5 13/4/21 14/6/22
f  13/3/20 16/7/23 15/2/18
f  17/4/24 13/6/21 4/8/5
f  13/3/20 17/1/25 18/2/26
f  18/2/26 16/7/23 13/3/20
f  17/10/25 19/9/27 18/11/26
f  10/2/12 17/3/25 9/1/13
f  4/13/5 9/12/14 17/14/24
f  17/3/25 10/2/12 19/7/27
f  11/16/15 15/15/18 16/17/23
f  11/16/15 16/17/23 18/18/26
f  11/16/15 18/18/26 19/19/27
f  11/16/15 19/19/27 10/20/12
f  15/2/18 11/7/15 12/3/16
f  12/3/16 14/1/19 15/2/18
f  14/6/22 12/4/17 4/5/5
f  22/21/28 21/22/29 20/23/30
f  21/22/29 23/24/31 20/23/30
f  26/25/32 25/26/33 24/27/34
f  26/25/32 24/27/34 22/28/35
f  29/29/36 28/30/36 27/31/36
f  28/30/36 30/32/36 27/31/36
f  33/33/37 32/34/38 31/35/39
f  32/34/38 34/36/40 31/35/39
f  20/36/41 23/35/42 33/34/43
f  23/35/42 32/33/44 33/34/43
f  32/37/45 23/38/46 21/21/47
f  25/39/48 34/40/49 32/37/45
f  21/21/47 24/41/50 32/37/45
f  37/42/51 36/43/52 35/44/53
f  35/44/53 36/43/52 38/45/54
f  40/43/55 37/42/55 39/45/55
f  35/44/56 39/45/56 37/42/56
f  41/46/57 36/47/57 40/48/57
f  37/49/58 40/48/58 36/47/58
f  39/50/59 35/51/59 42/52/59
f  38/53/60 42/52/60 35/51/60
f  42/45/61 38/44/61 41/43/61
f  36/42/62 41/43/62 38/44/62
f  26/41/63 22/21/64 33/37/65
f  20/38/66 33/37/65 22/21/64
f  33/37/65 31/40/67 43/39/68
f  46/54/69 45/55/70 44/56/71
f  47/57/72 46/54/69 44/56/71
f  50/54/73 49/55/74 48/56/75
f  51/57/76 50/54/73 48/56/75
f  45/55/70 50/54/73 51/57/76
f  44/56/71 45/55/70 51/57/76
f  45/58/77 46/59/78 52/60/79
f  49/58/80 50/59/81 52/60/79
f  50/59/81 45/58/77 52/60/79
f  55/61/82 54/62/83 53/63/84
f  54/62/83 56/64/85 53/63/84
f  58/63/86 57/64/87 55/61/88
f  57/64/87 54/62/89 55/61/88
f  53/63/90 56/64/91 59/61/92
f  56/64/91 60/62/93 59/61/92
f  55/65/94 53/66/95 59/67/96
f  55/65/94 59/67/96 58/68/97
f  56/69/98 54/70/99 60/71/100
f  60/71/100 54/70/99 57/72/101
f  62/55/102 46/54/69 61/56/103
f  46/54/69 47/57/72 61/56/103
f  49/55/74 63/54/104 48/56/75
f  63/54/104 64/57/105 48/56/75
f  63/54/104 62/55/102 64/57/105
f  62/55/102 61/56/103 64/57/105
f  46/59/78 62/58/106 52/60/79
f  63/59/107 49/58/80 52/60/79
f  62/58/106 63/59/107 52/60/79
f  67/62/108 66/61/109 65/63/110
f  68/64/111 67/62/108 65/63/110
f  57/64/87 58/63/86 66/61/112
f  67/62/113 57/64/87 66/61/112
f  68/64/114 65/63/115 59/61/92
f  60/62/93 68/64/114 59/61/92
f  65/67/116 66/68/117 59/66/96
f  59/66/96 66/68/117 58/65/97
f  67/70/118 68/69/119 60/71/100
f  67/70/118 60/71/100 57/72/101
f  43/39/68 26/41/63 33/37/65
f  43/73/120 25/26/33 26/25/32
f  24/41/50 25/39/48 32/37/45
f  24/27/34 21/74/121 22/28/35
f  31/75/122 29/76/122 43/77/122
f  27/78/123 43/77/123 29/76/123
f  34/79/124 28/46/124 31/80/124
f  29/48/125 31/80/125 28/46/125
f  25/77/126 30/78/126 34/75/126
f  28/76/127 34/75/127 30/78/127
f  43/25/128 27/28/128 25/27/128
f  30/74/129 25/27/129 27/28/129
f  69/60/130 47/59/131 44/58/132
f  69/60/130 51/59/133 48/58/134
f  69/60/130 44/58/132 51/59/133
f  69/60/130 61/58/135 47/59/131
f  69/60/130 48/58/134 64/59/136
f  69/60/130 64/59/136 61/58/135
f  42/46/137 41/47/137 39/48/137
f  40/49/138 39/48/138 41/47/138
f  72/44/139 71/43/140 70/42/141
f  73/45/142 71/43/140 72/44/139
f  75/45/143 70/42/143 74/43/143
f  70/42/144 75/45/144 72/44/144
f  74/48/145 71/47/145 76/46/145
f  71/47/146 74/48/146 70/49/146
f  77/52/147 72/51/147 75/50/147
f  72/51/148 77/52/148 73/53/148
f  76/43/149 73/44/149 77/45/149
f  73/44/150 76/43/150 71/42/150
f  75/48/151 76/47/151 77/46/151
f  76/47/152 75/48/152 74/49/152
