# 
# Wavefront OBJ file
# Converted by the DEEP Exploration Deep Exploration 6.0 6.0.2.6082 Release
# Right Hemisphere, LTD
# http://www.righthemisphere.com/
# 
mtllib turret-11.mtl
# object turret-11
g turret_11
v 1.83692 0.85751 -0.13207
v 1.66319 0.75626 0.65689
v 1.08249 1.71958 -0.13207
v 0.91500 1.59332 0.65689
v 1.91222 -0.48615 -0.13207
v 1.72969 -0.42998 0.65689
v 1.16334 -1.67614 -0.13207
v 1.02848 -1.55017 0.65689
v 0.00000 -2.03407 -0.13207
v 0.00000 -1.85448 0.65689
v 0.00000 2.00639 -0.13207
v 0.00000 1.85953 0.65689
v 0.00000 -0.03151 1.13205
v 0.40841 0.53579 1.51727
v 0.00000 0.53579 1.51727
v 0.00000 1.17360 0.83003
v 0.55669 1.00058 0.83003
v 0.40841 -0.39732 1.51727
v 0.00000 -0.46076 1.51727
v 0.62821 -1.07613 0.80838
v 0.00000 -1.13957 0.80838
v 0.96331 0.56351 0.80008
v 0.97150 -0.47458 0.80451
v 0.00000 0.86224 2.15645
v 0.28515 -0.31477 2.14661
v 0.00000 -0.41585 2.14661
v 0.26500 0.86748 2.15296
v 0.44678 -0.54762 1.47392
v 0.00000 -0.64928 1.47392
v 0.44251 0.76728 1.46569
v 0.00000 0.74047 1.48475
v 0.27229 0.99931 1.84692
v 0.00000 1.01075 1.84093
v 0.25883 0.87963 2.63659
v 0.44563 1.86645 2.23661
v 0.44310 0.71312 2.24428
v 0.24158 1.73001 2.64363
v 0.00000 0.86771 2.64239
v 0.00000 0.70034 2.25007
v 0.42580 1.27631 1.51663
v 0.00000 1.28067 1.52224
v 0.44286 0.73191 1.49802
v 0.00000 1.73523 2.64925
v 0.00000 1.87080 2.24223
v 1.11124 0.73947 2.66437
v 1.63023 -0.79129 2.65453
v 1.14532 -0.79618 2.65453
v 1.57512 0.74471 2.66089
v 1.82705 -0.98481 2.28224
v 1.84808 -0.98952 1.96247
v 0.96678 -0.97508 2.31091
v 1.11872 -0.74598 1.66764
v 1.66177 0.51578 1.66174
v 1.09511 0.51187 1.66174
v 1.68538 -0.74206 1.66764
v 0.93240 0.76181 1.95423
v 1.73994 0.99931 2.33546
v 0.92764 1.01075 2.32948
v 1.81146 0.76728 1.95423
v 0.96902 -0.99498 1.96247
v 0.31114 0.66182 1.97174
v 1.19766 -0.12275 1.99834
v 0.30431 -0.16534 1.99834
v 1.17678 0.64224 1.97174
v 1.05168 -0.28942 1.65482
v 0.37396 -0.33201 1.65482
v 1.02800 0.48027 1.63047
v 0.34986 0.49985 1.63047
v 1.53598 -3.35189 2.15831
v 1.53392 -0.78777 2.15812
v 1.41688 -3.35189 2.06187
v 1.41483 -0.78777 2.06168
v 1.55199 -3.35189 2.31071
v 1.54994 -0.78777 2.31052
v 1.45409 -3.35189 2.43060
v 1.45354 -0.78777 2.42959
v 1.26301 -3.35189 2.07869
v 1.26246 -0.78777 2.07767
v 1.16511 -3.35189 2.19857
v 1.18208 -0.78777 2.34915
v 1.18113 -3.35189 2.35098
v 1.16606 -0.78777 2.19674
v 1.30117 -0.78777 2.44559
v 1.30022 -3.35189 2.44742
v 1.35855 -3.35189 2.25464
v 1.35855 -0.78535 2.25464
v -1.83692 0.85751 -0.13207
v -1.08249 1.71958 -0.13207
v -1.66319 0.75626 0.65689
v -0.91500 1.59332 0.65689
v -1.91222 -0.48615 -0.13207
v -1.72969 -0.42998 0.65689
v -1.16334 -1.67614 -0.13207
v -1.02848 -1.55017 0.65689
v -0.40841 0.53579 1.51727
v -0.55669 1.00058 0.83003
v -0.40841 -0.39732 1.51727
v -0.62821 -1.07613 0.80838
v -0.96331 0.56351 0.80008
v -0.97150 -0.47458 0.80451
v -0.28515 -0.31477 2.14661
v -0.26500 0.86748 2.15296
v -0.44678 -0.54762 1.47392
v -0.44251 0.76728 1.46569
v -0.27229 0.99931 1.84692
v -0.25883 0.87963 2.63659
v -0.44310 0.71312 2.24428
v -0.44563 1.86645 2.23661
v -0.24158 1.73001 2.64363
v -0.42580 1.27631 1.51663
v -0.44286 0.73191 1.49802
v -1.11124 0.73947 2.66437
v -1.14532 -0.79618 2.65453
v -1.63023 -0.79129 2.65453
v -1.57512 0.74471 2.66089
v -1.82705 -0.98481 2.28224
v -0.96678 -0.97508 2.31091
v -1.84808 -0.98952 1.96247
v -1.11872 -0.74598 1.66764
v -1.09511 0.51187 1.66174
v -1.66177 0.51578 1.66174
v -1.68538 -0.74206 1.66764
v -0.93240 0.76181 1.95423
v -0.92764 1.01075 2.32948
v -1.73994 0.99931 2.33546
v -1.81146 0.76728 1.95423
v -0.96902 -0.99498 1.96247
v -0.31114 0.66182 1.97174
v -0.30431 -0.16534 1.99834
v -1.19766 -0.12275 1.99834
v -1.17678 0.64224 1.97174
v -0.37396 -0.33201 1.65482
v -1.05168 -0.28942 1.65482
v -1.02800 0.48027 1.63047
v -0.34986 0.49985 1.63047
v -1.53598 -3.35189 2.15831
v -1.41688 -3.35189 2.06187
v -1.53392 -0.78777 2.15812
v -1.41483 -0.78777 2.06168
v -1.55199 -3.35189 2.31071
v -1.54994 -0.78777 2.31052
v -1.45409 -3.35189 2.43060
v -1.45354 -0.78777 2.42959
v -1.26301 -3.35189 2.07869
v -1.26246 -0.78777 2.07767
v -1.16511 -3.35189 2.19857
v -1.18113 -3.35189 2.35098
v -1.18208 -0.78777 2.34915
v -1.16606 -0.78777 2.19674
v -1.30022 -3.35189 2.44742
v -1.30117 -0.78777 2.44559
v -1.35855 -3.35189 2.25464
v -1.35855 -0.78535 2.25464
# 153 verticies
vt 0.08594 0.66647
vt 0.25299 0.61017
vt 0.27246 0.66647
vt 0.09020 0.61017
vt 0.93261 0.14843
vt 0.94974 0.29125
vt 0.62471 0.15023
vt 0.81902 0.03406
vt 0.60008 0.28506
vt 0.68964 0.04174
vt 0.41939 1.49884
vt 0.60275 1.49895
vt 0.52309 1.25489
vt 0.19747 0.61861
vt 0.19747 0.48460
vt 0.29373 0.48460
vt 0.30044 0.61861
vt -0.13852 0.10169
vt -0.13852 0.26061
vt -0.05443 0.26061
vt -0.05443 0.10169
vt -0.13852 0.36541
vt -0.06845 0.16622
vt 0.02775 0.16622
vt 0.02775 0.22316
vt 0.02775 0.27289
vt -0.13852 0.16622
vt 0.00523 0.95230
vt 0.00448 0.99225
vt 0.17297 0.95171
vt 0.17209 0.99189
vt 0.37424 0.12161
vt 0.37424 0.00133
vt 0.16946 0.07731
vt 0.16946 -0.00359
vt 0.06207 0.52752
vt 0.06188 0.64332
vt 0.26454 0.52735
vt 0.26599 0.64351
vt 0.41598 0.87130
vt 0.41598 0.79182
vt 0.52927 0.87130
vt 0.52927 0.78995
vt 0.31045 0.66431
vt 0.44390 0.66386
vt 0.31010 0.71882
vt 0.44369 0.71829
vt 0.37424 0.03695
vt 0.37424 0.29789
vt 0.19616 0.03558
vt 0.13740 0.26962
vt 0.47788 0.54914
vt 0.38595 0.54895
vt 0.47644 0.48283
vt 0.38614 0.48301
vt 0.41364 0.54895
vt 0.41383 0.48301
vt 0.18147 -0.14693
vt 0.18164 -0.20484
vt 0.01144 -0.14673
vt 0.01125 -0.20510
vt 0.29616 0.60236
vt 0.29499 0.48460
vt 0.16848 0.60307
vt 0.16891 0.48385
vt -0.00379 0.16055
vt 0.00055 0.36113
vt 0.09654 0.15899
vt 0.09665 0.35957
vt 0.43470 0.87771
vt 0.43586 0.99888
vt 0.00272 0.87680
vt 0.00230 0.99833
vt 0.13517 0.19639
vt -0.02460 0.30620
vt -0.02342 0.19525
vt 0.11047 0.07338
vt 0.72891 0.84773
vt 0.59764 0.84814
vt 0.72946 0.95243
vt 0.59855 0.95305
vt -0.10810 0.78465
vt -0.00262 0.87680
vt 0.43470 0.87059
vt -0.00262 0.86968
vt 0.43586 0.78520
vt 0.13659 0.30620
vt -0.00273 0.07338
vt 0.17381 0.47438
vt 0.17381 0.66769
vt -0.03356 0.47439
vt -0.03356 0.66372
vt -0.00262 0.78955
vt 0.07531 0.69562
vt 0.43470 0.79046
vt 0.38600 0.69617
vt 0.10494 0.78994
vt 0.10538 0.69609
vt 0.28735 0.79019
vt 0.28409 0.69587
vt 0.10142 0.30033
vt 0.05258 0.00972
vt 0.05221 0.30034
vt 0.10180 0.00970
vt 0.10150 0.00969
vt 0.10193 0.30032
vt 0.05251 0.00963
vt 0.05249 0.30026
vt 0.05273 0.30031
vt 0.05263 0.00968
vt 0.05197 0.30005
vt 0.05247 0.00943
vt 0.10169 0.29989
vt 0.10218 0.00927
vt 0.10118 0.30018
vt 0.10167 0.00955
vt 0.05225 0.29973
vt 0.05322 0.00911
vt 0.21673 0.53662
vt 0.20063 0.56926
vt 0.18514 0.53658
# 121 texture verticies
vn 0.72444 0.64210 0.25078
vn 0.72639 0.64098 0.24799
vn 0.73002 0.63887 0.24273
vn 0.72071 0.64420 0.25610
vn 0.97366 0.05458 0.22139
vn 0.97366 0.05457 0.22139
vn 0.97366 0.05457 0.22138
vn 0.97365 0.05458 0.22140
vn 0.82518 -0.51752 0.22638
vn 0.82503 -0.51829 0.22516
vn 0.82487 -0.51910 0.22389
vn 0.82535 -0.51665 0.22773
vn 0.28197 -0.93751 0.20387
vn 0.00000 -0.97640 0.21596
vn 0.00000 -0.97506 0.22196
vn 0.27813 -0.93999 0.19763
vn 0.00000 0.98064 0.19580
vn 0.26030 0.94596 0.19339
vn 0.25070 0.94619 0.20465
vn 0.00000 0.98311 0.18300
vn 0.00000 0.00000 -1.00000
vn 0.00000 0.00000 -1.00000
vn 0.13034 0.20997 0.96898
vn 0.00000 0.24370 0.96985
vn 0.00000 -0.00535 0.99999
vn 0.00000 -0.25223 0.96767
vn 0.15003 -0.20126 0.96798
vn 0.25074 -0.06348 0.96597
vn 0.23040 0.09755 0.96819
vn 0.00000 0.78236 0.62282
vn 0.00000 0.73297 0.68026
vn 0.08377 0.75473 0.65067
vn 0.24202 0.77868 0.57886
vn 0.00000 0.00000 1.00000
vn 0.00000 -0.71120 0.70299
vn 0.00000 -0.72226 0.69162
vn 0.08222 -0.71539 0.69387
vn 0.10887 -0.70089 0.70491
vn 0.00000 0.00203 -1.00000
vn -0.01697 0.01453 -0.99975
vn -0.03856 0.01694 -0.99911
vn -0.00075 -0.00472 -0.99999
vn 0.75936 0.25028 0.60062
vn 0.64312 0.56273 0.51935
vn 0.77516 0.17662 0.60658
vn 0.77466 -0.12014 0.62086
vn 0.76102 -0.18630 0.62141
vn 0.69943 -0.39532 0.59541
vn 0.00069 -0.00683 -0.99998
vn 0.00000 0.00936 -0.99996
vn 0.00000 -0.00770 0.99997
vn 0.00395 -0.00740 0.99996
vn 0.00000 -0.00553 0.99998
vn 0.01324 -0.00515 0.99990
vn 0.00000 -0.94474 0.32783
vn 0.23674 -0.91169 0.33582
vn 0.00000 -0.92829 0.37185
vn 0.30951 -0.87314 0.37660
vn 0.00000 0.00779 -0.99997
vn -0.03444 0.00495 -0.99939
vn 0.00000 -0.00310 -1.00000
vn 0.00142 -0.00626 -0.99998
vn 0.00000 0.79662 -0.60448
vn -0.01021 0.81715 -0.57634
vn 0.00000 0.82479 -0.56544
vn -0.07407 0.83685 -0.54240
vn 0.00000 0.90478 0.42587
vn 0.00546 0.91052 0.41343
vn 0.00000 0.91254 0.40898
vn 0.02984 0.91775 0.39604
vn 0.91100 0.37043 0.18129
vn 0.96522 0.12121 0.23163
vn 0.96901 0.08056 0.23351
vn 0.97268 0.00461 0.23211
vn 0.97148 0.00785 0.23698
vn 0.90527 0.00084 0.42484
vn 0.89637 0.00996 0.44320
vn 0.90237 0.00386 0.43095
vn 0.89192 0.01435 0.45196
vn 0.03164 -0.91934 0.39220
vn 0.05112 -0.91046 0.41043
vn -0.01245 0.06923 -0.99752
vn 0.03061 0.03510 -0.99891
vn 0.02276 -0.00790 0.99971
vn 0.02307 -0.00781 0.99970
vn 0.02782 0.94839 0.31590
vn 0.01333 0.94603 0.32379
vn 1.00000 -0.00220 -0.00037
vn 0.99795 0.03315 -0.05467
vn 0.02810 -0.99823 -0.05234
vn -0.01857 -0.99951 -0.02516
vn -0.00043 0.77340 -0.63391
vn -0.00044 0.77340 -0.63392
vn 0.00007 -0.00641 0.99998
vn 0.00148 -0.00593 0.99998
vn 0.00609 -0.00436 0.99997
vn 0.00755 -0.00387 0.99996
vn 0.00372 -0.97281 0.23157
vn -0.00657 -0.99967 0.02480
vn -0.00378 -0.98041 0.19695
vn 0.00628 -0.88733 0.46109
vn 0.00003 -0.00469 -0.99999
vn 0.01580 0.83330 -0.55260
vn 0.00090 0.84791 -0.53013
vn 0.00906 0.84001 -0.54249
vn -0.00531 0.85377 -0.52063
vn -0.00403 0.77595 0.63078
vn 0.00332 0.78297 0.62205
vn 0.00115 0.78091 0.62464
vn 0.00651 0.78597 0.61823
vn 0.94843 0.02723 0.31581
vn 0.88216 0.02971 0.47002
vn 0.88871 0.02711 0.45768
vn 0.99616 0.03950 0.07819
vn 0.98490 0.02134 0.17178
vn 0.97304 0.03662 0.22772
vn -0.98050 -0.02115 0.19537
vn -0.88265 -0.02187 0.46952
vn -0.97107 -0.02217 0.23775
vn -0.88426 -0.02262 0.46645
vn -0.99978 -0.02084 0.00116
vn -0.99979 -0.01980 -0.00452
vn 0.00621 -0.99835 0.05707
vn 0.00893 -0.88531 0.46491
vn -0.00153 0.03216 0.99948
vn -0.00034 0.03351 0.99944
vn -0.00049 0.03334 0.99944
vn 0.00079 0.03478 0.99939
vn 0.04623 -0.89852 0.43648
vn 0.05704 -0.90754 0.41607
vn 0.05182 -0.90326 0.42596
vn 0.04269 -0.89546 0.44310
vn 0.02420 0.90278 -0.42942
vn 0.02035 0.89976 -0.43590
vn 0.02179 0.90089 -0.43349
vn 0.02611 0.90425 -0.42620
vn 0.46714 -0.01359 -0.88408
vn 0.59339 -0.00854 -0.80487
vn 0.91670 0.01432 -0.39931
vn 0.91471 0.01092 -0.40397
vn -0.74304 -0.02033 -0.66894
vn -0.54242 -0.04122 -0.83910
vn -0.88106 -0.02058 -0.47256
vn -0.88499 -0.01879 -0.46523
vn -0.00472 0.75942 -0.65058
vn -0.00524 0.75878 -0.65133
vn 0.88109 0.01615 -0.47267
vn 0.88502 0.01443 -0.46533
vn 0.00476 -0.76516 -0.64382
vn 0.00528 -0.76452 -0.64458
vn -0.99337 0.00450 -0.11485
vn -0.98571 -0.02464 -0.16661
vn 0.21920 -0.62986 -0.74513
vn 0.68473 0.62678 -0.37188
vn 0.68252 -0.63001 -0.37048
vn 0.22119 0.62656 -0.74733
vn 0.74708 0.62682 0.22128
vn 0.74444 -0.62967 0.22209
vn 0.37181 0.62676 0.68479
vn 0.37026 -0.63078 0.68193
vn -0.37017 -0.63102 -0.68176
vn -0.37196 0.62636 -0.68506
vn -0.68244 -0.63001 0.37063
vn -0.68481 0.62678 0.37172
vn -0.74431 -0.62986 -0.22199
vn -0.74723 0.62656 -0.22152
vn -0.21919 -0.62967 0.74530
vn -0.22131 0.62682 0.74707
vn 0.00000 -1.00000 0.00000
vn 0.00004 1.00000 0.00007
vn -0.72639 0.64098 0.24799
vn -0.72444 0.64210 0.25078
vn -0.73002 0.63887 0.24273
vn -0.72071 0.64420 0.25610
vn -0.97366 0.05457 0.22139
vn -0.97366 0.05458 0.22139
vn -0.97366 0.05457 0.22138
vn -0.97365 0.05458 0.22140
vn -0.82503 -0.51829 0.22516
vn -0.82518 -0.51752 0.22638
vn -0.82487 -0.51910 0.22389
vn -0.82535 -0.51665 0.22773
vn -0.28197 -0.93751 0.20387
vn -0.27813 -0.93999 0.19763
vn -0.26030 0.94596 0.19339
vn -0.25070 0.94619 0.20465
vn -0.13034 0.20997 0.96898
vn -0.15003 -0.20126 0.96798
vn -0.25074 -0.06348 0.96597
vn -0.23040 0.09755 0.96819
vn -0.08377 0.75473 0.65067
vn -0.24202 0.77868 0.57886
vn 0.00000 0.00000 1.00000
vn -0.08222 -0.71539 0.69387
vn -0.10887 -0.70089 0.70491
vn 0.01697 0.01453 -0.99975
vn 0.03856 0.01694 -0.99911
vn 0.00075 -0.00472 -0.99999
vn -0.64312 0.56273 0.51935
vn -0.75936 0.25028 0.60062
vn -0.77516 0.17662 0.60658
vn -0.77466 -0.12014 0.62086
vn -0.76102 -0.18630 0.62141
vn -0.69943 -0.39532 0.59541
vn -0.00069 -0.00683 -0.99998
vn -0.00395 -0.00740 0.99996
vn -0.01324 -0.00515 0.99990
vn -0.23674 -0.91169 0.33582
vn -0.30951 -0.87314 0.37660
vn 0.03444 0.00495 -0.99939
vn -0.00142 -0.00626 -0.99998
vn 0.01021 0.81715 -0.57634
vn 0.07407 0.83685 -0.54240
vn -0.00546 0.91052 0.41343
vn -0.02984 0.91775 0.39604
vn -0.96522 0.12121 0.23163
vn -0.91100 0.37043 0.18129
vn -0.96901 0.08056 0.23351
vn -0.97268 0.00461 0.23211
vn -0.97148 0.00785 0.23698
vn -0.89637 0.00996 0.44320
vn -0.90527 0.00084 0.42484
vn -0.90237 0.00386 0.43095
vn -0.89192 0.01435 0.45196
vn -0.03164 -0.91934 0.39220
vn -0.05112 -0.91046 0.41043
vn 0.01245 0.06923 -0.99752
vn -0.03061 0.03510 -0.99891
vn -0.02276 -0.00790 0.99971
vn -0.02307 -0.00781 0.99970
vn -0.02782 0.94839 0.31590
vn -0.01333 0.94603 0.32379
vn -1.00000 -0.00220 -0.00037
vn -0.99795 0.03315 -0.05467
vn -0.02810 -0.99823 -0.05234
vn 0.01857 -0.99951 -0.02516
vn 0.00043 0.77340 -0.63391
vn 0.00044 0.77340 -0.63392
vn -0.00148 -0.00593 0.99998
vn -0.00007 -0.00641 0.99998
vn -0.00609 -0.00436 0.99997
vn -0.00755 -0.00387 0.99996
vn 0.00657 -0.99967 0.02480
vn -0.00372 -0.97281 0.23157
vn 0.00378 -0.98041 0.19695
vn -0.00628 -0.88733 0.46109
vn -0.00003 -0.00469 -0.99999
vn -0.00090 0.84791 -0.53013
vn -0.01580 0.83330 -0.55260
vn -0.00906 0.84001 -0.54249
vn 0.00531 0.85377 -0.52063
vn -0.00332 0.78297 0.62205
vn 0.00403 0.77595 0.63078
vn -0.00115 0.78091 0.62464
vn -0.00651 0.78597 0.61823
vn -0.88216 0.02971 0.47002
vn -0.94843 0.02723 0.31581
vn -0.88871 0.02711 0.45768
vn -0.98490 0.02134 0.17178
vn -0.99616 0.03950 0.07819
vn -0.97304 0.03662 0.22772
vn 0.88265 -0.02187 0.46952
vn 0.98050 -0.02115 0.19537
vn 0.97107 -0.02217 0.23775
vn 0.88426 -0.02262 0.46645
vn 0.99978 -0.02084 0.00116
vn 0.99979 -0.01980 -0.00452
vn -0.00621 -0.99835 0.05707
vn -0.00893 -0.88531 0.46491
vn 0.00034 0.03351 0.99944
vn 0.00153 0.03216 0.99948
vn 0.00049 0.03334 0.99944
vn -0.00079 0.03478 0.99939
vn -0.05704 -0.90754 0.41607
vn -0.04623 -0.89852 0.43648
vn -0.05182 -0.90326 0.42596
vn -0.04269 -0.89546 0.44310
vn -0.02035 0.89976 -0.43590
vn -0.02420 0.90278 -0.42942
vn -0.02179 0.90089 -0.43349
vn -0.02611 0.90425 -0.42620
vn -0.59339 -0.00854 -0.80487
vn -0.46714 -0.01359 -0.88408
vn -0.91670 0.01432 -0.39931
vn -0.91471 0.01092 -0.40397
vn 0.74304 -0.02033 -0.66894
vn 0.54242 -0.04122 -0.83910
vn 0.88106 -0.02058 -0.47256
vn 0.88499 -0.01879 -0.46523
vn 0.00472 0.75942 -0.65058
vn 0.00524 0.75878 -0.65133
vn -0.88109 0.01615 -0.47267
vn -0.88502 0.01443 -0.46533
vn -0.00476 -0.76516 -0.64382
vn -0.00528 -0.76452 -0.64458
vn 0.99337 0.00450 -0.11485
vn 0.98571 -0.02464 -0.16661
vn -0.68473 0.62678 -0.37188
vn -0.21920 -0.62986 -0.74513
vn -0.68252 -0.63001 -0.37048
vn -0.22119 0.62656 -0.74733
vn -0.74708 0.62682 0.22128
vn -0.74444 -0.62967 0.22209
vn -0.37181 0.62676 0.68479
vn -0.37026 -0.63078 0.68193
vn 0.37017 -0.63102 -0.68176
vn 0.37196 0.62636 -0.68506
vn 0.68481 0.62678 0.37172
vn 0.68244 -0.63001 0.37063
vn 0.74431 -0.62986 -0.22199
vn 0.74723 0.62656 -0.22152
vn 0.22131 0.62682 0.74707
vn 0.21919 -0.62967 0.74530
vn 0.00000 -1.00000 0.00000
vn -0.00004 1.00000 0.00007
# 315 normals
usemtl turret_01
f  3/1/1 2/2/2 1/3/3
f  3/1/1 4/4/4 2/2/2
f  1/3/5 6/4/6 5/1/7
f  1/3/5 2/2/8 6/4/6
f  5/1/9 8/2/10 7/3/11
f  5/1/9 6/4/12 8/2/10
f  7/3/13 10/4/14 9/1/15
f  7/3/13 8/2/16 10/4/14
f  11/3/17 4/4/18 3/1/19
f  11/3/17 12/2/20 4/4/18
f  7/5/21 9/6/21 3/7/22
f  5/8/21 7/5/21 3/7/22
f  9/6/21 11/9/22 3/7/22
f  5/8/21 3/7/22 1/10/22
f  4/11/23 12/12/24 13/13/25
f  13/13/25 10/11/26 8/12/27
f  6/11/28 13/13/25 8/12/27
f  6/11/28 2/12/29 13/13/25
f  4/11/23 13/13/25 2/12/29
f  16/14/30 15/15/31 14/16/32
f  16/14/30 14/16/32 17/17/33
f  15/18/34 19/19/34 18/20/34
f  15/18/34 18/20/34 14/21/34
f  19/15/35 21/14/36 20/17/37
f  19/15/35 20/17/37 18/16/38
f  21/22/39 17/23/40 22/24/41
f  21/22/39 22/24/41 23/25/42
f  22/17/43 17/14/44 14/16/45
f  22/14/43 14/15/45 18/16/46
f  18/16/46 23/17/47 22/14/43
f  18/16/46 20/17/48 23/14/47
f  21/22/39 23/25/42 20/26/49
f  21/22/39 16/27/50 17/23/40
f  26/28/51 25/29/52 24/30/53
f  25/29/52 27/31/54 24/30/53
f  29/32/55 28/33/56 26/34/57
f  28/33/56 25/35/58 26/34/57
f  31/36/59 30/37/60 29/38/61
f  30/37/60 28/39/62 29/38/61
f  33/40/63 32/41/64 31/42/65
f  32/41/64 30/43/66 31/42/65
f  24/44/67 27/45/68 33/46/69
f  27/45/68 32/47/70 33/46/69
f  32/33/71 27/32/72 30/34/73
f  28/48/74 30/49/73 25/50/75
f  25/50/75 30/49/73 27/51/72
f  36/52/76 35/53/77 34/54/78
f  34/54/78 35/53/77 37/55/79
f  39/56/80 36/52/80 38/57/80
f  34/54/81 38/57/81 36/52/81
f  41/57/82 40/56/82 31/54/82
f  42/52/83 31/54/83 40/56/83
f  38/58/84 34/59/84 43/60/84
f  37/61/85 43/60/85 34/59/85
f  43/57/86 37/54/86 44/56/86
f  35/52/87 44/56/87 37/54/87
f  36/62/88 42/63/88 35/64/88
f  40/65/89 35/64/89 42/63/89
f  39/53/90 31/52/90 36/55/90
f  42/54/91 36/55/91 31/52/91
f  35/66/92 40/67/92 44/68/92
f  41/69/93 44/68/93 40/67/93
f  47/70/94 46/71/95 45/72/96
f  46/71/95 48/73/97 45/72/96
f  51/74/98 50/75/99 49/76/100
f  51/74/98 49/76/100 47/77/101
f  54/39/102 53/38/102 52/37/102
f  53/38/102 55/36/102 52/37/102
f  58/78/103 57/79/104 56/80/105
f  57/79/104 59/81/106 56/80/105
f  45/81/107 48/80/108 58/79/109
f  48/80/108 57/78/110 58/79/109
f  57/82/111 48/83/112 46/70/113
f  50/84/114 59/85/115 57/82/111
f  46/70/113 49/86/116 57/82/111
f  51/86/117 47/70/118 58/82/119
f  45/83/120 58/82/119 47/70/118
f  58/82/119 56/85/121 60/84/122
f  60/84/122 51/86/117 58/82/119
f  60/87/123 50/75/99 51/74/98
f  49/86/116 50/84/114 57/82/111
f  49/76/100 46/88/124 47/77/101
f  63/89/125 62/90/126 61/91/127
f  62/90/126 64/92/128 61/91/127
f  66/91/129 65/92/130 62/90/131
f  66/91/129 62/90/131 63/89/132
f  61/91/133 64/92/134 67/90/135
f  61/91/133 67/90/135 68/89/136
f  65/92/137 67/91/138 62/90/139
f  67/91/138 64/89/140 62/90/139
f  68/89/141 67/90/138 66/91/142
f  65/92/137 66/91/142 67/90/138
f  56/93/143 54/94/143 60/95/143
f  52/96/144 60/95/144 54/94/144
f  59/97/145 53/98/145 56/99/145
f  54/100/146 56/99/146 53/98/146
f  50/95/147 55/96/147 59/93/147
f  53/94/148 59/93/148 55/96/148
f  60/74/149 52/77/149 50/76/149
f  55/88/150 50/76/150 52/77/150
f  61/90/151 68/92/141 63/89/152
f  66/91/142 63/89/152 68/92/141
f  71/101/153 70/102/154 69/103/155
f  71/101/153 72/104/156 70/102/154
f  69/103/155 74/105/157 73/106/158
f  69/103/155 70/102/154 74/105/157
f  73/106/158 76/107/159 75/108/160
f  73/106/158 74/105/157 76/107/159
f  77/109/161 72/104/156 71/101/153
f  77/109/161 78/110/162 72/104/156
f  81/111/163 80/112/164 79/113/165
f  80/112/164 82/114/166 79/113/165
f  84/115/167 83/116/168 81/111/163
f  83/116/168 80/112/164 81/111/163
f  75/108/160 76/107/159 84/115/167
f  76/107/159 83/116/168 84/115/167
f  79/113/165 82/114/166 77/117/161
f  82/114/166 78/118/162 77/117/161
f  69/119/155 85/120/169 71/121/153
f  73/121/158 85/120/169 69/119/155
f  75/119/160 85/120/169 73/121/158
f  71/121/153 85/120/169 77/119/161
f  79/121/165 85/120/169 81/119/163
f  81/119/163 85/120/169 84/121/167
f  84/121/167 85/120/169 75/119/160
f  77/119/161 85/120/169 79/121/165
f  72/121/156 86/120/170 70/119/154
f  70/119/154 86/120/170 74/121/157
f  74/121/157 86/120/170 76/119/159
f  78/119/162 86/120/170 72/121/156
f  80/119/164 86/120/170 82/121/166
f  83/121/168 86/120/170 80/119/164
f  76/119/159 86/120/170 83/121/168
f  82/121/166 86/120/170 78/119/162
f  89/2/171 88/1/172 87/3/173
f  90/4/174 88/1/172 89/2/171
f  92/4/175 87/3/176 91/1/177
f  89/2/178 87/3/176 92/4/175
f  94/2/179 91/1/180 93/3/181
f  92/4/182 91/1/180 94/2/179
f  10/4/14 93/3/183 9/1/15
f  94/2/184 93/3/183 10/4/14
f  90/4/185 11/3/17 88/1/186
f  12/2/20 11/3/17 90/4/185
f  9/6/21 93/5/22 88/7/21
f  93/5/22 91/8/22 88/7/21
f  11/9/22 9/6/21 88/7/21
f  88/7/21 91/8/22 87/10/21
f  12/12/24 90/11/187 13/13/25
f  10/11/26 13/13/25 94/12/188
f  13/13/25 92/11/189 94/12/188
f  89/12/190 92/11/189 13/13/25
f  13/13/25 90/11/187 89/12/190
f  15/15/31 16/14/30 95/16/191
f  95/16/191 16/14/30 96/17/192
f  19/19/34 15/18/34 97/20/193
f  97/20/193 15/18/34 95/21/193
f  21/14/36 19/15/35 98/17/194
f  98/17/194 19/15/35 97/16/195
f  96/23/196 21/22/39 99/24/197
f  99/24/197 21/22/39 100/25/198
f  96/14/199 99/17/200 95/16/201
f  95/15/201 99/14/200 97/16/202
f  100/17/203 97/16/202 99/14/200
f  98/17/204 97/16/202 100/14/203
f  100/25/198 21/22/39 98/26/205
f  16/27/50 21/22/39 96/23/196
f  101/29/206 26/28/51 24/30/53
f  102/31/207 101/29/206 24/30/53
f  103/33/208 29/32/55 26/34/57
f  101/35/209 103/33/208 26/34/57
f  104/37/210 31/36/59 29/38/61
f  103/39/211 104/37/210 29/38/61
f  105/41/212 33/40/63 31/42/65
f  104/43/213 105/41/212 31/42/65
f  102/45/214 24/44/67 33/46/69
f  105/47/215 102/45/214 33/46/69
f  102/32/216 105/33/217 104/34/218
f  104/49/218 103/48/219 101/50/220
f  104/49/218 101/50/220 102/51/216
f  108/53/221 107/52/222 106/54/223
f  108/53/221 106/54/223 109/55/224
f  107/52/225 39/56/225 38/57/225
f  38/57/226 106/54/226 107/52/226
f  110/56/227 41/57/227 31/54/227
f  31/54/228 111/52/228 110/56/228
f  106/59/229 38/58/229 43/60/229
f  43/60/230 109/61/230 106/59/230
f  109/54/231 43/57/231 44/56/231
f  44/56/232 108/52/232 109/54/232
f  111/63/233 107/62/233 108/64/233
f  108/64/234 110/65/234 111/63/234
f  31/52/235 39/53/235 107/55/235
f  107/55/236 111/54/236 31/52/236
f  110/67/237 108/66/237 44/68/237
f  44/68/238 41/69/238 110/67/238
f  114/71/239 113/70/240 112/72/241
f  115/73/242 114/71/239 112/72/241
f  118/75/243 117/74/244 116/76/245
f  116/76/245 117/74/244 113/77/246
f  121/38/247 120/39/247 119/37/247
f  122/36/247 121/38/247 119/37/247
f  125/79/248 124/78/249 123/80/250
f  126/81/251 125/79/248 123/80/250
f  115/80/252 112/81/253 124/79/254
f  125/78/255 115/80/252 124/79/254
f  115/83/256 125/82/257 114/70/258
f  126/85/259 118/84/260 125/82/257
f  116/86/261 114/70/258 125/82/257
f  113/70/262 117/86/263 124/82/264
f  124/82/264 112/83/265 113/70/262
f  123/85/266 124/82/264 127/84/267
f  117/86/263 127/84/267 124/82/264
f  118/75/243 127/87/268 117/74/244
f  118/84/260 116/86/261 125/82/257
f  114/88/269 116/76/245 113/77/246
f  130/90/270 129/89/271 128/91/272
f  131/92/273 130/90/270 128/91/272
f  133/92/274 132/91/275 130/90/276
f  130/90/276 132/91/275 129/89/277
f  131/92/278 128/91/279 134/90/280
f  134/90/280 128/91/279 135/89/281
f  134/91/282 133/92/283 130/90/284
f  131/89/285 134/91/282 130/90/284
f  134/90/282 135/89/286 132/91/287
f  132/91/287 133/92/283 134/90/282
f  120/94/288 123/93/288 127/95/288
f  127/95/289 119/96/289 120/94/289
f  121/98/290 126/97/290 123/99/290
f  123/99/291 120/100/291 121/98/291
f  122/96/292 118/95/292 126/93/292
f  126/93/293 121/94/293 122/96/293
f  119/77/294 127/74/294 118/76/294
f  118/76/295 122/88/295 119/77/295
f  135/92/286 128/90/296 129/89/297
f  129/89/297 132/91/287 135/92/286
f  138/102/298 137/101/299 136/103/300
f  139/104/301 137/101/299 138/102/298
f  141/105/302 136/103/300 140/106/303
f  138/102/298 136/103/300 141/105/302
f  143/107/304 140/106/303 142/108/305
f  141/105/302 140/106/303 143/107/304
f  139/104/301 144/109/306 137/101/299
f  145/110/307 144/109/306 139/104/301
f  148/112/308 147/111/309 146/113/310
f  149/114/311 148/112/308 146/113/310
f  151/116/312 150/115/313 147/111/309
f  148/112/308 151/116/312 147/111/309
f  143/107/304 142/108/305 150/115/313
f  151/116/312 143/107/304 150/115/313
f  149/114/311 146/113/310 144/117/306
f  145/118/307 149/114/311 144/117/306
f  152/120/314 136/119/300 137/121/299
f  152/120/314 140/121/303 136/119/300
f  152/120/314 142/119/305 140/121/303
f  152/120/314 137/121/299 144/119/306
f  152/120/314 146/121/310 147/119/309
f  152/120/314 147/119/309 150/121/313
f  152/120/314 150/121/313 142/119/305
f  152/120/314 144/119/306 146/121/310
f  153/120/315 139/121/301 138/119/298
f  153/120/315 138/119/298 141/121/302
f  153/120/315 141/121/302 143/119/304
f  153/120/315 145/119/307 139/121/301
f  153/120/315 148/119/308 149/121/311
f  153/120/315 151/121/312 148/119/308
f  153/120/315 143/119/304 151/121/312
f  153/120/315 149/121/311 145/119/307
