# 
# Wavefront OBJ file
# Converted by the DEEP Exploration Deep Exploration 6.0 6.0.2.6082 Release
# Right Hemisphere, LTD
# http://www.righthemisphere.com/
# 
mtllib turret-16.mtl
# object turret-16
g turret_16
v 0.97749 0.43625 0.52691
v 0.98532 -0.85994 0.52691
v 0.00000 0.03111 1.20905
v 1.37472 -0.80451 -0.10730
v 1.32566 0.66758 -0.10730
v 1.05203 -1.16527 -0.10730
v 0.00000 -1.26606 -0.10730
v 0.00000 -0.96427 0.52691
v 0.00000 1.24485 -0.10730
v 0.00000 0.73669 1.69963
v 0.37060 0.63561 1.68413
v 0.00000 -0.40092 1.70947
v 0.35045 -0.40616 1.69049
v 0.00000 0.97012 1.02695
v 0.53224 0.84968 1.02695
v 0.00000 -0.44097 1.01871
v 0.52796 -0.44644 1.01871
v 0.65593 -0.31801 1.54906
v 0.65846 -1.47134 1.54139
v 0.25883 -0.53995 1.94138
v 0.24158 -1.33490 1.94841
v 0.00000 -0.30524 1.55486
v 0.00000 -0.52803 1.94717
v 0.00000 -0.88556 0.82703
v 0.56396 -0.88120 0.82141
v 0.00000 -0.32403 0.80860
v 0.58102 -0.33680 0.80281
v 0.00000 -1.34012 1.95403
v 0.00000 -1.47569 1.54701
v 0.00000 0.89829 0.52691
v -0.97749 0.43625 0.52691
v -0.98532 -0.85994 0.52691
v -1.37472 -0.80451 -0.10730
v -1.32566 0.66758 -0.10730
v -1.05203 -1.16527 -0.10730
v -0.37060 0.63561 1.68413
v -0.35045 -0.40616 1.69049
v -0.53224 0.84968 1.02695
v -0.52796 -0.44644 1.01871
v -0.65593 -0.31801 1.54906
v -0.25883 -0.53995 1.94138
v -0.65846 -1.47134 1.54139
v -0.24158 -1.33490 1.94841
v -0.56396 -0.88120 0.82141
v -0.58102 -0.33680 0.80281
v 0.08083 -2.32016 1.57175
v -0.08071 -2.31535 1.57004
v -0.08071 -1.33915 1.57019
v 0.08117 -1.32561 1.56988
v 0.15666 -1.28817 1.29614
v 0.15512 -2.34941 1.29924
v -0.17318 -2.33553 1.30367
v -0.17318 -1.29873 1.29679
v 0.18000 -3.10359 1.64521
v -0.17275 -3.10552 1.63840
v -0.19191 -2.25013 1.63868
v 0.19360 -2.25540 1.62657
v 0.22983 -2.35171 1.27378
v 0.21482 -3.19360 1.28939
v 0.00228 -3.14523 1.48515
v -0.23966 -2.35774 1.27698
v -0.22050 -3.19742 1.28450
# 62 verticies
vt -0.14177 0.47420
vt -0.26949 0.29368
vt -0.00424 0.29587
vt -0.01176 0.50458
vt 0.27498 0.65688
vt 0.00974 0.65908
vt 0.29961 0.50901
vt 0.00132 0.50901
vt 0.01524 0.65688
vt 0.17724 0.50458
vt -0.26236 0.29368
vt -0.14355 0.47217
vt -0.01670 0.29587
vt 0.85956 0.40343
vt 0.69833 0.15691
vt 0.68098 0.41226
vt 0.92489 0.31530
vt 0.95938 0.14959
vt 0.17297 0.95171
vt 0.00448 0.99225
vt 0.00523 0.95230
vt 0.17209 0.99189
vt 0.16946 0.07731
vt 0.37424 0.00133
vt 0.37424 0.12161
vt 0.16946 -0.00359
vt 0.26454 0.52735
vt 0.06188 0.64332
vt 0.06207 0.52752
vt 0.26599 0.64351
vt 0.52927 0.87130
vt 0.41598 0.79182
vt 0.41598 0.87130
vt 0.52927 0.78995
vt 0.19616 0.03558
vt 0.37424 0.29789
vt 0.37424 0.03695
vt 0.13740 0.26962
vt 0.29792 0.42070
vt 0.42189 0.51128
vt 0.29594 0.51154
vt 0.42163 0.42094
vt 0.38370 0.42094
vt 0.38396 0.51128
vt 0.47644 0.48283
vt 0.41364 0.54895
vt 0.41383 0.48301
vt 0.47788 0.54914
vt 0.01144 -0.14673
vt 0.18164 -0.20484
vt 0.18147 -0.14693
vt 0.01125 -0.20510
vt 0.16848 0.60307
vt 0.29499 0.48460
vt 0.29616 0.60236
vt 0.16891 0.48385
vt 0.09654 0.15899
vt 0.00055 0.36113
vt -0.00379 0.16055
vt 0.09665 0.35957
vt -0.14301 0.47217
vt 1.57880 1.45163
vt 1.27986 1.45238
vt 1.27936 1.48599
vt 1.57809 1.48571
vt 1.27986 1.43536
vt 1.57880 1.43461
vt 1.57809 1.47994
vt 1.27936 1.48022
vt 0.46545 0.24891
vt 0.46210 0.43013
vt 0.34314 0.41179
vt 0.33969 0.25479
vt 1.57880 1.45076
vt 1.27986 1.45151
vt 1.00204 1.39336
vt 1.30860 1.30197
vt 1.30895 1.48676
vt 1.40543 1.48699
vt 1.40530 1.30230
vt 1.06789 1.54420
vt 1.08454 1.51668
vt 1.04023 1.51470
vt 1.17351 1.77270
vt 1.17552 1.63689
vt 1.28543 1.77347
vt 1.28547 1.63749
# 87 texture verticies
vn 0.00000 0.07366 0.99728
vn 0.34008 -0.30495 0.88958
vn 0.47006 0.27693 0.83806
vn 0.85825 -0.27128 -0.43568
vn 0.69689 0.45253 0.55639
vn 0.59573 -0.58673 0.54850
vn 0.76839 0.51208 -0.38387
vn 0.38296 -0.80129 -0.45965
vn 0.00000 -0.90298 0.42968
vn 0.00000 -0.86013 -0.51007
vn 0.00000 -0.56530 0.82488
vn 0.00000 0.90136 -0.43307
vn 0.00000 0.00583 0.99998
vn 0.04592 0.00800 0.99891
vn 0.00000 0.00865 0.99996
vn 0.05416 0.00504 0.99852
vn 0.00000 0.93615 0.35161
vn 0.22537 0.91590 0.33215
vn 0.00000 0.94474 0.32783
vn 0.25971 0.89757 0.35624
vn 0.00000 0.00621 -0.99998
vn 0.00038 0.00596 -0.99998
vn 0.00000 0.00584 -0.99998
vn 0.00144 0.00635 -0.99998
vn 0.00000 -0.99835 0.05737
vn -0.01122 -0.99828 0.05759
vn 0.00000 -0.99832 0.05789
vn -0.01034 -0.99831 0.05713
vn 0.96995 -0.00849 0.24318
vn 0.96833 -0.01253 0.24937
vn 0.97141 -0.00471 0.23738
vn 0.96642 -0.01713 0.25640
vn 0.70181 -0.00479 0.71235
vn 0.69977 -0.00652 0.71433
vn 0.70371 -0.00318 0.71049
vn 0.69709 -0.00878 0.71693
vn 0.02130 0.86936 0.49372
vn 0.05085 0.84631 0.53025
vn -0.00970 -0.03279 -0.99942
vn -0.01071 -0.03382 -0.99937
vn 0.02278 0.00844 0.99970
vn 0.02306 0.00835 0.99970
vn 0.02782 -0.94839 0.31590
vn 0.00903 -0.94529 0.32611
vn 0.99499 0.00285 -0.09994
vn 0.98656 -0.03637 -0.15931
vn 0.01925 0.99950 -0.02517
vn 0.02170 0.99939 -0.02734
vn -0.00029 -0.77342 -0.63390
vn -0.00033 -0.77340 -0.63392
vn 0.00000 0.86945 0.49401
vn 0.00000 0.61826 0.78598
vn -0.34008 -0.30496 0.88958
vn -0.47006 0.27693 0.83806
vn -0.69689 0.45253 0.55639
vn -0.85825 -0.27128 -0.43568
vn -0.59573 -0.58673 0.54850
vn -0.76839 0.51208 -0.38387
vn -0.38296 -0.80129 -0.45965
vn -0.04592 0.00800 0.99891
vn -0.05416 0.00504 0.99852
vn -0.22537 0.91590 0.33215
vn -0.25971 0.89757 0.35624
vn -0.00038 0.00596 -0.99998
vn -0.00144 0.00635 -0.99998
vn 0.01122 -0.99828 0.05759
vn 0.01034 -0.99831 0.05713
vn -0.96833 -0.01253 0.24937
vn -0.96995 -0.00849 0.24318
vn -0.97141 -0.00471 0.23737
vn -0.96642 -0.01713 0.25640
vn -0.69977 -0.00652 0.71433
vn -0.70181 -0.00479 0.71235
vn -0.70371 -0.00318 0.71049
vn -0.69709 -0.00878 0.71693
vn -0.02130 0.86936 0.49372
vn -0.05085 0.84631 0.53025
vn 0.00970 -0.03279 -0.99942
vn 0.01071 -0.03382 -0.99937
vn -0.02278 0.00844 0.99970
vn -0.02306 0.00835 0.99970
vn -0.02782 -0.94839 0.31590
vn -0.00903 -0.94529 0.32611
vn -0.99499 0.00285 -0.09994
vn -0.98656 -0.03637 -0.15931
vn -0.01925 0.99950 -0.02517
vn -0.02170 0.99939 -0.02734
vn 0.00029 -0.77342 -0.63390
vn 0.00033 -0.77340 -0.63392
vn 0.00057 0.00169 1.00000
vn -0.01061 -0.00016 0.99994
vn -0.00930 0.00006 0.99996
vn 0.00180 0.00189 1.00000
vn 0.96466 0.00002 0.26351
vn 0.96404 -0.00062 0.26576
vn 0.96416 -0.00050 0.26533
vn 0.96479 0.00016 0.26301
vn -0.03733 -0.99502 0.09241
vn -0.04076 -0.99458 0.09564
vn -0.03630 -0.99515 0.09144
vn -0.03062 -0.99582 0.08609
vn -0.94474 0.00217 0.32781
vn -0.94517 0.00180 0.32657
vn -0.94681 0.00037 0.32181
vn -0.94728 -0.00005 0.32040
vn -0.00176 -0.00663 -0.99998
vn -0.00411 -0.00590 -0.99997
vn -0.01138 -0.00360 -0.99993
vn -0.01363 -0.00290 -0.99990
vn -0.08259 0.99020 0.11264
vn -0.04872 0.98871 0.14170
vn -0.05455 0.98911 0.13673
vn -0.03129 0.98718 0.15651
vn 0.01877 0.01584 0.99970
vn -0.01929 -0.00075 0.99981
vn -0.00562 0.00521 0.99997
vn 0.03167 0.02145 0.99927
vn 0.99465 -0.01428 0.10235
vn 0.99420 -0.01575 0.10641
vn 0.99437 -0.01519 0.10486
vn 0.99481 -0.01373 0.10083
vn 0.00309 -0.96862 0.24853
vn 0.00573 -0.96931 0.24578
vn 0.00339 -0.96870 0.24822
vn 0.00046 -0.96792 0.25127
vn -0.99004 -0.02135 0.13913
vn -0.99010 -0.02157 0.13868
vn -0.99022 -0.02202 0.13778
vn -0.99027 -0.02223 0.13735
vn -0.00669 -0.00911 -0.99994
vn -0.00115 -0.01206 -0.99993
vn 0.00556 -0.01563 -0.99986
vn 0.01141 -0.01874 -0.99976
vn 0.00494 0.96481 -0.26289
vn -0.00457 0.96198 -0.27309
vn -0.00619 0.96148 -0.27482
vn -0.01423 0.95890 -0.28340
vn 0.00318 -0.96864 0.24844
# 138 normals
usemtl turret_01
f  3/1/1 2/2/2 1/3/3
f  4/4/4 1/5/5 2/6/6
f  1/5/5 4/4/4 5/7/7
f  4/8/4 2/9/6 6/10/8
f  8/6/9 7/4/10 2/5/6
f  2/11/2 3/12/1 8/13/11
f  6/7/8 2/5/6 7/4/10
f  4/14/4 9/15/12 5/16/7
f  6/17/8 9/15/12 4/14/4
f  7/18/10 9/15/12 6/17/8
f  12/19/13 11/20/14 10/21/15
f  12/19/13 13/22/16 11/20/14
f  10/23/17 15/24/18 14/25/19
f  10/23/17 11/26/20 15/24/18
f  14/27/21 17/28/22 16/29/23
f  14/27/21 15/30/24 17/28/22
f  16/31/25 13/32/26 12/33/27
f  16/31/25 17/34/28 13/32/26
f  11/35/29 17/36/30 15/37/31
f  13/38/32 17/36/30 11/35/29
f  20/39/33 19/40/34 18/41/35
f  21/42/36 19/40/34 20/39/33
f  23/43/37 18/41/37 22/44/37
f  18/41/38 23/43/38 20/39/38
f  26/45/39 25/46/39 24/47/39
f  25/46/40 26/45/40 27/48/40
f  28/49/41 20/50/41 23/51/41
f  20/50/42 28/49/42 21/52/42
f  29/44/43 21/39/43 28/43/43
f  21/39/44 29/44/44 19/41/44
f  19/53/45 27/54/45 18/55/45
f  27/54/46 19/53/46 25/56/46
f  18/55/47 26/56/47 22/53/47
f  26/56/48 18/55/48 27/54/48
f  29/57/49 25/58/49 19/59/49
f  25/58/50 29/57/50 24/60/50
f  30/5/51 5/4/7 9/7/12
f  5/4/7 30/5/51 1/6/5
f  3/61/1 1/3/3 30/2/52
f  32/2/53 3/1/1 31/3/54
f  31/5/55 33/4/56 32/6/57
f  33/4/56 31/5/55 34/7/58
f  32/9/57 33/8/56 35/10/59
f  7/4/10 8/6/9 32/5/57
f  3/12/1 32/11/53 8/13/11
f  32/5/57 35/7/59 7/4/10
f  9/15/12 33/14/56 34/16/58
f  9/15/12 35/17/59 33/14/56
f  9/15/12 7/18/10 35/17/59
f  36/20/60 12/19/13 10/21/15
f  37/22/61 12/19/13 36/20/60
f  38/24/62 10/23/17 14/25/19
f  36/26/63 10/23/17 38/24/62
f  39/28/64 14/27/21 16/29/23
f  38/30/65 14/27/21 39/28/64
f  37/32/66 16/31/25 12/33/27
f  39/34/67 16/31/25 37/32/66
f  39/36/68 36/35/69 38/37/70
f  39/36/68 37/38/71 36/35/69
f  42/40/72 41/39/73 40/41/74
f  42/40/72 43/42/75 41/39/73
f  40/41/76 23/43/76 22/44/76
f  23/43/77 40/41/77 41/39/77
f  44/46/78 26/45/78 24/47/78
f  26/45/79 44/46/79 45/48/79
f  41/50/80 28/49/80 23/51/80
f  28/49/81 41/50/81 43/52/81
f  43/39/82 29/44/82 28/43/82
f  29/44/83 43/39/83 42/41/83
f  45/54/84 42/53/84 40/55/84
f  42/53/85 45/54/85 44/56/85
f  26/56/86 40/55/86 22/53/86
f  40/55/87 26/56/87 45/54/87
f  44/58/88 29/57/88 42/59/88
f  29/57/89 44/58/89 24/60/89
f  34/4/58 30/5/51 9/7/12
f  30/5/51 34/4/58 31/6/55
f  31/3/54 3/61/1 30/2/52
f  48/62/90 47/63/91 46/64/92
f  46/64/92 49/65/93 48/62/90
f  51/66/94 50/67/95 49/68/96
f  49/68/96 46/69/97 51/66/94
f  52/70/98 51/71/99 46/72/100
f  46/72/100 47/73/101 52/70/98
f  52/68/102 47/74/103 53/69/104
f  48/75/105 53/69/104 47/74/103
f  53/68/106 50/67/107 52/69/108
f  51/66/109 52/69/108 50/67/107
f  49/76/110 50/67/111 48/76/112
f  53/76/113 48/76/112 50/67/111
f  56/77/114 55/78/115 54/79/116
f  54/79/116 57/80/117 56/77/114
f  59/78/118 58/77/119 57/80/120
f  57/80/120 54/79/121 59/78/118
f  60/81/122 59/82/123 54/83/124
f  54/83/124 55/82/125 60/81/122
f  62/79/126 55/78/127 61/80/128
f  56/77/129 61/80/128 55/78/127
f  61/80/130 58/77/131 62/79/132
f  59/78/133 62/79/132 58/77/131
f  57/84/134 58/85/135 56/86/136
f  61/87/137 56/86/136 58/85/135
f  60/81/122 55/82/125 62/83/138
f  62/83/138 59/82/123 60/81/122
